<svg width="203" height="203" viewBox="0 0 203 203" fill="none" xmlns="http://www.w3.org/2000/svg">
<path d="M127.728 11.041C124.312 7.546 120.233 4.76885 115.729 2.87279C111.225 0.976729 106.387 0 101.5 0C96.6131 0 91.7755 0.976729 87.2714 2.87279C82.7674 4.76885 78.6877 7.546 75.2723 11.041L67.3799 19.136L56.0869 18.9964C51.1985 18.9385 46.3479 19.8586 41.8204 21.7026C37.2928 23.5465 33.1797 26.2771 29.7229 29.7337C26.2661 33.1903 23.5353 37.3032 21.6913 41.8305C19.8472 46.3577 18.927 51.208 18.9849 56.0961L19.1118 67.3884L11.0417 75.2803C7.54647 78.6955 4.76915 82.7749 2.87297 87.2786C0.97679 91.7824 0 96.6197 0 101.506C0 106.393 0.97679 111.23 2.87297 115.734C4.76915 120.238 7.54647 124.317 11.0417 127.732L19.1245 135.624L18.9849 146.917C18.927 151.805 19.8472 156.655 21.6913 161.182C23.5353 165.71 26.2661 169.822 29.7229 173.279C33.1797 176.736 37.2928 179.466 41.8204 181.31C46.3479 183.154 51.1985 184.074 56.0869 184.016L67.3799 183.889L75.2723 191.959C78.6877 195.454 82.7674 198.231 87.2714 200.127C91.7755 202.023 96.6131 203 101.5 203C106.387 203 111.225 202.023 115.729 200.127C120.233 198.231 124.312 195.454 127.728 191.959L135.62 183.877L146.913 184.016C151.801 184.074 156.652 183.154 161.18 181.31C165.707 179.466 169.82 176.736 173.277 173.279C176.734 169.822 179.465 165.71 181.309 161.182C183.153 156.655 184.073 151.805 184.015 146.917L183.888 135.624L191.958 127.732C195.454 124.317 198.231 120.238 200.127 115.734C202.023 111.23 203 106.393 203 101.506C203 96.6197 202.023 91.7824 200.127 87.2786C198.231 82.7749 195.454 78.6955 191.958 75.2803L183.876 67.3884L184.015 56.0961C184.073 51.208 183.153 46.3577 181.309 41.8305C179.465 37.3032 176.734 33.1903 173.277 29.7337C169.82 26.2771 165.707 23.5465 161.18 21.7026C156.652 19.8586 151.801 18.9385 146.913 18.9964L135.62 19.1233L127.728 11.0537V11.041ZM131.369 86.9659L93.3031 125.03C92.7137 125.621 92.0136 126.089 91.2428 126.409C90.472 126.729 89.6457 126.894 88.8112 126.894C87.9767 126.894 87.1504 126.729 86.3796 126.409C85.6088 126.089 84.9087 125.621 84.3194 125.03L65.2862 105.998C64.6964 105.408 64.2284 104.708 63.9092 103.937C63.59 103.166 63.4257 102.341 63.4257 101.506C63.4257 100.672 63.59 99.8462 63.9092 99.0755C64.2284 98.3049 64.6964 97.6046 65.2862 97.0148C65.8761 96.425 66.5764 95.9571 67.3471 95.6379C68.1178 95.3186 68.9439 95.1543 69.7781 95.1543C70.6123 95.1543 71.4383 95.3186 72.209 95.6379C72.9797 95.9571 73.68 96.425 74.2699 97.0148L88.8112 111.568L122.386 77.9828C123.577 76.7916 125.193 76.1224 126.878 76.1224C128.562 76.1224 130.178 76.7916 131.369 77.9828C132.561 79.1741 133.23 80.7897 133.23 82.4744C133.23 84.159 132.561 85.7747 131.369 86.9659V86.9659Z" fill="#2ACF31"/>
</svg>
