<svg width="161" height="60" viewBox="0 0 161 60" fill="none" xmlns="http://www.w3.org/2000/svg">
<path d="M102.808 42.1011C99.2048 42.0947 96.1219 41.509 93.1962 40.2517C91.3263 39.4485 89.6772 38.3588 88.248 36.9741C87.3665 36.12 87.1239 35.0812 87.4473 34.0085C87.7594 32.9751 88.6397 32.3342 89.766 32.0934C90.7762 31.8769 91.751 31.9501 92.5232 32.7247C94.351 34.555 96.68 35.495 99.2595 35.964C101.75 36.4171 104.228 36.3587 106.67 35.6765C107.956 35.3168 109.128 34.7682 110.083 33.8557C111.089 32.8955 111.512 31.7315 111.57 30.4201C111.643 28.7638 110.831 27.5712 109.344 26.7404C107.908 25.9383 106.325 25.4672 104.737 25.0173C102.365 24.3446 99.9371 23.8555 97.5728 23.1562C95.5434 22.5557 93.5743 21.8406 91.8114 20.7021C89.216 19.0256 87.5453 16.7815 87.1399 13.8371C86.6057 9.95587 87.5601 6.49583 90.7432 3.7573C92.7965 1.99067 95.2598 0.972073 97.9748 0.443676C99.5328 0.14022 101.11 0.00546781 102.702 0.0235054C104.037 0.039421 105.307 0.94873 105.671 2.13497C106.063 3.40821 105.568 4.68358 104.404 5.38387C103.905 5.68414 103.354 5.84648 102.761 5.83268C100.502 5.77857 98.3415 6.19238 96.3269 7.13033C94.8977 7.7956 93.9285 8.89484 93.5117 10.3485C93.0311 12.026 93.1234 13.6356 94.3772 15.0414C95.0583 15.8054 95.9727 16.2701 96.9203 16.6818C98.1844 17.2325 99.5077 17.6304 100.84 18.0049C102.949 18.598 105.113 18.997 107.214 19.6198C109.198 20.2087 111.154 20.8495 112.915 21.9148C115.152 23.2676 116.811 25.0438 117.473 27.4959C118.645 31.8376 117.039 36.9911 112.1 39.7456C109.847 41.0018 107.408 41.7371 104.795 41.9843C104.004 42.0576 103.215 42.1085 102.808 42.1011Z" fill="#434343"/>
<path d="M79.4255 13.8434C79.4084 16.0005 79.0656 18.0971 78.0532 20.0632C76.9405 22.2246 75.1913 23.8214 72.9808 25.0077C70.8466 26.1525 68.5313 26.8804 66.1841 27.5202C64.0647 28.0974 61.9601 28.7107 59.9831 29.638C57.1702 30.9569 55.5245 33.0811 55.0371 35.982C54.8572 37.0494 54.782 38.1221 54.7786 39.2022C54.774 40.6866 53.5258 41.9715 51.9975 42.0893C50.2949 42.2209 48.8395 41.2235 48.5707 39.6935C48.45 39.0038 48.5286 38.2982 48.5673 37.6011C48.6618 35.912 48.8976 34.2429 49.475 32.6323C50.7232 29.1521 53.1147 26.5568 56.5313 24.753C58.5197 23.7026 60.6641 23.014 62.8302 22.3827C64.5966 21.8681 66.3982 21.4574 68.0985 20.7561C69.1873 20.3073 70.2464 19.8054 71.154 19.0775C72.2006 18.2383 72.7211 17.1199 72.9591 15.8838C73.2905 14.1607 73.2803 12.4461 72.6448 10.7739C71.9547 8.95843 70.5823 7.69685 68.7488 6.9032C65.0122 5.28618 61.3611 5.47504 57.9081 7.6056C55.9983 8.78335 55.0929 10.5521 54.8378 12.6402C54.7683 13.2068 54.8298 13.7787 54.7228 14.3421C54.4506 15.765 53.0191 16.7719 51.3939 16.6785C49.885 16.5926 48.5764 15.3947 48.5411 13.9888C48.4728 11.3245 48.9978 8.78335 50.5694 6.50319C52.5533 3.62459 55.3662 1.75398 58.8568 0.779952C63.8392 -0.610007 68.6133 -0.106014 73.0206 2.48822C76.633 4.61454 78.7775 7.69579 79.2911 11.6927C79.3833 12.4057 79.4255 13.1241 79.4255 13.8434Z" fill="#434343"/>
<path d="M21.0846 9.90597C20.317 11.4561 19.5687 12.9671 18.8217 14.478C17.135 17.8903 15.4484 21.3036 13.7618 24.7159C12.8883 26.4825 11.9829 28.2364 11.1447 30.0169C10.0389 32.366 7.19746 32.2726 5.78188 30.7787C4.9118 29.8609 4.85486 28.7871 5.38556 27.6996C6.49252 25.4321 7.62567 23.1753 8.74857 20.9142C11.9066 14.5491 15.0589 8.18284 18.2238 1.82086C19.2533 -0.24816 21.3886 -0.283174 22.6493 0.389524C23.3144 0.744971 23.7563 1.29247 24.0729 1.93121C25.1525 4.10952 26.2253 6.29207 27.3095 8.46826C31.4663 16.8123 35.6276 25.1552 39.7867 33.4981C40.4985 34.9263 41.2091 36.3544 41.9186 37.7837C42.5233 38.9996 42.2819 40.4278 41.3298 41.2777C40.0031 42.4618 37.911 42.3514 36.7312 41.04C36.4464 40.7227 36.2346 40.3694 36.049 39.9959C33.2634 34.3894 30.4721 28.7839 27.683 23.1785C25.5363 18.8611 23.3919 14.5438 21.2474 10.2264C21.2019 10.1373 21.1563 10.0481 21.0846 9.90597Z" fill="#434343"/>
<path d="M142.054 31.3962C142.368 30.6779 142.655 30.0253 142.941 29.3707C145.407 23.7228 147.872 18.0749 150.339 12.427C151.891 8.8725 153.44 5.31697 155.003 1.76674C155.541 0.543362 156.532 -0.0179266 157.993 0.0213318C159.172 0.0531629 160.438 0.888199 160.821 1.89618C161.102 2.63573 161.039 3.36254 160.723 4.0851C158.847 8.38973 156.976 12.6954 155.105 17.0011C152.154 23.7928 149.206 30.5845 146.254 37.3762C145.851 38.3036 145.46 39.2362 145.03 40.1519C144.192 41.9376 142.445 42.4893 140.814 41.8517C139.969 41.5206 139.441 40.8745 139.104 40.102C136.739 34.6716 134.382 29.237 132.021 23.8045C130.765 20.9121 129.507 18.0208 128.247 15.1305C127.83 14.1745 127.76 13.227 128.351 12.3134C129.019 11.2821 130.045 10.8429 131.309 10.9012C132.639 10.9617 133.477 11.6832 133.958 12.7845C136.219 17.9645 138.467 23.1498 140.719 28.333C141.155 29.3325 141.59 30.3288 142.054 31.3962Z" fill="#434343"/>
<path d="M114.454 6.29005C116.118 4.93415 117.495 3.84133 118.429 6.4367C117.697 7.96387 113.857 9.31141 112.235 10.5906C112.34 7.24906 110.183 5.75119 110.911 4.25268C113.774 2.63718 114.418 4.17254 114.454 6.29005Z" fill="#434343"/>
<path d="M129.454 2.96363C129.454 4.58383 128.072 5.86875 126.332 5.86875C124.56 5.86875 123.174 4.59444 123.173 2.96363C123.172 1.31265 124.555 0.0425935 126.347 0.0478986C128.088 0.0521428 129.455 1.33494 129.454 2.96363Z" fill="#434343"/>
<path d="M76.2707 42.0946C74.5419 42.0946 73.1434 40.7864 73.156 39.1789C73.1685 37.5407 74.567 36.2345 76.298 36.2452C78.0496 36.2558 79.4287 37.5534 79.4276 39.1906C79.4265 40.8214 78.0405 42.0957 76.2707 42.0946Z" fill="#434343"/>
<path d="M6.24657 39.1195C6.24657 40.7291 4.8549 42.0236 3.12499 42.0268C1.39053 42.0289 -0.00113815 40.7206 6.98464e-07 39.0898C0.00113954 37.4781 1.39395 36.1847 3.12499 36.1858C4.87312 36.1868 6.24771 37.4792 6.24657 39.1195Z" fill="#434343"/>
<path d="M8.75418 57.3524C8.46719 57.433 8.31231 57.2792 8.19159 56.9937C7.9809 56.4929 7.71897 56.0123 7.4912 55.5178C7.42742 55.3788 7.34657 55.3268 7.1803 55.3279C5.82849 55.3343 4.47668 55.3364 3.12487 55.3268C2.92557 55.3258 2.84243 55.4001 2.77182 55.5539C2.55317 56.0303 2.2992 56.494 2.10104 56.9768C1.97919 57.2749 1.80608 57.381 1.46443 57.3598C0.983836 57.3301 0.984975 57.3534 1.18655 56.9428C2.31856 54.6425 3.45171 52.3421 4.57348 50.0386C4.67711 49.8254 4.79441 49.7277 5.04838 49.7606C5.30234 49.7935 5.55858 49.6885 5.72257 50.0312C6.83181 52.3411 7.97179 54.6382 9.10153 56.9396C9.3031 57.3513 9.30083 57.3524 8.75418 57.3524ZM3.20686 54.669C4.45732 54.669 5.65652 54.6658 6.85572 54.6711C7.08919 54.6722 7.03111 54.5735 6.97303 54.4515C6.62682 53.7342 6.28175 53.0159 5.93668 52.2976C5.68044 51.7649 5.42533 51.2323 5.14062 50.6402C4.47895 52.0175 3.85031 53.3289 3.20686 54.669Z" fill="#434343"/>
<path d="M69.6232 55.817C70.7621 56.6446 72.0046 56.9046 73.3689 56.5905C74.0909 56.4239 74.4895 55.9412 74.4838 55.3385C74.4804 54.8674 74.182 54.5852 73.7766 54.3825C73.271 54.131 72.7061 54.043 72.1606 53.8997C71.7597 53.7947 71.3566 53.6928 70.9637 53.5645C69.974 53.2408 69.5002 52.6732 69.4832 51.8212C69.4661 50.9829 69.9581 50.2752 70.876 49.9644C72.2266 49.506 73.5488 49.6344 74.8175 50.2583C74.9587 50.3272 75.0396 50.4068 74.9337 50.5628C74.8767 50.6455 74.8357 50.741 74.8073 50.8365C74.7549 51.0158 74.6763 51.0063 74.5191 50.9203C73.6012 50.4227 72.6139 50.2805 71.5775 50.4906C70.8532 50.6381 70.3908 51.1018 70.3521 51.6705C70.3168 52.1936 70.5662 52.5618 71.1504 52.8143C71.6287 53.0212 72.1446 53.1199 72.6526 53.2408C73.1297 53.3544 73.6069 53.469 74.0613 53.6451C74.8357 53.9454 75.3357 54.4472 75.3459 55.2706C75.3562 56.06 75.0043 56.6903 74.2299 57.0139C72.6492 57.6749 71.1015 57.5232 69.6312 56.6945C69.2383 56.4728 69.2543 56.4494 69.4729 56.0611C69.5185 55.9836 69.5686 55.9072 69.6232 55.817Z" fill="#434343"/>
<path d="M148.475 54.739C147.724 54.739 146.973 54.7528 146.223 54.7327C145.91 54.7242 145.904 54.8409 145.957 55.0648C146.206 56.1226 147.224 56.7762 148.49 56.6988C149.073 56.6638 149.601 56.4813 150.021 56.0887C150.149 55.9698 150.215 55.9953 150.324 56.1057C150.685 56.4675 150.682 56.4929 150.278 56.8017C148.894 57.8585 145.69 57.6505 145.139 55.1444C144.783 53.521 145.698 51.9803 147.442 51.6546C149.406 51.2875 151.146 52.6955 151.022 54.5534C151.011 54.7242 150.939 54.7422 150.789 54.7412C150.019 54.7369 149.247 54.739 148.475 54.739ZM148.091 54.1512C148.703 54.1512 149.313 54.1385 149.923 54.1576C150.194 54.1661 150.222 54.0716 150.178 53.8616C149.98 52.9077 149.103 52.2711 147.988 52.2827C146.976 52.2933 146.101 52.9926 145.939 53.9125C145.907 54.0929 145.948 54.1597 146.161 54.1555C146.804 54.1427 147.447 54.1512 148.091 54.1512Z" fill="#434343"/>
<path d="M133.382 56.5375C132.489 57.4861 131.402 57.5444 130.262 57.2431C129.416 57.0192 129.007 56.3921 129.064 55.5783C129.113 54.8748 129.641 54.356 130.483 54.2053C131.291 54.06 132.108 54.1565 132.92 54.1353C133.36 54.1236 133.361 54.1332 133.344 53.7289C133.302 52.7018 132.549 52.1671 131.328 52.3018C130.755 52.3644 130.218 52.5215 129.754 52.8514C129.639 52.9331 129.582 52.9522 129.487 52.8175C129.17 52.3676 129.162 52.3485 129.663 52.0864C130.593 51.6005 131.591 51.4901 132.616 51.7108C133.634 51.9294 134.174 52.6467 134.187 53.7385C134.199 54.8557 134.183 55.9741 134.195 57.0914C134.197 57.3067 134.12 57.3598 133.9 57.3577C133.382 57.3513 133.382 57.3609 133.381 56.8643C133.382 56.773 133.382 56.6829 133.382 56.5375ZM132.021 54.7146C131.612 54.7305 131.127 54.6701 130.654 54.8016C130.201 54.9279 129.938 55.1942 129.898 55.5613C129.848 56.0123 129.998 56.3868 130.449 56.5821C131.177 56.8972 131.909 56.8611 132.6 56.4791C133.236 56.1279 133.431 55.5804 133.35 54.9173C133.33 54.7624 133.283 54.7093 133.12 54.7136C132.777 54.7199 132.434 54.7146 132.021 54.7146Z" fill="#434343"/>
<path d="M120.016 49.7861C120.035 49.7797 120.055 49.7691 120.074 49.7691C120.899 49.7309 120.9 49.7299 121.233 50.4312C122.125 52.3082 123.016 54.1852 123.906 56.0632C123.939 56.1322 123.975 56.2001 124.028 56.3083C124.429 55.4733 124.813 54.6743 125.194 53.8743C125.795 52.618 126.404 51.366 126.986 50.1012C127.106 49.8392 127.245 49.7224 127.547 49.7628C127.694 49.7819 127.846 49.7659 128.044 49.7659C127.8 50.2795 127.568 50.7676 127.337 51.2546C126.405 53.2133 125.47 55.1698 124.55 57.1327C124.447 57.3502 124.296 57.3757 124.095 57.3502C123.874 57.3216 123.618 57.4574 123.471 57.1433C122.347 54.7528 121.206 52.3687 120.073 49.9813C120.042 49.9209 119.988 49.8625 120.016 49.7861Z" fill="#434343"/>
<path d="M38.3496 56.5895C37.4909 57.4712 36.4352 57.538 35.3214 57.2579C34.4729 57.0447 34.022 56.4102 34.0652 55.6239C34.1051 54.9014 34.6312 54.373 35.4774 54.2043C35.7405 54.1523 36.0058 54.1289 36.2757 54.13C36.7688 54.1321 37.262 54.131 37.7562 54.131C38.4521 54.131 38.4521 54.131 38.3382 53.4923C38.2061 52.7475 37.7221 52.3464 36.8577 52.2954C36.1072 52.2509 35.4068 52.4122 34.7975 52.8323C34.6233 52.9522 34.5675 52.9204 34.4695 52.7676C34.1951 52.3368 34.1848 52.3368 34.6631 52.0875C35.5822 51.6068 36.5684 51.4965 37.5865 51.6949C38.5568 51.8838 39.1525 52.5565 39.1843 53.5454C39.2231 54.7528 39.1969 55.9613 39.206 57.1699C39.2071 57.3216 39.1411 57.3651 38.9964 57.3502C38.9862 57.3492 38.9748 57.3502 38.9645 57.3502C38.3997 57.3683 38.4008 57.3683 38.394 56.842C38.3928 56.7826 38.3928 56.7221 38.3883 56.6627C38.3883 56.6457 38.3723 56.6298 38.3496 56.5895ZM37.1435 54.7072C36.6937 54.7189 36.1641 54.6605 35.6516 54.8037C35.2246 54.9226 34.9421 55.174 34.8989 55.6038C34.8556 56.0324 35.0264 56.3836 35.4455 56.5714C36.1823 56.9014 36.9249 56.8632 37.6241 56.4706C38.2676 56.1099 38.4566 55.5465 38.3712 54.8759C38.3553 54.7475 38.3154 54.704 38.181 54.7061C37.8599 54.7114 37.5387 54.7072 37.1435 54.7072Z" fill="#434343"/>
<path d="M58.0345 57.3852C56.2124 57.3852 54.9221 56.182 54.9232 54.4833C54.9244 52.809 56.2204 51.6153 58.0357 51.6153C59.8715 51.6153 61.1447 52.8026 61.1436 54.5141C61.1425 56.1905 59.8476 57.3863 58.0345 57.3852ZM60.2838 54.7624C60.2883 53.8541 60.0822 53.313 59.6688 52.9098C58.809 52.0716 57.2032 52.0811 56.3832 52.9289C55.4778 53.8647 55.5872 55.5263 56.619 56.2552C57.3786 56.7911 58.219 56.8579 59.0698 56.4812C59.9364 56.0971 60.2599 55.3852 60.2838 54.7624Z" fill="#434343"/>
<path d="M100.373 57.3874C98.5615 57.3884 97.2643 56.1926 97.2575 54.5162C97.2506 52.8143 98.5375 51.6153 100.37 51.6143C102.201 51.6143 103.495 52.8164 103.486 54.513C103.477 56.1937 102.185 57.3863 100.373 57.3874ZM102.621 54.5141C102.625 53.1941 101.704 52.2848 100.367 52.287C99.0557 52.2891 98.1093 53.2143 98.1059 54.4939C98.1036 55.7693 99.05 56.6998 100.36 56.7083C101.676 56.7168 102.618 55.8032 102.621 54.5141Z" fill="#434343"/>
<path d="M155.622 56.443C156.357 54.8992 157.068 53.4053 157.779 51.9113C157.88 51.6981 158.436 51.5304 158.647 51.6609C158.769 51.7363 158.653 51.819 158.621 51.8891C158.202 52.7729 157.778 53.6557 157.354 54.5385C156.769 55.7576 156.187 56.9778 155.593 58.1937C155.304 58.7847 154.905 59.2866 154.171 59.432C153.531 59.5593 152.917 59.4967 152.356 59.1413C152.176 59.0277 152.134 58.9216 152.278 58.7614C152.333 58.7009 152.378 58.6298 152.415 58.5587C152.485 58.4272 152.543 58.3985 152.694 58.5004C153.539 59.0691 154.324 58.8824 154.83 58.0357C155.095 57.5911 155.154 57.207 154.897 56.7072C154.087 55.1358 153.348 53.5326 152.581 51.9411C152.441 51.6503 152.445 51.6758 152.794 51.6418C153.195 51.6026 153.387 51.7352 153.546 52.0885C154.175 53.4743 154.847 54.843 155.504 56.2181C155.534 56.2818 155.569 56.3422 155.622 56.443Z" fill="#434343"/>
<path d="M106.962 52.6392C107.77 51.68 108.786 51.4827 109.903 51.6641C111.107 51.8593 111.777 52.6901 111.787 53.9284C111.796 54.9767 111.781 56.025 111.795 57.0733C111.797 57.3014 111.724 57.3651 111.485 57.3566C110.838 57.3343 110.949 57.4287 110.944 56.8462C110.937 55.938 110.942 55.0297 110.943 54.1204C110.943 53.8191 110.913 53.5231 110.789 53.2408C110.618 52.8504 110.323 52.5766 109.899 52.4302C108.412 51.9177 107.006 52.8185 107 54.2891C106.997 55.2175 106.991 56.1459 107.006 57.0743C107.009 57.3025 106.938 57.3619 106.7 57.3566C106.153 57.3449 106.153 57.3566 106.153 56.8579C106.153 55.2303 106.159 53.6037 106.147 51.9761C106.145 51.7246 106.193 51.6238 106.492 51.6408C107.037 51.6715 106.956 51.5888 106.963 52.0991C106.963 52.2498 106.962 52.3984 106.962 52.6392Z" fill="#434343"/>
<path d="M50.2663 53.9008C50.2663 52.8525 50.2595 51.8042 50.272 50.7559C50.2743 50.5384 50.223 50.4631 49.9736 50.4684C49.2129 50.4843 48.451 50.4652 47.6902 50.48C47.4499 50.4843 47.3759 50.4249 47.385 50.1978C47.401 49.767 47.3862 49.766 47.8406 49.766C49.7811 49.766 51.7217 49.7723 53.6635 49.7596C53.9516 49.7575 54.0097 49.8498 53.9846 50.0832C53.963 50.2784 54.0621 50.4981 53.6737 50.4832C52.9244 50.4546 52.1727 50.4843 51.4222 50.4694C51.1808 50.4652 51.117 50.5257 51.1181 50.7517C51.1284 52.8281 51.117 54.9046 51.1318 56.981C51.1341 57.2813 51.0612 57.3789 50.7298 57.3577C50.2686 57.328 50.2674 57.3503 50.2674 56.9269C50.2663 55.9179 50.2663 54.9099 50.2663 53.9008Z" fill="#434343"/>
<path d="M29.5747 57.3895C28.1102 57.3885 26.9827 56.6659 26.5727 55.4648C26.1388 54.1905 26.5875 52.8324 27.6763 52.1247C28.8925 51.3342 30.7386 51.4488 31.6782 52.3729C31.7374 52.4313 31.7875 52.496 31.8444 52.5554C31.9617 52.6775 31.9617 52.7793 31.7909 52.8568C31.7624 52.8695 31.7351 52.8876 31.7123 52.9077C31.4846 53.1072 31.3365 53.1029 31.086 52.8642C30.43 52.2361 29.5964 52.148 28.7365 52.4239C27.8744 52.6997 27.4052 53.3141 27.2982 54.1428C27.1399 55.382 27.7537 56.3296 28.8982 56.6129C29.7922 56.8335 30.602 56.6861 31.2283 55.9996C31.332 55.885 31.3935 55.8956 31.513 55.9667C32.0301 56.2744 32.038 56.302 31.5984 56.702C31.037 57.2155 30.34 57.3917 29.5747 57.3895Z" fill="#434343"/>
<path d="M92.9652 51.6005C93.8444 51.6069 94.6086 51.8445 95.1951 52.4886C95.3511 52.6605 95.3557 52.7591 95.1382 52.9024C94.8796 53.0732 94.7396 53.1241 94.4776 52.8578C93.7043 52.0705 92.184 52.1045 91.3412 52.8801C90.5953 53.5677 90.4472 54.8239 91.0064 55.7131C91.5189 56.5258 92.6202 56.894 93.6736 56.6012C94.0426 56.4993 94.3672 56.3221 94.5961 56.0335C94.7179 55.8807 94.7988 55.8871 94.9514 55.9868C95.4251 56.2956 95.4434 56.3179 95.0152 56.6882C94.1018 57.4786 93.0085 57.5497 91.8879 57.2378C90.7525 56.9227 90.0703 56.1587 89.8744 55.0754C89.5601 53.3417 90.5623 51.9655 92.3263 51.6525C92.5348 51.6185 92.7523 51.6175 92.9652 51.6005Z" fill="#434343"/>
<path d="M12.4374 54.8292C12.4374 55.5772 12.4271 56.3263 12.4431 57.0744C12.4476 57.3004 12.3793 57.363 12.139 57.3577C11.5981 57.3449 11.5981 57.3577 11.5981 56.8515C11.5981 55.4351 11.5935 54.0175 11.6026 52.601C11.6037 52.3867 11.5593 52.2827 11.3065 52.3156C11.1698 52.3336 11.0264 52.3039 10.8897 52.322C10.589 52.3623 10.4979 52.27 10.4888 51.9729C10.4786 51.6312 10.6585 51.6429 10.9147 51.6461C11.5981 51.6556 11.6038 51.6493 11.5969 51.0137C11.5901 50.376 11.7712 49.8116 12.4066 49.4911C13.0808 49.1516 13.7858 49.1792 14.4736 49.4869C14.8722 49.6651 14.5158 49.8667 14.4725 50.0482C14.4156 50.2869 14.2732 50.1235 14.1696 50.0736C13.8393 49.9124 13.4874 49.8996 13.1366 49.9675C12.7961 50.0333 12.5775 50.2402 12.4795 50.5585C12.3827 50.8726 12.4306 51.193 12.418 51.5103C12.4112 51.6684 12.533 51.6482 12.6378 51.6482C13.0991 51.6493 13.5591 51.6546 14.0204 51.6461C14.2117 51.6418 14.3108 51.6684 14.3005 51.8859C14.2743 52.4111 14.3563 52.3082 13.845 52.3167C13.4589 52.323 13.0729 52.3262 12.6879 52.3145C12.4886 52.3082 12.4328 52.374 12.4351 52.5554C12.4431 53.313 12.4374 54.0716 12.4374 54.8292Z" fill="#434343"/>
<path d="M83.0151 53.331C83.0151 54.5799 83.0082 55.8276 83.0208 57.0765C83.023 57.3057 82.949 57.363 82.7121 57.3577C82.1678 57.346 82.1666 57.3577 82.1666 56.8526C82.1666 54.4462 82.1723 52.0387 82.1598 49.6322C82.1587 49.3617 82.2384 49.2938 82.5185 49.3054C83.0139 49.3267 83.0151 49.3107 83.0151 49.767C83.0151 50.1362 83.0151 50.5065 83.0151 50.8758C83.0151 51.6938 83.0151 52.5119 83.0151 53.331Z" fill="#434343"/>
<path d="M137.427 53.3247C137.427 52.0875 137.431 50.8514 137.422 49.6142C137.42 49.3946 137.46 49.2959 137.731 49.3044C138.261 49.3214 138.263 49.3065 138.263 49.7914C138.263 52.1947 138.256 54.599 138.271 57.0022C138.273 57.3004 138.181 57.3725 137.878 57.3555C137.356 57.3269 137.43 57.4033 137.428 56.9439C137.424 55.7385 137.427 54.5321 137.427 53.3247Z" fill="#434343"/>
<path d="M18.1452 52.5798C18.6371 51.9358 19.3159 51.6684 20.1245 51.6101C20.3705 51.592 20.4582 51.6684 20.4194 51.8891C20.4115 51.9379 20.4115 51.9899 20.4194 52.0387C20.457 52.27 20.3876 52.3549 20.1028 52.3634C18.9036 52.3963 18.1839 53.1592 18.1679 54.3921C18.1566 55.2791 18.1577 56.1672 18.1714 57.0542C18.1748 57.2824 18.119 57.3662 17.857 57.3577C17.3275 57.3418 17.3263 57.3556 17.3263 56.8707C17.3263 55.2452 17.3354 53.6197 17.3172 51.9942C17.3138 51.6918 17.4152 51.6016 17.7124 51.6472C17.7648 51.6557 17.8195 51.6536 17.873 51.6472C18.0734 51.6249 18.1679 51.6822 18.1486 51.8912C18.1292 52.1204 18.1452 52.3507 18.1452 52.5798Z" fill="#434343"/>
<path d="M141.556 53.3332C141.556 52.1055 141.563 50.879 141.55 49.6514C141.548 49.4041 141.588 49.298 141.893 49.314C142.391 49.3405 142.393 49.3193 142.393 49.7978C142.393 52.1926 142.385 54.5873 142.402 56.9821C142.405 57.2993 142.301 57.3885 141.992 57.3428C141.94 57.3354 141.884 57.3354 141.832 57.3428C141.598 57.3778 141.55 57.276 141.553 57.0744C141.561 55.8277 141.556 54.5799 141.556 53.3332Z" fill="#434343"/>
<path d="M86.287 54.5003C86.287 53.6419 86.2962 52.7835 86.2814 51.9251C86.2779 51.6949 86.3577 51.6386 86.5934 51.6429C87.1526 51.6524 87.1526 51.6418 87.1526 52.1639C87.1526 53.801 87.1469 55.4382 87.1583 57.0754C87.1594 57.3035 87.0888 57.3619 86.8519 57.3576C86.2882 57.347 86.2882 57.3576 86.2882 56.8367C86.287 56.0579 86.287 55.2791 86.287 54.5003Z" fill="#434343"/>
<path d="M78.8686 54.5311C78.8686 55.3789 78.8595 56.2277 78.8743 57.0744C78.8777 57.3015 78.8083 57.363 78.5691 57.3577C78.0304 57.346 78.0304 57.3577 78.0304 56.8484C78.0304 55.2218 78.0373 53.5963 78.0236 51.9697C78.0213 51.7034 78.0965 51.6026 78.3789 51.6451C78.4518 51.6567 78.5293 51.6546 78.6033 51.6451C78.814 51.6196 78.8766 51.6981 78.8743 51.8955C78.8629 52.7751 78.8686 53.6536 78.8686 54.5311Z" fill="#434343"/>
<path d="M23.7449 54.4982C23.7449 55.3566 23.7358 56.2139 23.7506 57.0723C23.754 57.2972 23.6902 57.363 23.4477 57.3577C22.9067 57.346 22.9056 57.3577 22.9056 56.8526C22.9056 55.2271 22.9124 53.6006 22.8987 51.9751C22.8965 51.714 22.9625 51.6026 23.2506 51.6493C23.3133 51.6599 23.3805 51.6578 23.4431 51.6493C23.6777 51.6175 23.7551 51.6939 23.7506 51.9252C23.7358 52.7825 23.7449 53.6398 23.7449 54.4982Z" fill="#434343"/>
<path d="M23.3327 49.3129C23.6835 49.3161 23.9488 49.5633 23.9374 49.8784C23.9261 50.1967 23.6516 50.4355 23.3065 50.4249C22.9751 50.4153 22.7177 50.1734 22.7155 49.8721C22.7143 49.5601 22.9911 49.3097 23.3327 49.3129Z" fill="#434343"/>
<path d="M79.0621 49.8487C79.0655 50.1776 78.8195 50.4185 78.4733 50.4249C78.134 50.4312 77.8481 50.1798 77.8436 49.8721C77.839 49.5771 78.1362 49.3097 78.4688 49.3129C78.8104 49.314 79.0587 49.5389 79.0621 49.8487Z" fill="#434343"/>
<path d="M86.1206 49.8614C86.1229 49.5431 86.3905 49.3065 86.7413 49.3118C87.0659 49.3171 87.3437 49.5697 87.3437 49.8583C87.3437 50.1649 87.0624 50.4227 86.7265 50.4238C86.3803 50.4259 86.1183 50.1829 86.1206 49.8614Z" fill="#434343"/>
</svg>
