<svg width="400" height="299" viewBox="0 0 400 299" fill="none" xmlns="http://www.w3.org/2000/svg">
<path d="M400 261.92H0V262.12H400V261.92Z" fill="#EBEBEB"/>
<path d="M359.921 274.792H333.425V274.992H359.921V274.792Z" fill="#EBEBEB"/>
<path d="M264.976 276.968H258.024V277.168H264.976V276.968Z" fill="#EBEBEB"/>
<path d="M332.624 267.368H317.272V267.568H332.624V267.368Z" fill="#EBEBEB"/>
<path d="M76.5198 268.712H41.9678V268.912H76.5198V268.712Z" fill="#EBEBEB"/>
<path d="M88.7124 268.712H83.6484V268.912H88.7124V268.712Z" fill="#EBEBEB"/>
<path d="M180.12 272.088H105.176V272.288H180.12V272.088Z" fill="#EBEBEB"/>
<path d="M189.599 226.24H35.1274C33.9173 226.238 32.7574 225.756 31.9025 224.899C31.0476 224.043 30.5674 222.882 30.5674 221.672V4.528C30.5779 3.32482 31.0627 2.17438 31.9165 1.32657C32.7703 0.478767 33.9242 0.00206111 35.1274 0H189.599C190.811 0 191.973 0.48127 192.829 1.33794C193.686 2.1946 194.167 3.35649 194.167 4.568V221.672C194.167 222.883 193.686 224.045 192.829 224.902C191.973 225.759 190.811 226.24 189.599 226.24V226.24ZM35.1274 0.160001C33.9703 0.16212 32.8613 0.623252 32.0439 1.44218C31.2265 2.26111 30.7674 3.37092 30.7674 4.528V221.672C30.7674 222.829 31.2265 223.939 32.0439 224.758C32.8613 225.577 33.9703 226.038 35.1274 226.04H189.599C190.757 226.038 191.867 225.577 192.686 224.758C193.504 223.94 193.965 222.83 193.967 221.672V4.528C193.965 3.37018 193.504 2.26039 192.686 1.44169C191.867 0.622992 190.757 0.162115 189.599 0.160001H35.1274Z" fill="#EBEBEB"/>
<path d="M362.648 226.24H208.168C206.957 226.238 205.796 225.756 204.94 224.9C204.084 224.044 203.602 222.883 203.6 221.672V4.528C203.612 3.32409 204.099 2.17366 204.954 1.32607C205.809 0.478487 206.964 0.00203863 208.168 0H362.648C363.849 0.0041636 365.001 0.481799 365.853 1.32938C366.705 2.17697 367.189 3.3262 367.2 4.528V221.672C367.2 222.881 366.721 224.04 365.867 224.896C365.014 225.753 363.856 226.236 362.648 226.24V226.24ZM208.168 0.160001C207.01 0.162115 205.9 0.622992 205.081 1.44169C204.263 2.26039 203.802 3.37018 203.8 4.528V221.672C203.802 222.83 204.263 223.94 205.081 224.758C205.9 225.577 207.01 226.038 208.168 226.04H362.648C363.805 226.038 364.915 225.577 365.734 224.758C366.553 223.94 367.013 222.83 367.016 221.672V4.528C367.013 3.37018 366.553 2.26039 365.734 1.44169C364.915 0.622992 363.805 0.162115 362.648 0.160001H208.168Z" fill="#EBEBEB"/>
<path d="M337.672 57.9678H209.664V142.6H337.672V57.9678Z" fill="#E0E0E0"/>
<path d="M333.28 62.552H214.048V138.024H333.28V62.552Z" fill="#EBEBEB"/>
<path d="M244.448 67.6641H221.832V99.0401H244.448V67.6641Z" fill="#F5F5F5"/>
<path d="M273.664 70.6162H248.408V105.384H273.664V70.6162Z" fill="#F5F5F5"/>
<path d="M301.264 67.6641H280.352V97.7281H301.264V67.6641Z" fill="#F5F5F5"/>
<path d="M324.935 69.896H306.527V103.688H324.935V69.896Z" fill="#F5F5F5"/>
<path d="M324.936 110.2H284.704V134.88H324.936V110.2Z" fill="#F5F5F5"/>
<path d="M238.408 113.432H223.344V128.496H238.408V113.432Z" fill="#F5F5F5"/>
<path d="M259.216 116.768H243.968V132.016H259.216V116.768Z" fill="#F5F5F5"/>
<path d="M197.064 56.7278H96.3438V261.352H197.064V56.7278Z" fill="#E0E0E0"/>
<path d="M133.776 75.688H114.152V95.312H133.776V75.688Z" fill="#F0F0F0"/>
<path d="M156.512 75.688H136.888V95.312H156.512V75.688Z" fill="#F0F0F0"/>
<path d="M179.248 75.688H159.624V95.312H179.248V75.688Z" fill="#F0F0F0"/>
<path d="M133.776 98.512H114.152V118.136H133.776V98.512Z" fill="#F0F0F0"/>
<path d="M156.512 98.512H136.888V118.136H156.512V98.512Z" fill="#F0F0F0"/>
<path d="M179.248 98.512H159.624V118.136H179.248V98.512Z" fill="#F0F0F0"/>
<path d="M189.033 150.464C189.033 151.212 188.811 151.944 188.395 152.566C187.979 153.188 187.388 153.673 186.697 153.96C186.005 154.246 185.245 154.321 184.511 154.175C183.777 154.029 183.102 153.669 182.573 153.14C182.044 152.61 181.684 151.936 181.538 151.202C181.392 150.468 181.466 149.707 181.753 149.016C182.039 148.324 182.524 147.733 183.147 147.318C183.769 146.902 184.5 146.68 185.249 146.68C185.746 146.679 186.239 146.776 186.698 146.966C187.158 147.156 187.575 147.434 187.927 147.786C188.278 148.137 188.557 148.555 188.747 149.015C188.937 149.474 189.034 149.967 189.033 150.464V150.464Z" fill="#F0F0F0"/>
<path d="M92.1123 56.856H54.0723V74.784H92.1123V56.856Z" fill="#E0E0E0"/>
<path d="M92.1122 79.8159H61.3682V90.3839H92.1122V79.8159Z" fill="#E0E0E0"/>
<path d="M92.112 56.856H57.624V74.784H92.112V56.856Z" fill="#EBEBEB"/>
<path d="M92.1114 79.8159H64.2314V90.3839H92.1114V79.8159Z" fill="#EBEBEB"/>
<path d="M151.791 47.1705C157.971 44.6107 160.906 37.5255 158.346 31.3454C155.786 25.1654 148.701 22.2306 142.521 24.7905C136.341 27.3503 133.406 34.4355 135.966 40.6156C138.526 46.7956 145.611 49.7304 151.791 47.1705Z" fill="#F0F0F0"/>
<path d="M150.772 44.7092C155.592 42.7124 157.882 37.1856 155.885 32.3648C153.888 27.544 148.361 25.2548 143.54 27.2516C138.72 29.2484 136.43 34.7752 138.427 39.596C140.424 44.4168 145.951 46.7061 150.772 44.7092Z" fill="#FAFAFA"/>
<path d="M144.128 38.9122L143.624 38.2882L146.76 35.7842V29.6082H147.56V36.1682L144.128 38.9122Z" fill="#F0F0F0"/>
<path d="M272.064 236.088C272.064 235.816 272.992 208.712 277.4 204.424C281.688 200.256 286.608 204.272 286.816 204.424L287.256 203.896C287.208 203.848 281.656 199.32 276.92 203.896C272.312 208.376 271.416 234.904 271.376 236.032L272.064 236.088Z" fill="#E0E0E0"/>
<path d="M271.688 241.416C271.688 241.088 274.704 208.88 262.936 195.376L262.416 195.832C273.984 209.104 271.032 241.024 271 241.344L271.688 241.416Z" fill="#E0E0E0"/>
<path d="M272.12 238.008L272.808 237.96C272.808 237.592 270.512 201.336 279.136 193.4L278.672 192.896C269.8 201.056 272 236.504 272.12 238.008Z" fill="#E0E0E0"/>
<path d="M271 237.984H271.688C271.688 236.984 271.408 213.488 264.736 209.664C264.102 209.254 263.378 209.002 262.627 208.93C261.875 208.858 261.117 208.967 260.416 209.248C256.416 210.912 254.384 218.096 254.296 218.4L254.96 218.584C254.96 218.512 256.96 211.384 260.68 209.888C261.284 209.65 261.936 209.559 262.582 209.625C263.227 209.69 263.848 209.909 264.392 210.264C270.72 213.896 271 237.744 271 237.984Z" fill="#E0E0E0"/>
<path d="M273.6 238L274.288 237.96C274.288 237.776 273.28 219.4 278.24 212.928C279.44 211.328 280.744 210.608 282.128 210.704C285.376 210.936 288.096 215.688 288.128 215.736L288.728 215.4C288.608 215.184 285.792 210.272 282.176 210.016C280.576 209.904 279.048 210.744 277.696 212.504C272.576 219.2 273.552 237.24 273.6 238Z" fill="#E0E0E0"/>
<path d="M272.513 240.504C272.649 238.72 275.753 196.76 270.289 189.36L269.729 189.776C275.049 196.976 271.857 240.016 271.825 240.448L272.513 240.504Z" fill="#E0E0E0"/>
<path d="M258.928 213.496C258.928 213.496 262.208 214.712 261.232 217.56C260.256 220.408 249.888 225.112 249.888 225.112C249.888 225.112 245.544 221.112 249.536 214.656C253.528 208.2 258.84 211.456 258.928 213.496Z" fill="#EBEBEB"/>
<path d="M273.184 208.064C273.184 208.064 269.696 207.92 269.496 210.928C269.296 213.936 277.064 222.264 277.064 222.264C277.064 222.264 282.6 220.264 281.416 212.752C280.232 205.24 274.056 206.216 273.184 208.064Z" fill="#EBEBEB"/>
<path d="M276.144 193.656C276.144 193.656 273.816 193.408 274 191.992C274.184 190.576 283.056 186.92 288.288 192.792C288.288 192.792 284.936 198.544 280.096 198.616C275.256 198.688 276.144 193.656 276.144 193.656Z" fill="#EBEBEB"/>
<path d="M271.808 190.216C271.808 190.216 273.912 191.232 274.504 189.928C275.096 188.624 269.504 180.84 261.944 183.088C261.944 183.088 261.744 189.736 265.808 192.36C269.872 194.984 271.808 190.216 271.808 190.216Z" fill="#EBEBEB"/>
<path d="M282.832 212.352C282.832 212.352 281.232 211.056 282.96 210.424C284.688 209.792 293.2 209.968 293.288 218.424C293.288 218.424 283.376 220.072 282.152 216.824C280.928 213.576 282.832 212.352 282.832 212.352Z" fill="#EBEBEB"/>
<path d="M262.616 193.448C262.616 193.448 264.216 192.152 262.488 191.512C260.76 190.872 252.248 191.064 252.16 199.512C252.16 199.512 262.072 201.16 263.296 197.952C264.52 194.744 262.616 193.448 262.616 193.448Z" fill="#EBEBEB"/>
<path d="M267.856 200.24C267.856 200.24 268 198.64 266.728 199.28C265.456 199.92 261.016 204.68 265.616 209.224C265.616 209.224 271.808 204.64 270.688 202.248C269.568 199.856 267.856 200.24 267.856 200.24Z" fill="#EBEBEB"/>
<path d="M284.264 202.48C284.264 202.48 283.304 201.224 284.712 201.072C286.12 200.92 292.424 202.6 290.952 208.888C290.952 208.888 283.272 208.312 282.952 205.688C282.632 203.064 284.264 202.48 284.264 202.48Z" fill="#EBEBEB"/>
<path d="M258.313 261.352H284.673L287.513 232.496H255.473L258.313 261.352Z" fill="#F0F0F0"/>
<path d="M254.064 235.68H288.92V229.312H254.064V235.68Z" fill="#E6E6E6"/>
<path d="M200.001 298.048C285.667 298.048 355.113 293.994 355.113 288.992C355.113 283.991 285.667 279.936 200.001 279.936C114.335 279.936 44.8887 283.991 44.8887 288.992C44.8887 293.994 114.335 298.048 200.001 298.048Z" fill="#F5F5F5"/>
<path d="M199.455 35.0159H176.479C174.602 35.0159 172.801 35.7619 171.473 37.0896C170.145 38.4174 169.399 40.2182 169.399 42.0959V62.0959C169.399 63.9737 170.145 65.7745 171.473 67.1023C172.801 68.43 174.602 69.1759 176.479 69.1759H185.599L189.599 75.4879L190.399 69.1759H199.495C200.425 69.1759 201.345 68.9928 202.204 68.6369C203.062 68.281 203.842 67.7593 204.499 67.1018C205.156 66.4442 205.676 65.6637 206.031 64.8047C206.386 63.9458 206.568 63.0253 206.567 62.0959V42.0959C206.567 41.1635 206.383 40.2402 206.025 39.3791C205.668 38.5181 205.143 37.7361 204.482 37.0783C203.822 36.4204 203.037 35.8996 202.175 35.5457C201.312 35.1917 200.388 35.0117 199.455 35.0159V35.0159Z" fill="#5956E9"/>
<path opacity="0.7" d="M199.455 35.0159H176.479C174.602 35.0159 172.801 35.7619 171.473 37.0896C170.145 38.4174 169.399 40.2182 169.399 42.0959V62.0959C169.399 63.9737 170.145 65.7745 171.473 67.1023C172.801 68.43 174.602 69.1759 176.479 69.1759H185.599L189.599 75.4879L190.399 69.1759H199.495C200.425 69.1759 201.345 68.9928 202.204 68.6369C203.062 68.281 203.842 67.7593 204.499 67.1018C205.156 66.4442 205.676 65.6637 206.031 64.8047C206.386 63.9458 206.568 63.0253 206.567 62.0959V42.0959C206.567 41.1635 206.383 40.2402 206.025 39.3791C205.668 38.5181 205.143 37.7361 204.482 37.0783C203.822 36.4204 203.037 35.8996 202.175 35.5457C201.312 35.1917 200.388 35.0117 199.455 35.0159V35.0159Z" fill="white"/>
<path d="M196.035 60.0733C200.49 55.6182 200.49 48.395 196.035 43.9399C191.58 39.4848 184.357 39.4848 179.902 43.9399C175.447 48.395 175.447 55.6182 179.902 60.0733C184.357 64.5284 191.58 64.5284 196.035 60.0733Z" fill="#5956E9"/>
<path d="M186.767 57.104C186.615 57.1055 186.464 57.0732 186.326 57.0096C186.188 56.946 186.065 56.8526 185.967 56.736L181.487 51.464C181.307 51.2518 181.218 50.9767 181.241 50.6992C181.263 50.4216 181.395 50.1644 181.607 49.984C181.819 49.8037 182.095 49.715 182.372 49.7375C182.65 49.76 182.907 49.8918 183.087 50.104L186.759 54.44L192.831 47.288C193.014 47.0868 193.267 46.9642 193.538 46.9462C193.809 46.9281 194.077 47.016 194.284 47.1914C194.492 47.3667 194.623 47.6157 194.65 47.886C194.678 48.1562 194.599 48.4266 194.431 48.64L187.559 56.736C187.461 56.8507 187.34 56.9429 187.203 57.0064C187.067 57.0699 186.918 57.1032 186.767 57.104V57.104Z" fill="white"/>
<path d="M329.543 143.872L328.015 143.8C328.015 143.8 325.407 162.672 323.679 164.152C321.951 165.632 296.599 160.728 295.119 159.656C295.068 159.612 295.032 159.553 295.015 159.488C293.903 156.712 298.303 125.4 299.919 123.944C301.535 122.488 306.471 123.944 306.471 123.944C306.471 123.944 317.151 126.448 323.271 128.112C324.664 128.442 326.03 128.875 327.359 129.408C328.959 130.352 329.543 143.872 329.543 143.872Z" fill="#263238"/>
<path opacity="0.2" d="M323.863 142.448C323.863 142.448 321.247 161.32 319.527 162.8C318.183 163.952 302.615 161.256 295.015 159.488C293.903 156.712 298.303 125.4 299.919 123.944C301.535 122.488 306.471 123.944 306.471 123.944C306.471 123.944 317.151 126.448 323.271 128.112C324.799 129.384 323.863 142.448 323.863 142.448Z" fill="white"/>
<path d="M279.399 92.9761L278.095 87.6641L284.031 88.8961C284.031 88.8961 284.911 93.6961 282.431 94.0561L279.399 92.9761Z" fill="#EEC1BB"/>
<path d="M279.727 82.5042L284.471 85.2961L284.031 88.8961L278.095 87.6641L279.727 82.5042Z" fill="#EEC1BB"/>
<path d="M300.295 124.488C299.367 124.939 298.413 125.334 297.439 125.672C296.735 125.408 296.047 125.136 295.367 124.872C295.023 124.728 294.671 124.592 294.335 124.44C293.087 123.928 291.863 123.376 290.647 122.792L289.199 122.088C288.799 121.88 288.399 121.68 287.991 121.464C287.079 120.968 286.167 120.48 285.263 119.944C284.639 119.584 284.015 119.2 283.399 118.8C282.783 118.4 282.135 117.944 281.495 117.464L281.119 117.184C280.299 116.573 279.534 115.893 278.831 115.152C278.405 114.719 278.017 114.251 277.671 113.752C277.459 113.456 277.266 113.146 277.095 112.824C277.047 112.728 276.991 112.624 276.943 112.512C276.823 112.24 276.711 111.96 276.639 111.712C276.291 110.604 276.111 109.45 276.103 108.288C276.084 106.716 276.196 105.145 276.439 103.592C276.439 103.32 276.519 103.04 276.559 102.792C276.891 100.853 277.327 98.933 277.863 97.0401C278.263 95.6214 278.719 94.208 279.231 92.8L283.167 93.6641C283.103 94.9601 283.023 96.2561 282.975 97.5521C282.887 99.5041 282.823 101.44 282.823 103.328V104.128C282.823 105.24 282.895 106.328 283.015 107.328C283.015 107.464 283.055 107.608 283.071 107.744C283.139 108.239 283.27 108.723 283.463 109.184C283.503 109.264 283.463 109.184 283.511 109.232C283.559 109.28 283.511 109.272 283.623 109.344C283.735 109.416 283.895 109.624 284.103 109.8C285.164 110.662 286.302 111.425 287.503 112.08H287.575C288.863 112.8 290.223 113.512 291.631 114.176L291.927 114.312C293.895 115.256 295.927 116.176 297.999 117.04C298.799 117.376 299.599 117.712 300.343 118.024C300.343 118.024 302.943 118.736 303.863 120.528C304.607 122.032 302.335 123.504 300.295 124.488Z" fill="#5956E9"/>
<path opacity="0.2" d="M300.294 124.488C299.367 124.939 298.413 125.334 297.438 125.672C296.734 125.408 296.046 125.136 295.366 124.872C295.022 124.728 294.67 124.592 294.334 124.44C293.086 123.928 291.862 123.376 290.646 122.792C295.03 120.72 298.462 122.816 300.294 124.488Z" fill="black"/>
<path d="M271.807 279.304L266.759 277.472L269.535 265.304L274.591 267.136L271.807 279.304Z" fill="#EEC1BB"/>
<path d="M311.647 286.016H306.287L304.759 273.6H310.119L311.647 286.016Z" fill="#EEC1BB"/>
<path d="M305.599 285.392H312.135C312.242 285.393 312.344 285.43 312.427 285.497C312.51 285.563 312.568 285.656 312.591 285.76L313.703 290.56C313.726 290.677 313.722 290.797 313.692 290.913C313.662 291.028 313.607 291.135 313.53 291.227C313.454 291.318 313.357 291.391 313.249 291.44C313.141 291.49 313.022 291.514 312.903 291.512C310.799 291.472 309.263 291.352 306.615 291.352C305.015 291.352 300.071 291.52 297.815 291.52C295.559 291.52 295.255 289.296 296.215 289.12C300.335 288.216 303.415 286.968 304.743 285.776C304.973 285.549 305.277 285.413 305.599 285.392V285.392Z" fill="#263238"/>
<path d="M266.575 276.448L272.311 277.672C272.415 277.697 272.508 277.754 272.576 277.837C272.644 277.919 272.683 278.021 272.687 278.128L272.767 283.008C272.769 283.126 272.745 283.244 272.696 283.352C272.647 283.459 272.575 283.555 272.484 283.631C272.394 283.708 272.288 283.764 272.173 283.794C272.059 283.825 271.939 283.829 271.823 283.808C269.759 283.328 266.791 282.56 264.191 282.008C261.151 281.352 259.263 280.736 255.695 279.976C253.535 279.512 253.383 277.208 254.327 277.2C258.623 277.2 261.223 278 265.223 276.608C265.649 276.425 266.118 276.37 266.575 276.448V276.448Z" fill="#263238"/>
<path opacity="0.2" d="M269.536 265.304L268.104 271.576L273.16 273.416L274.592 267.144L269.536 265.304Z" fill="black"/>
<path opacity="0.2" d="M310.127 273.6H304.759L305.551 280H310.911L310.127 273.6Z" fill="black"/>
<path d="M266.623 269.728L275.199 272.8C275.199 272.8 281.879 243.384 285.431 227.072C286.993 220.627 288.918 214.275 291.199 208.048C294.447 198.896 298.319 189.04 301.447 181.336C304.751 173.224 307.207 167.496 307.207 167.496L288.711 163.752C288.711 163.752 274.607 204.352 271.431 220.4C268.167 237.088 266.623 269.728 266.623 269.728Z" fill="#263238"/>
<g opacity="0.3">
<path d="M266.623 269.728L275.199 272.8C275.199 272.8 281.879 243.384 285.431 227.072C286.993 220.627 288.918 214.275 291.199 208.048C294.447 198.896 298.319 189.04 301.447 181.336C304.751 173.224 307.207 167.496 307.207 167.496L288.711 163.752C288.711 163.752 274.607 204.352 271.431 220.4C268.167 237.088 266.623 269.728 266.623 269.728Z" fill="white"/>
</g>
<path opacity="0.2" d="M291.199 208.048C294.447 198.896 298.319 189.04 301.447 181.336L300.015 176.912C294.759 181.808 291.455 198.68 291.199 208.048Z" fill="black"/>
<path d="M298.719 165.776C298.719 165.776 295.423 212.064 295.223 227.8C294.999 245.024 303.055 278.76 303.055 278.76H312.879C312.879 278.76 308.951 248.32 310.263 231.256C311.719 212.168 316.871 169.448 316.871 169.448L298.719 165.776Z" fill="#263238"/>
<g opacity="0.3">
<path d="M298.719 165.776C298.719 165.776 295.423 212.064 295.223 227.8C294.999 245.024 303.055 278.76 303.055 278.76H312.879C312.879 278.76 308.951 248.32 310.263 231.256C311.719 212.168 316.871 169.448 316.871 169.448L298.719 165.776Z" fill="white"/>
</g>
<path d="M301.887 278.976H313.447L313.415 275.52L301.343 274.824L301.887 278.976Z" fill="#263238"/>
<path d="M265.479 269.616L275.719 273.168L276.839 269.864L265.639 265.784L265.479 269.616Z" fill="#263238"/>
<path d="M303.815 286.328C303.45 286.358 303.085 286.262 302.783 286.056C302.688 285.974 302.614 285.87 302.566 285.753C302.519 285.636 302.5 285.51 302.511 285.384C302.509 285.31 302.528 285.237 302.566 285.173C302.605 285.109 302.66 285.058 302.727 285.024C303.311 284.72 305.055 285.824 305.255 285.904C305.275 285.919 305.291 285.938 305.3 285.961C305.31 285.983 305.314 286.008 305.311 286.032C305.308 286.058 305.297 286.081 305.28 286.1C305.262 286.119 305.24 286.131 305.215 286.136C304.757 286.252 304.287 286.316 303.815 286.328ZM303.015 285.224C302.962 285.211 302.907 285.211 302.855 285.224C302.815 285.224 302.775 285.272 302.775 285.368C302.764 285.454 302.774 285.541 302.805 285.622C302.836 285.703 302.886 285.775 302.951 285.832C303.55 286.107 304.231 286.141 304.855 285.928C304.291 285.575 303.663 285.336 303.007 285.224H303.015Z" fill="#5956E9"/>
<path d="M305.191 286.144H305.127C304.567 285.84 303.487 284.664 303.591 284.072C303.609 283.979 303.659 283.895 303.732 283.834C303.804 283.772 303.896 283.738 303.991 283.736C304.088 283.724 304.186 283.732 304.28 283.76C304.373 283.787 304.46 283.834 304.535 283.896C305.159 284.408 305.335 285.952 305.335 286.024C305.338 286.046 305.334 286.069 305.324 286.089C305.314 286.109 305.298 286.125 305.279 286.136C305.266 286.145 305.252 286.151 305.236 286.152C305.221 286.153 305.205 286.151 305.191 286.144ZM304.087 284H303.999C303.839 284 303.823 284.096 303.815 284.128C303.751 284.488 304.447 285.376 304.999 285.792C304.956 285.18 304.73 284.595 304.351 284.112C304.278 284.047 304.185 284.008 304.087 284Z" fill="#5956E9"/>
<path d="M265.903 277.056C265.023 277.056 263.503 276.928 263.007 276.296C262.936 276.204 262.888 276.097 262.868 275.982C262.849 275.868 262.858 275.75 262.895 275.64C262.911 275.573 262.945 275.512 262.993 275.463C263.04 275.414 263.101 275.378 263.167 275.36C263.879 275.136 265.775 276.656 265.983 276.832C266.005 276.848 266.021 276.871 266.028 276.897C266.035 276.923 266.033 276.951 266.023 276.976C266.015 277.001 265.999 277.023 265.977 277.038C265.955 277.053 265.929 277.059 265.903 277.056V277.056ZM263.279 275.592H263.199C263.172 275.598 263.148 275.612 263.13 275.632C263.111 275.652 263.099 275.677 263.095 275.704C263.069 275.776 263.061 275.853 263.072 275.928C263.083 276.004 263.113 276.075 263.159 276.136C263.423 276.496 264.279 276.728 265.479 276.784C264.799 276.216 263.703 275.536 263.279 275.592Z" fill="#5956E9"/>
<path d="M265.903 277.056C265.889 277.064 265.874 277.068 265.859 277.068C265.843 277.068 265.828 277.064 265.815 277.056C265.239 276.64 264.215 275.232 264.431 274.656C264.487 274.52 264.623 274.368 264.967 274.408C265.093 274.422 265.216 274.461 265.327 274.522C265.439 274.584 265.536 274.668 265.615 274.768C265.973 275.439 266.113 276.206 266.015 276.96C266.015 276.983 266.008 277.005 265.995 277.023C265.982 277.042 265.964 277.056 265.943 277.064L265.903 277.056ZM264.807 274.656C264.778 274.657 264.751 274.666 264.727 274.682C264.703 274.697 264.684 274.719 264.671 274.744C264.543 275.088 265.215 276.168 265.783 276.688C265.845 276.077 265.716 275.463 265.415 274.928C265.36 274.853 265.289 274.79 265.208 274.745C265.126 274.699 265.036 274.672 264.943 274.664L264.807 274.656Z" fill="#5956E9"/>
<path d="M327.311 124.04C326.49 126.03 325.735 128.032 325.047 130.048C324.863 130.584 324.687 131.112 324.511 131.648C323.967 133.32 323.463 134.992 322.999 136.648C322.839 137.232 322.679 137.816 322.527 138.392C322.279 139.304 322.047 140.208 321.823 141.104C321.703 141.608 321.583 142.104 321.471 142.592C321.191 143.776 320.935 144.936 320.671 146.08C320.407 147.224 320.223 148.256 320.023 149.28C319.823 150.304 319.591 151.512 319.407 152.584C319.223 153.656 319.047 154.688 318.887 155.696C318.727 156.704 318.543 157.888 318.399 158.896C318.215 160.184 318.047 161.392 317.903 162.496C317.439 165.816 317.103 168.256 316.855 169.416L288.735 163.72C288.735 161.512 288.735 159.392 288.831 157.32C288.887 155.952 288.951 154.616 289.047 153.32C289.095 152.464 289.159 151.624 289.231 150.8C289.343 149.544 289.463 148.328 289.599 147.144C289.751 145.816 289.919 144.536 290.111 143.304C290.447 141.024 290.839 138.912 291.255 136.952C291.767 134.552 292.311 132.432 292.855 130.512C293.551 128.112 294.263 126.048 294.919 124.36C295.696 122.249 296.654 120.209 297.783 118.264C300.078 118.138 302.379 118.154 304.671 118.312C305.151 118.312 305.647 118.4 306.143 118.448C310.186 119.017 314.193 119.819 318.143 120.848C318.887 121.04 319.647 121.256 320.383 121.472C324.087 122.672 327.311 124.04 327.311 124.04Z" fill="#5956E9"/>
<path d="M319.535 107.2C318.039 110.896 315.927 117.792 318.127 120.904C316.7 121.904 315.074 122.582 313.36 122.895C311.647 123.207 309.886 123.144 308.199 122.712C304.903 121.968 305.183 119.616 306.167 118.488C310.655 118.328 311.159 115.12 310.967 111.984L319.535 107.2Z" fill="#EEC1BB"/>
<path opacity="0.2" d="M316.047 109.184L310.991 112C311.038 112.734 311.025 113.469 310.951 114.2C312.631 114.296 315.231 112.952 315.751 111.272C315.977 110.6 316.078 109.893 316.047 109.184V109.184Z" fill="black"/>
<path d="M309.775 93.8482C308.311 95.4482 306.847 99.4482 310.039 99.4082C313.231 99.3682 312.287 91.1042 309.775 93.8482Z" fill="#263238"/>
<path d="M322.07 102.656C320.118 107.6 319.222 110.592 315.838 112.328C310.742 114.936 305.278 110.528 305.718 105.128C306.11 100.224 309.246 92.9682 314.83 92.6242C316.062 92.5511 317.292 92.7902 318.407 93.3193C319.522 93.8484 320.485 94.6504 321.207 95.6509C321.929 96.6515 322.387 97.8181 322.538 99.0428C322.688 100.267 322.528 101.51 322.07 102.656V102.656Z" fill="#EEC1BB"/>
<path d="M322.839 93.144H319.199L320.943 96.432C321.535 96.52 320.359 98.528 320.871 98.536C320.871 98.536 318.471 102.904 319.967 105.856C325.343 105.424 329.143 101.2 326.703 98.1521C328.263 95.4801 325.535 93.496 322.839 93.144Z" fill="#263238"/>
<path d="M322.647 107.496C322.262 108.032 321.773 108.486 321.21 108.831C320.646 109.176 320.02 109.405 319.367 109.504C317.623 109.76 316.967 108.136 317.615 106.592C318.215 105.2 319.839 103.392 321.511 103.848C321.875 103.953 322.207 104.147 322.478 104.412C322.748 104.677 322.949 105.005 323.061 105.366C323.174 105.728 323.195 106.112 323.123 106.484C323.05 106.855 322.887 107.203 322.647 107.496V107.496Z" fill="#EEC1BB"/>
<path d="M310.742 100.632C309.842 101.678 308.8 102.594 307.646 103.352C307.867 103.636 308.145 103.871 308.462 104.04C308.779 104.21 309.128 104.31 309.486 104.336L310.742 100.632Z" fill="#D4827D"/>
<path d="M315.895 100.48C315.849 100.471 315.806 100.45 315.771 100.419C315.736 100.388 315.71 100.349 315.695 100.304C315.6 99.9993 315.434 99.721 315.212 99.4917C314.99 99.2625 314.717 99.0886 314.415 98.9841C314.382 98.9757 314.352 98.961 314.325 98.9407C314.298 98.9205 314.275 98.8952 314.258 98.8662C314.241 98.8372 314.23 98.8052 314.225 98.7719C314.22 98.7386 314.222 98.7047 314.231 98.6721C314.239 98.6395 314.254 98.6089 314.274 98.5821C314.294 98.5552 314.32 98.5326 314.349 98.5155C314.378 98.4984 314.41 98.4872 314.443 98.4825C314.476 98.4778 314.51 98.4797 314.543 98.4881C314.921 98.6194 315.262 98.8377 315.54 99.1254C315.818 99.413 316.025 99.762 316.143 100.144C316.166 100.208 316.163 100.278 316.135 100.34C316.106 100.401 316.054 100.449 315.991 100.472C315.959 100.479 315.927 100.482 315.895 100.48V100.48Z" fill="#263238"/>
<path d="M307.863 97.6642C307.813 97.6566 307.768 97.631 307.735 97.5922C307.688 97.5443 307.661 97.4796 307.661 97.4122C307.661 97.3448 307.688 97.2802 307.735 97.2322C308.006 96.9346 308.344 96.7064 308.721 96.5672C309.099 96.4279 309.504 96.3816 309.903 96.4322C309.971 96.4458 310.03 96.4852 310.069 96.542C310.108 96.5988 310.123 96.6685 310.111 96.7362C310.098 96.8016 310.059 96.8591 310.004 96.8964C309.948 96.9338 309.881 96.9481 309.815 96.9362C309.499 96.8921 309.176 96.9266 308.876 97.0369C308.576 97.1471 308.308 97.3296 308.095 97.5683C308.069 97.6041 308.034 97.6321 307.993 97.649C307.952 97.6659 307.907 97.6712 307.863 97.6642V97.6642Z" fill="#263238"/>
<path d="M308.903 105.312C309.278 106.158 309.591 107.029 309.839 107.92L310.319 107.864C312.511 107.592 313.439 106.744 313.807 105.888C313.978 105.465 314.044 105.006 313.999 104.552C313.982 104.295 313.928 104.042 313.839 103.8C312.767 104.6 310.743 105.04 309.647 105.216C309.191 105.288 308.903 105.312 308.903 105.312Z" fill="#263238"/>
<path d="M309.646 105.216L309.942 105.976C312.006 105.72 313.422 105.256 313.998 104.552C313.981 104.295 313.928 104.042 313.838 103.8C312.798 104.632 310.742 105.04 309.646 105.216Z" fill="white"/>
<path d="M310.318 107.864C312.51 107.592 313.438 106.744 313.806 105.888C312.965 106.009 312.152 106.28 311.406 106.688C310.932 106.959 310.552 107.37 310.318 107.864Z" fill="#DE5753"/>
<path d="M325.718 94.2241C325.718 94.2241 322.583 89.3761 315.207 89.0721C307.831 88.7681 307.606 93.6801 310.102 95.3681L310.318 94.6481C310.916 95.3706 311.668 95.9501 312.518 96.3441V95.3681C313.56 96.3299 314.759 97.1065 316.062 97.6641V96.4321C316.062 96.4321 317.982 98.0321 321.974 98.4801C325.966 98.9281 327.542 97.3041 325.718 94.2241Z" fill="#263238"/>
<path d="M314.007 101.776C313.967 101.777 313.928 101.765 313.895 101.742C313.862 101.719 313.837 101.686 313.823 101.648C313.796 101.535 313.743 101.428 313.67 101.337C313.597 101.246 313.504 101.172 313.399 101.12C313.266 101.065 313.117 101.065 312.983 101.12C312.937 101.144 312.884 101.151 312.833 101.137C312.783 101.124 312.739 101.092 312.711 101.048C312.694 101.003 312.693 100.953 312.709 100.908C312.725 100.862 312.757 100.824 312.799 100.8C312.911 100.735 313.035 100.695 313.163 100.682C313.292 100.67 313.422 100.685 313.543 100.728C313.709 100.801 313.856 100.911 313.973 101.049C314.09 101.188 314.173 101.352 314.215 101.528C314.231 101.578 314.228 101.632 314.205 101.68C314.183 101.727 314.144 101.764 314.095 101.784L314.007 101.776Z" fill="#263238"/>
<path d="M309.463 100.584C309.423 100.584 309.384 100.571 309.351 100.549C309.319 100.526 309.293 100.494 309.279 100.456C309.251 100.343 309.199 100.237 309.126 100.145C309.052 100.054 308.96 99.98 308.855 99.9284C308.719 99.8888 308.573 99.9032 308.447 99.9684C308.4 99.995 308.345 100.002 308.293 99.989C308.24 99.9755 308.195 99.9423 308.167 99.8964C308.145 99.8499 308.139 99.7969 308.153 99.747C308.166 99.6971 308.197 99.6536 308.239 99.6244C308.351 99.561 308.475 99.5218 308.603 99.5094C308.732 99.497 308.861 99.5116 308.983 99.5524C309.149 99.6249 309.296 99.7349 309.413 99.8737C309.529 100.012 309.612 100.176 309.655 100.352C309.671 100.402 309.668 100.456 309.645 100.504C309.623 100.551 309.584 100.589 309.535 100.608L309.463 100.584Z" fill="#263238"/>
<path d="M322.599 121.928C322.599 121.928 317.319 138.16 321.271 153.128L320.255 154.072C320.255 154.072 313.703 138.152 319.215 121.232L322.599 121.928Z" fill="#263238"/>
<path d="M303.999 118.248C303.999 118.248 291.759 133.888 289.471 148.432L289.695 145.056C289.695 145.056 289.615 132.08 300.335 118.08L303.999 118.248Z" fill="#263238"/>
<path d="M320.904 151.608L322.976 155.184L321.6 159.848C320.614 157.429 319.939 154.894 319.592 152.304L320.904 151.608Z" fill="#263238"/>
<path d="M329.103 165.656L315.799 160.056L314.943 171.256C314.943 171.256 329.935 171.536 330.143 171.624C330.351 171.712 329.103 165.656 329.103 165.656Z" fill="#263238"/>
<path opacity="0.4" d="M329.103 165.656L315.799 160.056L314.943 171.256C314.943 171.256 329.935 171.536 330.143 171.624C330.351 171.712 329.103 165.656 329.103 165.656Z" fill="white"/>
<path d="M315.783 170.6L316.663 160.992L318.919 157.384L327.815 165.112L326.271 170.416L315.783 170.6Z" fill="#263238"/>
<path opacity="0.7" d="M315.783 170.6L316.663 160.992L318.919 157.384L327.815 165.112L326.271 170.416L315.783 170.6Z" fill="white"/>
<path d="M318.111 156.336L317.951 168.688L314.943 171.304L332.615 178.68L335.671 175.52L335.799 164.376L318.111 156.336Z" fill="#263238"/>
<path opacity="0.5" d="M318.111 156.336L317.951 168.688L314.943 171.304L332.615 178.68L335.671 175.52L335.799 164.376L318.111 156.336Z" fill="white"/>
<path d="M329.223 168.584L328.743 174.024L323.527 170.936C323.527 170.936 324.255 166.136 326.727 166.584L329.223 168.584Z" fill="#EEC1BB"/>
<path d="M325.527 178.384L321.943 174.2L323.527 170.936L328.743 174.024L325.527 178.384Z" fill="#EEC1BB"/>
<path opacity="0.2" d="M324.511 131.648C323.967 133.32 323.463 134.992 322.999 136.648C322.839 137.232 322.679 137.816 322.527 138.392C321.407 136.072 321.943 132.16 321.943 132.16L324.511 131.648Z" fill="black"/>
<path d="M330.638 126.472C332.239 128.081 333.7 129.823 335.006 131.68C336.97 134.424 338.719 137.315 340.238 140.328C341.284 142.35 342.152 144.459 342.83 146.632C343.09 147.455 343.246 148.307 343.294 149.168C343.35 150.976 341.694 154.056 339.494 157.272C338.254 159.104 336.846 160.984 335.494 162.704C332.526 166.472 329.894 169.464 329.894 169.464L325.894 166.664C325.894 166.664 327.87 163.064 329.894 159.176C330.974 157.12 332.062 154.976 332.862 153.248C333.426 152.2 333.856 151.084 334.142 149.928C334.153 149.574 334.126 149.22 334.062 148.872C333.758 147.184 328.806 136.672 322.006 132.16L324.406 123.36C326.078 122.888 328.318 124.192 330.638 126.472Z" fill="#5956E9"/>
<path d="M249.416 146.776C252.672 148.904 246.296 157.976 238.912 156.704C231.528 155.432 232.408 149.544 233.744 147.368C235.08 145.192 241.88 141.848 249.416 146.776Z" fill="#5956E9"/>
<path opacity="0.3" d="M249.416 146.776C252.672 148.904 246.296 157.976 238.912 156.704C231.528 155.432 232.408 149.544 233.744 147.368C235.08 145.192 241.88 141.848 249.416 146.776Z" fill="black"/>
<path d="M239.657 144.648C239.657 144.648 248.409 151.096 249.361 156.704C250.313 162.312 239.393 166.712 231.481 165.776C223.569 164.84 216.601 150.872 216.601 150.872C216.601 150.872 232.001 151.2 239.657 144.648Z" fill="#5956E9"/>
<path opacity="0.2" d="M239.657 144.648C239.657 144.648 248.409 151.096 249.361 156.704C250.313 162.312 239.393 166.712 231.481 165.776C223.569 164.84 216.601 150.872 216.601 150.872C216.601 150.872 232.001 151.2 239.657 144.648Z" fill="black"/>
<path d="M238.4 148.376C238.4 148.376 237.888 140.584 249.432 146.776C249.432 146.776 244.136 143.176 239.16 143.848C234.184 144.52 229 149.824 223.528 149.304C218.056 148.784 220.92 155.272 220.92 155.272C220.92 155.272 233.112 154.336 238.4 148.376Z" fill="#5956E9"/>
<path d="M214.983 111.376C217.568 105.628 219.749 99.7072 221.511 93.6563C222.031 91.4963 221.735 89.2163 221.511 86.9043C221.167 84.0003 220.639 80.9523 220.095 77.9843L223.823 76.6323C226.195 81.0063 227.817 85.7465 228.623 90.6563C228.893 92.556 228.814 94.4889 228.391 96.3603C227.134 102.751 225.067 108.956 222.239 114.824L215.039 111.376H214.983Z" fill="#FFB573"/>
<path d="M212 111.856C215.56 109.368 218.576 102.752 218.576 102.752L225.896 107.24C225.896 107.24 222.512 114.864 221.776 119.808C221.36 122.808 212 111.856 212 111.856Z" fill="#263238"/>
<path opacity="0.2" d="M218.159 118.288C220.023 119.968 221.631 121.008 221.815 119.8C221.958 118.869 222.156 117.948 222.407 117.04C221.332 115.863 220.053 114.891 218.631 114.168C218.26 115.509 218.101 116.899 218.159 118.288V118.288Z" fill="black"/>
<path d="M208.48 263.128L213.744 263.424L216.568 251.36L211.312 251.064L208.48 263.128Z" fill="#FFB573"/>
<path d="M213.808 262.224L209.456 258.224C209.379 258.158 209.282 258.122 209.18 258.122C209.079 258.122 208.981 258.158 208.904 258.224L205.232 261.216C205.144 261.295 205.073 261.391 205.024 261.5C204.975 261.608 204.95 261.725 204.95 261.844C204.95 261.963 204.975 262.08 205.024 262.188C205.073 262.296 205.144 262.393 205.232 262.472C206.768 263.848 207.584 264.432 209.496 266.2C210.68 267.28 213.944 270.52 215.576 272.024C217.208 273.528 218.776 272.024 218.224 271.224C215.824 267.768 214.48 264.896 214.224 263.096C214.195 262.765 214.047 262.455 213.808 262.224V262.224Z" fill="#263238"/>
<g opacity="0.2">
<path d="M216.568 251.36L215.112 257.584L209.848 257.288L211.304 251.072L216.568 251.36Z" fill="black"/>
</g>
<path d="M216.799 112.36C216.799 112.36 224.183 121.568 224.551 144.312C216.311 146.376 207.751 146.904 203.751 147.912C201.983 139.376 200.743 134.144 192.359 117.816C195.087 116.493 197.908 115.373 200.799 114.464C203.88 113.441 207.029 112.639 210.223 112.064C212.408 111.647 214.661 111.748 216.799 112.36Z" fill="#FFB573"/>
<path d="M199.096 103.624C200.448 106.504 202.44 111.912 200.824 114.464C200.824 114.464 202.424 117.336 208.024 115.92C214.224 114.368 210.216 112.104 210.216 112.104C206.632 112.144 206.088 109.616 206.088 107.112L199.096 103.624Z" fill="#FFB573"/>
<path d="M200.8 114.472C203.879 113.445 207.029 112.643 210.224 112.072L210.856 111.984C211.968 113.216 212.704 115.36 211.712 119.032C211.712 119.032 202.608 117.776 199.576 114.832C200 114.728 200.416 114.592 200.8 114.472Z" fill="#FFB573"/>
<path opacity="0.2" d="M201.96 105.048L206.12 107.104C206.105 107.691 206.148 108.278 206.248 108.856C204.904 108.992 202.776 108.056 202.296 106.696C202.087 106.171 201.973 105.613 201.96 105.048V105.048Z" fill="black"/>
<path d="M224.593 144.864C224.593 144.864 228.185 185.504 227.617 201.568C227.025 218.272 216.105 256.248 216.105 256.248L208.977 256.144C208.977 256.144 214.889 219.08 214.489 202.664C214.049 184.76 208.889 144.648 208.889 144.648L224.593 144.864Z" fill="#5956E9"/>
<path opacity="0.2" d="M224.593 144.864C224.593 144.864 228.185 185.504 227.617 201.568C227.025 218.272 216.105 256.248 216.105 256.248L208.977 256.144C208.977 256.144 214.889 219.08 214.489 202.664C214.049 184.76 208.889 144.648 208.889 144.648L224.593 144.864Z" fill="white"/>
<path d="M208.352 256.392L216.712 256.512L217.368 253.848L208.008 253.4L208.352 256.392Z" fill="#5956E9"/>
<path opacity="0.2" d="M215.2 154.832C220.304 165.48 215.84 184.704 213.88 191.856C213.08 181.064 211.656 167.856 210.536 158.176C211.432 152.72 212.864 149.92 215.2 154.832Z" fill="black"/>
<path d="M163.28 215.512L164.992 220.496L177.16 218.368L175.456 213.384L163.28 215.512Z" fill="#FFB573"/>
<path d="M166.4 220.672L166.064 214.76C166.058 214.654 166.017 214.552 165.947 214.472C165.878 214.391 165.784 214.335 165.68 214.312L160.928 213.296C160.814 213.269 160.694 213.271 160.581 213.3C160.467 213.329 160.362 213.386 160.275 213.464C160.188 213.543 160.121 213.641 160.08 213.751C160.039 213.861 160.025 213.98 160.04 214.096C160.184 216.16 160.368 217.16 160.512 219.76C160.6 221.36 160.688 225.944 160.816 228.152C160.944 230.36 163.144 230.632 163.296 229.752C163.952 225.696 165.024 222.88 166.12 221.576C166.225 221.452 166.303 221.308 166.351 221.153C166.4 220.997 166.416 220.834 166.4 220.672Z" fill="#263238"/>
<g opacity="0.2">
<path d="M177.161 218.368L170.889 219.464L169.177 214.48L175.449 213.384L177.161 218.368Z" fill="black"/>
</g>
<path d="M218.673 144.8C218.673 144.8 212.273 186.608 208.065 202.312C203.721 218.64 172.969 219.616 172.969 219.616L169.929 213.168C169.929 213.168 187.937 208.648 195.833 197.968C199.425 180.368 203.033 144.584 203.033 144.584L218.673 144.8Z" fill="#5956E9"/>
<path opacity="0.2" d="M218.673 144.8C218.673 144.8 212.273 186.608 208.065 202.312C203.721 218.64 172.969 219.616 172.969 219.616L169.929 213.168C169.929 213.168 187.937 208.648 195.833 197.968C199.425 180.368 203.033 144.584 203.033 144.584L218.673 144.8Z" fill="white"/>
<path d="M169.576 212.544L172.208 220.48L175.048 220.552L172.416 211.6L169.576 212.544Z" fill="#5956E9"/>
<path d="M165.6 222.576C165.586 223.042 165.724 223.499 165.992 223.88C166.069 223.969 166.165 224.039 166.273 224.086C166.381 224.133 166.498 224.155 166.616 224.152C166.683 224.153 166.748 224.136 166.806 224.102C166.864 224.068 166.912 224.019 166.944 223.96C167.264 223.344 166.064 221.168 165.928 220.92C165.914 220.896 165.894 220.877 165.87 220.864C165.846 220.852 165.819 220.846 165.792 220.848C165.768 220.85 165.746 220.859 165.728 220.875C165.711 220.891 165.699 220.913 165.696 220.936C165.612 221.478 165.579 222.028 165.6 222.576V222.576ZM166.744 223.6C166.767 223.673 166.767 223.751 166.744 223.824C166.733 223.849 166.715 223.869 166.692 223.882C166.669 223.895 166.642 223.9 166.616 223.896C166.539 223.903 166.462 223.891 166.391 223.862C166.32 223.833 166.257 223.787 166.208 223.728C165.896 223.384 165.8 222.52 165.928 221.328C166.326 222.034 166.605 222.802 166.752 223.6H166.744Z" fill="#5956E9"/>
<path d="M165.704 220.96C165.7 220.979 165.7 220.998 165.704 221.016C166.024 221.664 167.24 222.984 167.832 222.936C167.976 222.936 168.144 222.832 168.16 222.488C168.166 222.36 168.146 222.231 168.103 222.111C168.059 221.99 167.991 221.879 167.904 221.784C167.317 221.277 166.594 220.952 165.824 220.848C165.804 220.844 165.782 220.845 165.763 220.852C165.743 220.859 165.725 220.872 165.712 220.888C165.705 220.899 165.701 220.911 165.7 220.923C165.698 220.936 165.7 220.948 165.704 220.96V220.96ZM167.92 222.4V222.472C167.92 222.696 167.816 222.704 167.792 222.704C167.432 222.704 166.488 221.832 166.056 221.168C166.679 221.27 167.259 221.547 167.728 221.968C167.838 222.087 167.905 222.239 167.92 222.4V222.4Z" fill="#5956E9"/>
<path d="M214.639 264.248C214.945 264.58 215.353 264.8 215.799 264.872C215.912 264.874 216.024 264.848 216.124 264.796C216.225 264.745 216.311 264.669 216.375 264.576C216.421 264.525 216.452 264.462 216.465 264.394C216.478 264.327 216.471 264.257 216.447 264.192C216.215 263.496 213.943 262.856 213.679 262.792C213.654 262.784 213.628 262.785 213.603 262.793C213.579 262.802 213.557 262.819 213.543 262.84C213.53 262.862 213.522 262.887 213.522 262.912C213.522 262.938 213.53 262.963 213.543 262.984C213.869 263.438 214.236 263.861 214.639 264.248V264.248ZM216.071 264.08C216.134 264.129 216.182 264.196 216.207 264.272C216.222 264.295 216.23 264.321 216.23 264.348C216.23 264.375 216.222 264.402 216.207 264.424C216.165 264.485 216.109 264.535 216.043 264.57C215.978 264.605 215.905 264.623 215.831 264.624C215.399 264.624 214.727 264.064 213.999 263.136C214.738 263.332 215.439 263.651 216.071 264.08V264.08Z" fill="#5956E9"/>
<path d="M213.6 263C213.606 263.004 213.613 263.006 213.62 263.006C213.627 263.006 213.634 263.004 213.64 263C214.296 263.224 215.984 263.224 216.312 262.72C216.392 262.6 216.44 262.408 216.208 262.144C216.125 262.05 216.025 261.974 215.912 261.921C215.799 261.867 215.677 261.837 215.552 261.832C214.816 261.939 214.133 262.275 213.6 262.792C213.591 262.811 213.586 262.831 213.586 262.852C213.586 262.873 213.591 262.894 213.6 262.912C213.594 262.926 213.591 262.941 213.591 262.956C213.591 262.971 213.594 262.986 213.6 263V263ZM216 262.28C216.021 262.297 216.039 262.316 216.056 262.336C216.208 262.504 216.152 262.584 216.136 262.608C215.936 262.912 214.712 263 213.976 262.848C214.419 262.441 214.978 262.183 215.576 262.112C215.711 262.129 215.836 262.188 215.936 262.28H216Z" fill="#5956E9"/>
<path d="M202.784 145.28L202.592 147.136C202.544 147.288 202.752 147.416 203 147.4L224.96 145.8C225.152 145.8 225.296 145.68 225.288 145.568L225.128 143.736C225.128 143.608 224.928 143.512 224.72 143.528L203.12 145.128C203.055 145.119 202.989 145.128 202.93 145.155C202.87 145.182 202.82 145.225 202.784 145.28V145.28Z" fill="#5956E9"/>
<path opacity="0.7" d="M202.784 145.28L202.592 147.136C202.544 147.288 202.752 147.416 203 147.4L224.96 145.8C225.152 145.8 225.296 145.68 225.288 145.568L225.128 143.736C225.128 143.608 224.928 143.512 224.72 143.528L203.12 145.128C203.055 145.119 202.989 145.128 202.93 145.155C202.87 145.182 202.82 145.225 202.784 145.28V145.28Z" fill="white"/>
<path d="M204.656 147.432L204.08 147.472C203.96 147.472 203.864 147.432 203.856 147.36L203.672 144.96C203.672 144.888 203.752 144.824 203.872 144.816H204.448C204.56 144.816 204.664 144.816 204.664 144.928L204.856 147.328C204.864 147.36 204.8 147.424 204.656 147.432Z" fill="#5956E9"/>
<g opacity="0.2">
<path d="M204.656 147.432L204.08 147.472C203.96 147.472 203.864 147.432 203.856 147.36L203.672 144.96C203.672 144.888 203.752 144.824 203.872 144.816H204.448C204.56 144.816 204.664 144.816 204.664 144.928L204.856 147.328C204.864 147.36 204.8 147.424 204.656 147.432Z" fill="#5956E9"/>
</g>
<path d="M221.896 146.16L221.312 146.208C221.2 146.208 221.104 146.16 221.096 146.096L220.904 143.696C220.904 143.624 220.992 143.56 221.104 143.552L221.688 143.512C221.8 143.512 221.904 143.552 221.904 143.616L222.096 146.016C222.096 146.088 222.008 146.152 221.896 146.16Z" fill="#5956E9"/>
<path opacity="0.2" d="M221.896 146.16L221.312 146.208C221.2 146.208 221.104 146.16 221.096 146.096L220.904 143.696C220.904 143.624 220.992 143.56 221.104 143.552L221.688 143.512C221.8 143.512 221.904 143.552 221.904 143.616L222.096 146.016C222.096 146.088 222.008 146.152 221.896 146.16Z" fill="#5956E9"/>
<path d="M213.272 146.8L212.696 146.84C212.584 146.84 212.48 146.8 212.48 146.728L212.288 144.328C212.288 144.256 212.376 144.192 212.488 144.184L213.064 144.144C213.184 144.144 213.28 144.184 213.288 144.256L213.472 146.656C213.48 146.728 213.392 146.792 213.272 146.8Z" fill="#5956E9"/>
<path opacity="0.2" d="M213.272 146.8L212.696 146.84C212.584 146.84 212.48 146.8 212.48 146.728L212.288 144.328C212.288 144.256 212.376 144.192 212.488 144.184L213.064 144.144C213.184 144.144 213.28 144.184 213.288 144.256L213.472 146.656C213.48 146.728 213.392 146.792 213.272 146.8Z" fill="#5956E9"/>
<g opacity="0.2">
<path d="M204.656 147.432L204.08 147.472C203.96 147.472 203.864 147.432 203.856 147.36L203.672 144.96C203.672 144.888 203.752 144.824 203.872 144.816H204.448C204.56 144.816 204.664 144.816 204.664 144.928L204.856 147.328C204.864 147.36 204.8 147.424 204.656 147.432Z" fill="white"/>
<g opacity="0.2">
<path d="M204.656 147.432L204.08 147.472C203.96 147.472 203.864 147.432 203.856 147.36L203.672 144.96C203.672 144.888 203.752 144.824 203.872 144.816H204.448C204.56 144.816 204.664 144.816 204.664 144.928L204.856 147.328C204.864 147.36 204.8 147.424 204.656 147.432Z" fill="white"/>
</g>
<path d="M221.895 146.16L221.311 146.208C221.199 146.208 221.103 146.16 221.095 146.096L220.903 143.696C220.903 143.624 220.991 143.56 221.103 143.552L221.687 143.512C221.799 143.512 221.903 143.552 221.903 143.616L222.095 146.016C222.095 146.088 222.007 146.152 221.895 146.16Z" fill="white"/>
<path opacity="0.2" d="M221.895 146.16L221.311 146.208C221.199 146.208 221.103 146.16 221.095 146.096L220.903 143.696C220.903 143.624 220.991 143.56 221.103 143.552L221.687 143.512C221.799 143.512 221.903 143.552 221.903 143.616L222.095 146.016C222.095 146.088 222.007 146.152 221.895 146.16Z" fill="white"/>
<path d="M213.272 146.8L212.696 146.84C212.584 146.84 212.48 146.8 212.48 146.728L212.288 144.328C212.288 144.256 212.376 144.192 212.488 144.184L213.064 144.144C213.184 144.144 213.28 144.184 213.288 144.256L213.472 146.656C213.48 146.728 213.392 146.792 213.272 146.8Z" fill="white"/>
<path opacity="0.2" d="M213.272 146.8L212.696 146.84C212.584 146.84 212.48 146.8 212.48 146.728L212.288 144.328C212.288 144.256 212.376 144.192 212.488 144.184L213.064 144.144C213.184 144.144 213.28 144.184 213.288 144.256L213.472 146.656C213.48 146.728 213.392 146.792 213.272 146.8Z" fill="white"/>
</g>
<path d="M196.6 88.7122C193.28 90.6402 187.912 96.1282 193.688 102.392C199.464 108.656 211.184 102.056 209.168 94.3362C207.152 86.6162 201.344 85.9602 196.6 88.7122Z" fill="#263238"/>
<path d="M194.504 99.2001C196.904 103.848 197.816 105.872 201.304 107.264C206.56 109.352 211.744 105.392 210.784 100.12C209.928 95.3761 206.152 88.5761 200.64 88.7281C199.424 88.7572 198.236 89.0965 197.189 89.7136C196.141 90.3308 195.269 91.2054 194.654 92.2544C194.039 93.3035 193.703 94.4922 193.676 95.7077C193.65 96.9233 193.935 98.1255 194.504 99.2001V99.2001Z" fill="#FFB573"/>
<path d="M195.432 94.2161C197.568 95.1361 198.032 100.312 196.232 102.392C192.512 102.4 189.064 91.4641 195.432 94.2161Z" fill="#263238"/>
<path d="M206.031 96.4641C206.769 97.1981 207.603 97.828 208.511 98.3361C208.377 98.5663 208.193 98.7638 207.973 98.9145C207.753 99.0653 207.502 99.1655 207.239 99.2081L206.031 96.4641Z" fill="#ED893E"/>
<path d="M195.136 104.136C195.845 104.86 196.812 105.274 197.824 105.288C199.16 105.288 199.48 104.008 198.808 102.888C198.136 101.768 196.792 100.744 195.608 101.288C195.345 101.403 195.115 101.581 194.939 101.808C194.762 102.034 194.645 102.301 194.598 102.584C194.551 102.867 194.576 103.157 194.67 103.428C194.764 103.699 194.924 103.943 195.136 104.136V104.136Z" fill="#FFB573"/>
<path d="M200.528 96.9842C200.579 96.9694 200.624 96.9391 200.657 96.8975C200.69 96.8559 200.709 96.8052 200.712 96.7522C200.784 96.3509 200.94 95.9692 201.169 95.6316C201.397 95.294 201.694 95.0081 202.04 94.7922C202.095 94.7561 202.134 94.6996 202.147 94.6351C202.161 94.5706 202.148 94.5034 202.112 94.4482C202.076 94.393 202.02 94.3545 201.955 94.341C201.89 94.3275 201.823 94.3401 201.768 94.3762C201.348 94.6299 200.987 94.9713 200.711 95.3773C200.435 95.7832 200.25 96.2441 200.168 96.7282C200.166 96.7948 200.19 96.8596 200.235 96.9089C200.279 96.9582 200.342 96.9881 200.408 96.9922L200.528 96.9842Z" fill="#263238"/>
<path d="M207.512 92.5601C207.553 92.5469 207.591 92.5241 207.621 92.4934C207.652 92.4628 207.675 92.4254 207.688 92.3841C207.705 92.3194 207.697 92.2506 207.664 92.1922C207.631 92.1339 207.576 92.0908 207.512 92.0721C207.133 91.957 206.732 91.9339 206.343 92.0049C205.953 92.0758 205.586 92.2388 205.272 92.4801C205.247 92.5017 205.227 92.5279 205.213 92.5572C205.198 92.5866 205.189 92.6185 205.187 92.6512C205.185 92.6838 205.189 92.7167 205.2 92.7477C205.21 92.7788 205.226 92.8074 205.248 92.8321C205.27 92.8568 205.296 92.877 205.325 92.8916C205.354 92.9062 205.386 92.9148 205.419 92.917C205.452 92.9193 205.485 92.915 205.516 92.9046C205.547 92.8941 205.575 92.8777 205.6 92.8561C205.85 92.6677 206.142 92.5418 206.451 92.4889C206.76 92.4361 207.077 92.4577 207.376 92.5521C207.42 92.5667 207.467 92.5694 207.512 92.5601V92.5601Z" fill="#263238"/>
<path d="M207.904 100.464C207.735 101.21 207.618 101.966 207.552 102.728H207.152C205.328 102.856 204.44 102.312 204.008 101.672C203.805 101.354 203.681 100.992 203.648 100.616C203.616 100.404 203.616 100.188 203.648 99.9763C204.807 100.397 206.043 100.566 207.272 100.472C207.664 100.488 207.904 100.464 207.904 100.464Z" fill="#263238"/>
<path d="M207.28 100.504L207.16 101.168C205.448 101.28 204.216 101.128 203.648 100.648C203.616 100.436 203.616 100.22 203.648 100.008C204.81 100.43 206.048 100.599 207.28 100.504V100.504Z" fill="white"/>
<path d="M207.152 102.76C205.328 102.888 204.44 102.344 204.008 101.704C204.703 101.67 205.398 101.757 206.064 101.96C206.501 102.107 206.882 102.386 207.152 102.76V102.76Z" fill="#DE5753"/>
<path d="M203.544 96.4642L204.072 96.0242C204.072 96.0242 203.944 96.7682 203.456 96.7442C203.193 96.6819 202.916 96.7227 202.683 96.8581C202.449 96.9935 202.276 97.2133 202.2 97.4722C202.176 96.1762 203.2 96.3602 203.544 96.4642Z" fill="#263238"/>
<path d="M207.687 94.6722L208.215 94.2322C208.215 94.2322 208.087 94.9762 207.599 94.9522C207.337 94.8919 207.061 94.9336 206.828 95.0687C206.595 95.2038 206.421 95.4224 206.343 95.6802C206.319 94.4002 207.335 94.5682 207.687 94.6722Z" fill="#263238"/>
<path d="M197.072 97.9842C197.072 97.9842 198.752 94.6722 197.264 91.7682C198.118 92.6805 198.642 93.8519 198.752 95.0962C199.418 94.2439 200.193 93.4827 201.056 92.8322C200.869 91.7361 200.475 90.6856 199.896 89.7362C200.366 90.0761 200.76 90.5097 201.053 91.0096C201.346 91.5094 201.533 92.0646 201.6 92.6402C201.67 91.6055 201.418 90.5747 200.88 89.6882C201.759 90.2712 202.412 91.1381 202.728 92.1442L204.512 91.4802C204.512 91.4802 204.112 89.8322 203.28 89.3842C204.078 89.8265 204.799 90.3937 205.416 91.0642C205.416 91.0642 207.088 90.9442 207.472 91.4402C207.124 90.6672 206.602 89.9851 205.947 89.4467C205.292 88.9084 204.522 88.5283 203.696 88.3362C205.152 88.456 206.552 88.9492 207.76 89.7682C207.76 89.7682 205.512 86.0482 199.384 87.6322C193.256 89.2162 192 93.6002 191.928 95.4402C191.856 97.2802 197.072 97.9842 197.072 97.9842Z" fill="#263238"/>
<path d="M193.688 92.0002C192.307 91.0251 190.695 90.4266 189.011 90.2639C187.328 90.1012 185.631 90.3798 184.088 91.0722C178.392 93.3922 181.344 105.584 187.888 110.568C194.432 115.552 197.984 112.488 197.984 112.488C197.984 112.488 194.448 113.944 191.168 110C192.149 110.684 193.266 111.147 194.443 111.358C195.619 111.569 196.827 111.524 197.984 111.224L196.104 110.752L197.984 110.056C197.16 110.192 196.317 110.159 195.506 109.96C194.694 109.761 193.932 109.399 193.264 108.896C193.264 108.896 195.464 109.528 196.896 108.896C196.896 108.896 189.576 108.576 187.568 101.832C185.56 95.0882 192.792 96.0882 192.792 96.0882L193.688 92.0002Z" fill="#263238"/>
<path d="M219.72 77.1602L217.384 73.4722L222.72 73.9682C222.72 73.9682 224.08 77.0642 222.72 78.7682L222.208 78.7042C221.705 78.6468 221.221 78.4785 220.79 78.2115C220.36 77.9446 219.995 77.5855 219.72 77.1602V77.1602Z" fill="#FFB573"/>
<path d="M217.128 69.5682L221.616 69.2961L222.72 73.9682L217.384 73.4721L217.128 69.5682Z" fill="#FFB573"/>
<path d="M226.2 140.144L202.448 146.776C201.095 141.768 199.417 136.854 197.424 132.064C196.312 129.32 195.24 126.888 194.36 124.864C194.36 124.784 194.296 124.704 194.256 124.624C192.656 120.84 191.696 118.424 192.368 117.84C193.968 116.456 199.616 114.384 199.616 114.384C199.616 114.384 206.576 118.448 210.656 116.728C213.384 115.576 211.456 111.928 211.456 111.928C214.544 109.44 215.888 109.6 217.4 111.352C218.248 112.433 218.947 113.622 219.48 114.888C222.728 122.088 225.32 135.328 226.024 139.128C226.072 139.376 226.112 139.592 226.136 139.752C226.136 139.84 226.136 139.912 226.136 139.968C226.136 140.024 226.2 140.144 226.2 140.144Z" fill="#263238"/>
<path opacity="0.7" d="M226.2 140.144L202.448 146.776C201.096 141.768 199.418 136.853 197.424 132.064C196.312 129.32 195.24 126.888 194.36 124.864C194.353 124.772 194.329 124.683 194.288 124.6V124.6L197.6 124.8L198.448 124.848C198.448 124.848 198.824 117.776 200.184 115.92C200.184 115.92 206.888 119.184 210.776 117.52C214.664 115.856 212.856 112.504 212.856 112.504C215.21 112.77 217.467 113.593 219.44 114.904H219.48C223.096 122.72 225.648 137.104 226.096 139.704C226.096 139.792 226.096 139.864 226.096 139.92C226.096 139.976 226.2 140.144 226.2 140.144Z" fill="white"/>
<path opacity="0.2" d="M197.425 132.064C196.313 129.32 195.241 126.888 194.361 124.864C194.361 124.784 194.297 124.704 194.257 124.624C195.205 124.08 196.294 123.832 197.385 123.912C197.385 123.912 197.481 124.248 197.593 124.832C198.086 127.224 198.029 129.697 197.425 132.064V132.064Z" fill="black"/>
<path d="M198.4 123.616C194.736 129.416 190.096 134.72 183.792 137.752C183.233 138.022 182.625 138.176 182.005 138.204C181.385 138.231 180.765 138.132 180.185 137.913C179.604 137.694 179.074 137.359 178.627 136.928C178.18 136.497 177.825 135.98 177.584 135.408C176.336 132.808 176.08 130.376 175.712 127.768C175.362 124.664 175.231 121.539 175.32 118.416L179.256 117.976C180.056 120.856 180.856 123.776 181.656 126.568C182.224 128.376 182.776 130.488 183.696 131.928C183.744 131.984 183.76 131.984 183.736 131.928C183.329 131.49 182.792 131.195 182.203 131.087C181.615 130.979 181.008 131.063 180.472 131.328C184.904 128.624 188.584 123.792 191.576 119.432L198.408 123.6L198.4 123.616Z" fill="#FFB573"/>
<path d="M192.839 117.6C190.727 118.352 187.031 124.12 187.031 124.12L193.735 131.84C193.735 131.84 198.711 127.248 198.479 124.336C198.247 121.424 195.239 116.72 192.839 117.6Z" fill="#263238"/>
<path d="M197.336 115.008C197.336 115.008 228.784 125.52 240.6 146.208L239.544 149.304C239.544 149.304 233.256 130.104 196.104 115.784L197.336 115.008Z" fill="#5956E9"/>
<path opacity="0.3" d="M197.336 115.008C197.336 115.008 228.784 125.52 240.6 146.208L239.544 149.304C239.544 149.304 233.256 130.104 196.104 115.784L197.336 115.008Z" fill="black"/>
<path d="M174.128 107.976L188.672 113.648L187.976 127.048L171.256 120.504L172.512 108.312L174.128 107.976Z" fill="#5956E9"/>
<path opacity="0.2" d="M174.128 107.976L188.672 113.648L187.976 127.048L171.256 120.504L172.512 108.312L174.128 107.976Z" fill="black"/>
<path d="M188.008 114.2L187.008 125.808L183.552 126.816L183.168 113.944L188.008 114.2Z" fill="#5956E9"/>
<path opacity="0.7" d="M188.008 114.2L187.008 125.808L183.552 126.816L183.168 113.944L188.008 114.2Z" fill="white"/>
<path d="M188.672 113.648L186.376 114.76L185.248 127.288L170.08 121.184L172.512 108.312L174.128 107.976L188.672 113.648Z" fill="#5956E9"/>
<path d="M182.68 129.768C182.312 128.76 181.96 127.672 181.64 126.568C180.84 123.776 180.04 120.856 179.24 117.976L175.304 118.416C175.215 121.539 175.346 124.664 175.696 127.768C175.88 129.385 176.166 130.988 176.552 132.568C176.784 133.54 177.125 134.482 177.568 135.376C177.734 135.703 177.929 136.014 178.152 136.304C178.511 136.792 178.955 137.209 179.464 137.536L179.736 137.696L180.08 137.864L180.44 138C180.582 138.048 180.726 138.088 180.872 138.12C181.476 138.252 182.101 138.252 182.704 138.12C182.978 138.059 183.246 137.973 183.504 137.864L183.792 137.728L184.104 137.584C184.4 137.44 184.68 137.288 184.96 137.144C184.952 137.168 183.456 129.144 182.68 129.768Z" fill="#FFB573"/>
<path d="M175.288 119.064L174.76 112.744L179.768 115.832C179.768 115.832 179.592 119.544 177.416 120.576L175.288 119.064Z" fill="#FFB573"/>
<path d="M177.152 108.512L181.208 111.328L179.768 115.832L174.76 112.752L177.152 108.512Z" fill="#FFB573"/>
<path d="M133.447 160.8C133.447 160.8 120.575 166.048 114.135 165.096C107.695 164.144 105.911 180.296 114.135 183.88C122.359 187.464 131.911 186.568 135.343 184.328C138.775 182.088 133.447 160.8 133.447 160.8Z" fill="#5956E9"/>
<path opacity="0.2" d="M133.447 160.8C133.447 160.8 120.575 166.048 114.135 165.096C107.695 164.144 105.911 180.296 114.135 183.88C122.359 187.464 131.911 186.568 135.343 184.328C138.775 182.088 133.447 160.8 133.447 160.8Z" fill="black"/>
<path d="M133.447 160.8C133.447 160.8 144.095 170.16 144.735 173.008C145.375 175.856 137.663 184.928 133.975 184.296C130.287 183.664 131.575 161.76 131.575 161.76L133.447 160.8Z" fill="#5956E9"/>
<path opacity="0.2" d="M133.447 160.8C133.447 160.8 144.095 170.16 144.735 173.008C145.375 175.856 137.663 184.928 133.975 184.296C130.287 183.664 131.575 161.76 131.575 161.76L133.447 160.8Z" fill="white"/>
<path d="M107.52 127.328C113.288 123 119.52 118.864 125.208 114.528C126.808 112.464 127.368 109.848 128.056 107.256C128.856 103.952 129.472 100.44 129.984 97L133.728 97.064C134.071 100.771 134.071 104.501 133.728 108.208C133.232 112.168 132.568 116.864 129.504 119.864C123.916 124.724 118.059 129.264 111.96 133.464L107.56 127.304L107.52 127.328Z" fill="#DC897C"/>
<path d="M111.2 137.848C116.144 138.048 126.592 125.696 126.592 125.696L119.648 118.888C115.731 120.946 112.096 123.5 108.832 126.488C104 131.2 105.704 137.6 111.2 137.848Z" fill="#263238"/>
<path opacity="0.2" d="M111.2 137.848C116.144 138.048 126.592 125.696 126.592 125.696L119.648 118.888C115.731 120.946 112.096 123.5 108.832 126.488C104 131.2 105.704 137.6 111.2 137.848Z" fill="white"/>
<path opacity="0.1" d="M111.816 137.824C110.296 136.16 110.4 133.752 113.416 130.44C116.413 127.368 119.877 124.79 123.68 122.8L126.64 125.696C126.64 125.696 116.952 137.2 111.816 137.824Z" fill="black"/>
<path d="M129.855 100.8L128.575 93.5201L135.031 93.4321C135.031 93.4321 136.631 98.3921 133.311 101.112L129.855 100.8Z" fill="#E4897B"/>
<path d="M130.199 88.5439L135.031 89.624V93.456L128.575 93.5439L130.199 88.5439Z" fill="#E4897B"/>
<path d="M98.4873 281.08L91.7593 281.192C91.6497 281.194 91.544 281.233 91.4596 281.302C91.3752 281.372 91.3172 281.469 91.2953 281.576L90.2793 286.52C90.2561 286.626 90.2546 286.735 90.275 286.842C90.2953 286.948 90.3371 287.049 90.3977 287.139C90.4582 287.229 90.5364 287.305 90.6275 287.364C90.7185 287.423 90.8205 287.462 90.9273 287.48C90.9884 287.488 91.0502 287.488 91.1113 287.48C93.2873 287.408 94.8633 287.256 97.5993 287.208C99.2793 287.208 104.359 287.28 106.687 287.208C109.015 287.136 109.271 284.872 108.287 284.68C104.007 283.816 100.775 282.576 99.3913 281.376C99.1361 281.171 98.8146 281.065 98.4873 281.08V281.08Z" fill="#263238"/>
<path d="M155.199 281.08L148.479 281.192C148.368 281.192 148.261 281.23 148.175 281.3C148.089 281.37 148.029 281.468 148.007 281.576L146.999 286.52C146.976 286.625 146.974 286.734 146.994 286.84C147.014 286.946 147.055 287.047 147.115 287.137C147.175 287.226 147.252 287.303 147.342 287.362C147.432 287.421 147.533 287.461 147.639 287.48C147.7 287.488 147.762 287.488 147.823 287.48C149.999 287.408 151.583 287.256 154.311 287.208C155.991 287.208 161.071 287.28 163.399 287.208C165.727 287.136 165.991 284.872 164.999 284.68C160.719 283.816 157.487 282.576 156.103 281.376C155.848 281.171 155.527 281.065 155.199 281.08V281.08Z" fill="#263238"/>
<path d="M90.2627 281.424H99.4227C99.4227 281.424 111.087 242.976 112.087 233.168C113.087 223.36 113.455 198.768 113.455 198.768V198.816C113.855 199.344 117.311 204.208 121.295 209.864C126.503 217.264 132.615 226.016 133.903 228.16C137.679 234.48 146.927 281.392 146.927 281.392H156.079C156.079 281.392 153.775 239.4 149.071 225.56C144.367 211.72 124.031 181.496 123.151 179.872C122.023 177.8 119.255 171.224 119.255 171.224L91.8067 175.04C91.8067 175.04 91.3587 179.688 91.3907 183.752C91.5187 199 94.3987 219.608 94.8627 225.152C95.7667 235.72 90.2627 281.424 90.2627 281.424Z" fill="#5956E9"/>
<path d="M112.799 126.952C112.799 126.952 121.015 141.6 119.271 171.256L91.8314 175.072C91.0314 170.888 90.8474 149.968 84.0234 130.68C86.9769 129.687 89.9911 128.886 93.0474 128.28C96.901 127.52 100.796 126.986 104.711 126.68C107.41 126.561 110.115 126.652 112.799 126.952V126.952Z" fill="#263238"/>
<path opacity="0.2" d="M119.296 171.256L91.848 175.072C91.36 172.456 91.096 163.272 89.296 152.032C88.816 149.032 88.224 145.88 87.48 142.68C86.5582 138.619 85.4097 134.613 84.04 130.68C86.9922 129.683 90.0067 128.881 93.064 128.28C96.9203 127.52 100.818 126.986 104.736 126.68C107.436 126.585 110.14 126.695 112.824 127.008C112.824 127.008 121.032 141.6 119.296 171.256Z" fill="white"/>
<path d="M91.4404 114.928C92.9844 118.472 95.2084 125.088 93.1604 128.128C97.0404 128.856 99.8244 129.304 103.424 131.328C103.992 128.816 104.664 125.576 104.664 125.576C100.32 125.504 99.7444 122.376 99.8644 119.384L91.4404 114.928Z" fill="#E4897B"/>
<path opacity="0.2" d="M94.8638 116.752L99.8238 119.392C99.799 120.1 99.8311 120.809 99.9198 121.512C98.3198 121.632 95.7518 120.384 95.2158 118.768C94.9737 118.124 94.8543 117.44 94.8638 116.752V116.752Z" fill="black"/>
<path opacity="0.5" d="M90.2627 281.424H99.4227C99.4227 281.424 111.087 242.976 112.087 233.168C113.087 223.36 113.455 198.768 113.455 198.768V198.816C113.855 199.344 117.311 204.208 121.295 209.864C126.503 217.264 132.615 226.016 133.903 228.16C137.679 234.48 146.927 281.392 146.927 281.392H156.079C156.079 281.392 153.775 239.4 149.071 225.56C144.367 211.72 124.031 181.496 123.151 179.872C122.023 177.8 119.255 171.224 119.255 171.224L91.8067 175.04C91.8067 175.04 91.3587 179.688 91.3907 183.752C91.5187 199 94.3987 219.608 94.8627 225.152C95.7667 235.72 90.2627 281.424 90.2627 281.424Z" fill="white"/>
<path d="M89.6318 129.016L91.9118 126.168L99.2958 127.592L103.048 131.888L103.52 126.928L104.904 125.272L107.936 126.576V129.68L105.776 128.976L103.912 133.312L98.0158 130.888L96.7038 132.56L89.6318 129.016Z" fill="#263238"/>
<path opacity="0.3" d="M89.6318 129.016L91.9118 126.168L99.2958 127.592L103.048 131.888L103.52 126.928L104.904 125.272L107.936 126.576V129.68L105.776 128.976L103.912 133.312L98.0158 130.888L96.7038 132.56L89.6318 129.016Z" fill="white"/>
<path opacity="0.1" d="M103.911 133.312L104.623 128.128L107.935 129.68L105.775 128.976L103.911 133.312Z" fill="black"/>
<path opacity="0.1" d="M103.911 133.312L98.4471 129.288L96.7031 132.56L98.0151 130.888L103.911 133.312Z" fill="black"/>
<path opacity="0.1" d="M89.2955 152C88.8155 149 88.2235 145.848 87.4795 142.648C88.3651 141.55 89.6236 140.815 91.0155 140.584C91.0155 140.584 91.7675 147.88 89.2955 152Z" fill="black"/>
<path opacity="0.2" d="M113.456 198.784V198.832C113.856 199.36 117.312 204.224 121.296 209.88C121.69 206.819 121.17 203.709 119.8 200.943C118.431 198.177 116.273 195.878 113.6 194.336L113.456 198.784Z" fill="black"/>
<path d="M99.568 100.04C102.32 100.744 105 107.656 102.032 109.776C99.064 111.896 94.4 98.72 99.568 100.04Z" fill="#263238"/>
<path d="M89.328 109.848C91.312 114.648 92.224 117.592 95.592 119.36C96.6812 119.945 97.9094 120.221 99.144 120.158C100.379 120.096 101.573 119.697 102.597 119.005C103.622 118.313 104.438 117.355 104.957 116.233C105.476 115.111 105.679 113.869 105.544 112.64C105.104 107.896 101.944 100.8 96.408 100.32C95.2132 100.182 94.0032 100.361 92.8994 100.839C91.7956 101.317 90.8369 102.076 90.1196 103.042C89.4022 104.007 88.9514 105.144 88.8125 106.339C88.6736 107.534 88.8514 108.744 89.328 109.848V109.848Z" fill="#E4897B"/>
<path d="M92.9917 102.856L91.8877 98.5281C90.8784 99.2523 89.666 99.6387 88.4237 99.6321C83.0157 99.3841 79.6717 103.448 82.6237 105.896C80.3757 107.416 82.3517 110.512 84.3917 112.344C87.2157 114.888 89.8957 115.832 91.3197 114.176C92.6717 113.168 91.9517 107.952 91.0957 106.12C89.8157 103.376 92.9917 102.856 92.9917 102.856Z" fill="#263238"/>
<path d="M89.104 115.288C90.088 116.126 91.3317 116.598 92.624 116.624C94.224 116.624 94.352 115.08 93.296 113.808C92.344 112.664 90.352 111.288 89.008 111.912C87.664 112.536 87.856 114.24 89.104 115.288Z" fill="#E4897B"/>
<path d="M97.3361 108.944C97.4721 109.344 97.8001 109.608 98.0641 109.528C98.3281 109.448 98.4321 109.056 98.2961 108.656C98.1601 108.256 97.8321 108 97.5681 108.08C97.3041 108.16 97.2001 108.544 97.3361 108.944Z" fill="#263238"/>
<path d="M101.911 107.568C102.047 107.968 102.375 108.224 102.639 108.144C102.903 108.064 103.007 107.672 102.871 107.272C102.735 106.872 102.407 106.616 102.143 106.696C101.879 106.776 101.775 107.2 101.911 107.568Z" fill="#263238"/>
<path d="M100.527 108.2C101.428 109.281 102.469 110.236 103.623 111.04C103.41 111.321 103.137 111.551 102.825 111.714C102.512 111.877 102.168 111.969 101.815 111.984L100.527 108.2Z" fill="#DE5753"/>
<path d="M95.4239 107.912C95.3848 107.924 95.3431 107.924 95.3039 107.912C95.2727 107.901 95.244 107.885 95.2194 107.863C95.1948 107.841 95.1749 107.814 95.1607 107.784C95.1466 107.754 95.1385 107.722 95.137 107.689C95.1355 107.656 95.1406 107.623 95.1519 107.592C95.2721 107.222 95.4806 106.886 95.7593 106.615C96.038 106.343 96.3787 106.143 96.7519 106.032C96.784 106.025 96.8171 106.024 96.8494 106.03C96.8817 106.036 96.9125 106.048 96.94 106.066C96.9676 106.084 96.9913 106.107 97.0098 106.134C97.0283 106.161 97.0413 106.192 97.0479 106.224C97.0603 106.288 97.0482 106.353 97.0141 106.408C96.98 106.463 96.9263 106.503 96.8639 106.52C96.5697 106.609 96.3017 106.769 96.0829 106.985C95.864 107.201 95.7011 107.467 95.6079 107.76C95.5925 107.799 95.5676 107.833 95.5354 107.86C95.5033 107.886 95.4649 107.904 95.4239 107.912Z" fill="#263238"/>
<path d="M103.352 105.416C103.311 105.421 103.27 105.417 103.232 105.405C103.193 105.392 103.157 105.371 103.128 105.344C102.911 105.111 102.645 104.93 102.348 104.814C102.052 104.699 101.733 104.653 101.416 104.68C101.351 104.692 101.284 104.677 101.23 104.64C101.176 104.602 101.139 104.545 101.128 104.48C101.118 104.414 101.135 104.348 101.173 104.294C101.212 104.24 101.27 104.204 101.336 104.192C101.731 104.149 102.13 104.198 102.503 104.337C102.875 104.476 103.21 104.7 103.48 104.992C103.503 105.015 103.521 105.042 103.534 105.073C103.546 105.103 103.553 105.135 103.553 105.168C103.553 105.201 103.546 105.233 103.534 105.263C103.521 105.293 103.503 105.321 103.48 105.344C103.446 105.381 103.401 105.406 103.352 105.416V105.416Z" fill="#263238"/>
<path d="M88.2148 100.248C88.2148 100.248 90.9908 92.7362 97.9828 93.3202C97.3363 93.5463 96.7389 93.8939 96.2228 94.3442C96.2228 94.3442 102.103 93.0802 104.479 97.0242L103.255 96.5042C103.255 96.5042 105.199 99.7682 103.711 102.272L103.239 101.168C103.239 101.168 101.183 104.488 97.4388 104.088L98.6148 103.288C98.6148 103.288 92.3348 103.88 90.6148 102.488C89.7332 101.834 88.9281 101.083 88.2148 100.248V100.248Z" fill="#263238"/>
<path d="M103.015 113.256C100.883 113.096 98.7401 113.136 96.6152 113.376C97.2792 114.752 98.3992 115.824 100.807 115.608C101.11 115.611 101.411 115.551 101.69 115.432C101.969 115.313 102.22 115.137 102.427 114.916C102.635 114.695 102.794 114.434 102.895 114.148C102.997 113.862 103.037 113.558 103.015 113.256V113.256Z" fill="#263238"/>
<path d="M99.5919 114.584C100.514 114.456 101.452 114.624 102.272 115.064C101.849 115.392 101.335 115.582 100.8 115.608C99.8808 115.74 98.9437 115.571 98.1279 115.128C98.5481 114.8 99.0595 114.61 99.5919 114.584V114.584Z" fill="#A02724"/>
<path d="M102.8 113.232C102.774 113.416 102.697 113.589 102.576 113.731C102.456 113.873 102.297 113.977 102.12 114.032C100.725 114.145 99.3227 114.145 97.9276 114.032C97.7045 114.03 97.4852 113.973 97.2897 113.866C97.0942 113.758 96.9285 113.604 96.8076 113.416C98.7976 113.206 100.8 113.144 102.8 113.232V113.232Z" fill="white"/>
<path d="M97.7035 152.8L91.1195 145.184L86.4795 160.672C86.4795 160.672 89.0235 166.352 89.1195 166.072C89.2155 165.792 97.7035 152.8 97.7035 152.8Z" fill="#5956E9"/>
<path d="M96.8397 152.952L91.1197 146.56L87.8637 145.8L86.9277 159.136L90.6957 161.76L96.8397 152.952Z" fill="#5956E9"/>
<path opacity="0.7" d="M96.8397 152.952L91.1197 146.56L87.8637 145.8L86.9277 159.136L90.6957 161.76L96.8397 152.952Z" fill="white"/>
<path d="M87.7588 144.336L93.6388 151.864L97.7028 152.76L91.5108 173.32L85.6388 173.944L81.9268 165.4L87.7588 144.336Z" fill="#5956E9"/>
<path opacity="0.2" d="M87.7588 144.336L93.6388 151.864L97.7028 152.76L91.5108 173.32L85.6388 173.944L81.9268 165.4L87.7588 144.336Z" fill="white"/>
<path d="M93.4156 153.096L86.2156 146.024L82.8076 161.832C82.8076 161.832 85.7996 167.288 85.8716 167C85.9436 166.712 93.4156 153.096 93.4156 153.096Z" fill="#5956E9"/>
<path opacity="0.4" d="M93.4156 153.096L86.2156 146.024L82.8076 161.832C82.8076 161.832 85.7996 167.288 85.8716 167C85.9436 166.712 93.4156 153.096 93.4156 153.096Z" fill="black"/>
<path d="M92.5755 153.36L86.3675 147.432L83.0635 146.936L83.1755 160.304L87.1435 162.624L92.5755 153.36Z" fill="#5956E9"/>
<path opacity="0.7" d="M92.5755 153.36L86.3675 147.432L83.0635 146.936L83.1755 160.304L87.1435 162.624L92.5755 153.36Z" fill="white"/>
<path d="M82.8475 145.48L89.3035 152.528L93.4155 153.096L88.8715 174.088L83.0635 175.16L78.6875 166.944L82.8475 145.48Z" fill="#5956E9"/>
<path opacity="0.2" d="M82.8475 145.48L89.3035 152.528L93.4155 153.096L88.8715 174.088L83.0635 175.16L78.6875 166.944L82.8475 145.48Z" fill="black"/>
<path d="M87.9277 137.6C83.3997 142.344 78.3757 147.056 74.6797 152.464C74.5277 152.712 74.3677 153.008 74.3037 153.128C74.3309 152.977 74.3309 152.823 74.3037 152.672C74.3037 152.52 74.1917 152.496 74.2157 152.568C74.5117 153.304 75.8157 154.224 76.6157 154.776C79.267 156.404 82.0407 157.825 84.9117 159.024L83.9997 162.616C80.4952 162.209 77.0678 161.299 73.8237 159.912C69.4077 158.056 65.7437 154.104 68.6317 149.104C70.6138 145.637 72.975 142.401 75.6717 139.456C77.9197 136.904 80.2077 134.496 82.6797 132.136L87.9517 137.56L87.9277 137.6Z" fill="#DC897C"/>
<path d="M87.8553 130.144C80.0233 128.544 70.5273 143.36 70.5273 143.36L78.3993 149.6C82.4378 147.047 86.2684 144.18 89.8553 141.024C94.8073 136.448 93.0633 131.2 87.8553 130.144Z" fill="#263238"/>
<path opacity="0.2" d="M87.8553 130.144C80.0233 128.544 70.5273 143.36 70.5273 143.36L78.3993 149.6C82.4378 147.047 86.2684 144.18 89.8553 141.024C94.8073 136.448 93.0633 131.2 87.8553 130.144Z" fill="white"/>
<path d="M82.9036 158.256L90.2556 157.456L89.8956 163.912C89.8956 163.912 84.8396 165.176 82.3516 161.656L82.9036 158.256Z" fill="#E4897B"/>
<path d="M95.1355 159.456L93.7115 164.2L89.8955 163.936L90.2555 157.48L95.1355 159.456Z" fill="#E4897B"/>
<path d="M106.967 126.064C106.967 126.064 123.191 141.36 131.767 162.248L133.415 160.8C133.415 160.8 123.199 139.04 109.775 125.728L106.967 126.064Z" fill="#5956E9"/>
</svg>
