<svg id="ex28SuJ73y01" xmlns="http://www.w3.org/2000/svg" xmlns:xlink="http://www.w3.org/1999/xlink" viewBox="0 0 161 60" shape-rendering="geometricPrecision" text-rendering="geometricPrecision">
<path id="ex28SuJ73y02" d="M142.054,31.3963c.314-.7183.601-1.3708.887-2.0255c2.466-5.6479,4.931-11.2958,7.398-16.9437c1.552-3.55447,3.101-7.11001,4.664-10.66024.538-1.223376,1.529-1.784664,2.99-1.745406c1.179.031831,2.445.866867,2.828,1.874856.281.73954.218,1.46635-.098,2.18892-1.876,4.30463-3.747,8.61027-5.618,12.91597-2.951,6.7917-5.899,13.5834-8.851,20.3751-.403.9274-.794,1.86-1.224,2.7757-.838,1.7857-2.585,2.3375-4.216,1.6998-.845-.3311-1.373-.9772-1.71-1.7497-2.365-5.4304-4.722-10.865-7.083-16.2975-1.256-2.8924-2.514-5.7837-3.774-8.674-.417-.956-.487-1.9035.104-2.817.668-1.0314,1.694-1.4706,2.958-1.4123c1.33.0605,2.168.782,2.649,1.8834c2.261,5.18,4.509,10.3652,6.761,15.5484.436.9995.871,1.9958,1.335,3.0632Z" opacity="0" fill="#5956E9"/>
<path id="ex28SuJ73y03" d="M129.454,2.9636c0,1.6202-1.382,2.90512-3.122,2.90512-1.772,0-3.158-1.27431-3.159-2.90512-.001-1.65098,1.381-2.921037,3.174-2.915732c1.741.004244,3.108,1.287042,3.107,2.915732Z" opacity="0" fill="#5956E9"/>
<path id="ex28SuJ73y04" d="M114.454,6.28999c1.665-1.3559,3.041-2.44872,3.975.14665-.731,1.52717-4.572,2.87471-6.194,4.15386.105-3.3415-2.051-4.83937-1.324-6.33788c2.863-1.61551,3.507-.08014,3.543,2.03737Z" opacity="0" fill="#5956E9"/>
<path id="ex28SuJ73y05" d="M102.808,42.1006c-3.6033-.0063-6.6862-.592-9.6119-1.8494-1.87-.8032-3.519-1.8928-4.9483-3.2775-.8814-.8541-1.124-1.8929-.8006-2.9656.3121-1.0334,1.1924-1.6743,2.3187-1.9152c1.0102-.2164,1.985-.1432,2.7572.6313c1.8278,1.8303,4.1567,2.7704,6.7362,3.2394c2.4907.4531,4.9687.3947,7.4107-.2875c1.286-.3597,2.457-.9083,3.413-1.8208c1.006-.9602,1.429-2.1242,1.487-3.4356.073-1.6563-.739-2.8489-2.226-3.6797-1.436-.8022-3.019-1.2733-4.607-1.7231-2.372-.6727-4.8001-1.1619-7.1643-1.8611-2.0294-.6005-3.9985-1.3157-5.7614-2.4542-2.5954-1.6764-4.2661-3.9205-4.6716-6.8649-.5341-3.88125.4203-7.34129,3.6033-10.07983c2.0534-1.76663,4.5167-2.785225,7.2317-3.313621c1.558-.303457,3.1353-.438208,4.7273-.420171c1.335.015916,2.605.925225,2.969,2.111462.392,1.27325-.104,2.54861-1.268,3.2489-.498.30027-1.05.46261-1.642.44882-2.259-.05412-4.4196.35969-6.4342,1.29765-1.4292.66527-2.3984,1.7645-2.8152,3.21809-.4806,1.6775-.3884,3.2871.8655,4.693.681.7639,1.5955,1.2287,2.543,1.6404c1.2642.5506,2.5875.9485,3.9199,1.3231c2.109.5931,4.273.992,6.374,1.6149c1.984.5888,3.939,1.2297,5.701,2.295c2.237,1.3528,3.896,3.129,4.558,5.5811c1.172,4.3417-.434,9.4952-5.373,12.2496-2.253,1.2563-4.692,1.9916-7.305,2.2388-.791.0732-1.58.1242-1.987.1167Z" opacity="0" fill="#5956E9"/>
<path id="ex28SuJ73y06" d="M76.2711,42.0947c-1.7288,0-3.1273-1.3083-3.1148-2.9158.0126-1.6382,1.4111-2.9443,3.1421-2.9337c1.7516.0106,3.1307,1.3082,3.1296,2.9454-.0012,1.6308-1.3872,2.9051-3.1569,2.9041Z" opacity="0" fill="#5956E9"/>
<path id="ex28SuJ73y07" d="M79.4251,13.8435c-.0171,2.1571-.3599,4.2537-1.3723,6.2198-1.1126,2.1614-2.8619,3.7582-5.0724,4.9445-2.1342,1.1448-4.4495,1.8727-6.7966,2.5125-2.1194.5772-4.224,1.1905-6.2011,2.1178-2.8129,1.3189-4.4585,3.4431-4.946,6.344-.1799,1.0674-.2551,2.1401-.2585,3.2202-.0045,1.4844-1.2527,2.7693-2.781,2.8871-1.7026.1316-3.1581-.8658-3.4268-2.3958-.1208-.6897-.0422-1.3953-.0035-2.0924.0946-1.6892.3303-3.3582.9077-4.9688c1.2482-3.4802,3.6398-6.0755,7.0563-7.8793c1.9884-1.0504,4.1329-1.739,6.299-2.3703c1.7663-.5146,3.568-.9253,5.2683-1.6266c1.0887-.4488,2.1478-.9507,3.0555-1.6786c1.0466-.8393,1.567-1.9576,1.8051-3.1937.3314-1.7231.3211-3.4378-.3144-5.1099-.6901-1.81548-2.0624-3.07706-3.896-3.87071-3.7365-1.61702-7.3877-1.42816-10.8406.70241-1.9099,1.17775-2.8153,2.9465-3.0704,5.0346-.0694.5666-.0079,1.1385-.115,1.7019-.2722,1.4229-1.7037,2.4298-3.3288,2.3364-1.509-.0859-2.8175-1.2838-2.8528-2.6897-.0684-2.6643.4566-5.20545,2.0282-7.48562c1.9839-2.8786,4.7969-4.7492,8.2874-5.723237c4.9825-1.389958,9.7565-.885966,14.1638,1.708267c3.6125,2.12632,5.7569,5.20757,6.2705,9.20449.0923.713.1344,1.4314.1344,2.1507Z" opacity="0.03" fill="#5956E9"/>
<path id="ex28SuJ73y08" d="M21.0849,9.90597c-.7676,1.55013-1.5158,3.06113-2.2629,4.57203-1.6866,3.4123-3.3732,6.8256-5.0599,10.2379-.8735,1.7666-1.7788,3.5205-2.617,5.301-1.1058,2.3491-3.94727,2.2557-5.36285.7618-.87008-.9178-.92703-1.9916-.39632-3.0791c1.10696-2.2675,2.24011-4.5243,3.36301-6.7854C11.907,14.5491,15.0593,8.18284,18.2241,1.82086c1.0296-2.06902,3.1649-2.104034,4.4256-1.431336.6651.355447,1.1069.902946,1.4235,1.541686c1.0797,2.17831,2.1525,4.36086,3.2366,6.53705C31.4666,16.8123,35.628,25.1552,39.787,33.4981c.7118,1.4282,1.4225,2.8563,2.132,4.2856.6047,1.2159.3633,2.6441-.5888,3.494-1.3268,1.1841-3.4188,1.0737-4.5987-.2377-.2847-.3173-.4965-.6706-.6821-1.0441-2.7857-5.6065-5.577-11.212-8.366-16.8174-2.1467-4.3174-4.2912-8.6347-6.4356-12.9521-.0456-.0891-.0911-.1783-.1629-.32043Z" opacity="0" fill="#5956E9"/>
<path id="ex28SuJ73y09" d="M6.24657,39.1193c0,1.6096-1.39167,2.9041-3.12158,2.9073-1.73446.0021-3.126128-1.3062-3.124989-2.937.001139-1.6117,1.393949-2.9051,3.124989-2.9041c1.74813.0011,3.12272,1.2935,3.12158,2.9338Z" opacity="0" fill="#5956E9"/>
</svg>
