<svg width="200" height="199" viewBox="0 0 200 199" fill="none" xmlns="http://www.w3.org/2000/svg">
<path d="M31.4866 182.128C-7.0644 159.872 -7.0644 123.786 31.4866 101.522C70.0377 79.2574 132.537 79.2659 171.088 101.522C209.639 123.778 209.635 159.864 171.088 182.128C132.542 204.392 70.0334 204.384 31.4866 182.128Z" fill="#F5F5F5"/>
<path d="M145.438 125.453C135.125 131.393 135.125 141.061 145.438 147.018C155.752 152.974 172.475 152.957 182.793 147.018C193.111 141.078 193.106 131.406 182.793 125.453C172.48 119.501 155.752 119.497 145.438 125.453Z" fill="#E6E6E6"/>
<path d="M132.716 184.148C132.546 184.048 132.372 183.958 132.194 183.876C131.567 183.664 130.955 183.41 130.361 183.117C129.645 182.69 128.965 182.208 128.325 181.674C126.488 180.101 124.209 178.904 122.313 177.432C120.128 175.735 117.702 174.31 115.758 172.341C113.595 170.144 112.144 167.369 110.417 164.815C108.894 162.562 107.023 160.386 104.609 159.211L106.731 157.997L131.15 143.925C131.999 143.429 131.999 142.627 131.15 142.135L68.7904 106.112C68.3096 105.87 67.7785 105.743 67.2398 105.743C66.7012 105.743 66.1701 105.87 65.6892 106.112L13.0405 136.514C12.1921 137.01 12.1921 137.812 13.0405 138.304L75.4044 174.297C75.8852 174.54 76.4164 174.666 76.955 174.666C77.4937 174.666 78.0248 174.54 78.5056 174.297L82.7947 171.819L88.9505 168.243C88.9505 168.243 89.2093 171.132 90.5966 173.117C91.8099 174.853 95.3439 177.334 97.2827 178.187C99.1077 178.973 100.883 179.87 102.598 180.873C104.444 181.963 106.37 182.934 108.215 184.05C109.178 184.577 110.04 185.271 110.761 186.099C111.151 186.587 111.448 187.134 111.796 187.656C113.289 189.773 115.385 191.391 117.812 192.298C120.216 193.265 122.76 193.838 125.346 193.994C128.689 194.181 132.283 194.033 134.726 191.364C135.647 190.363 135.694 188.174 135.227 186.956C134.723 185.769 133.84 184.781 132.716 184.148Z" fill="#E0E0E0"/>
<path d="M11.8823 52.5642L12.7181 53.0563L29.8066 43.1927L28.9751 42.6963L11.8823 52.5642Z" fill="#FAFAFA"/>
<path d="M28.9752 42.696L12.7181 52.0802V35.0511L28.9752 25.6753V42.696Z" fill="white"/>
<path d="M31.3806 22.4634L11.1442 34.1471V55.7835L31.3806 44.0998V22.4634ZM29.8067 43.1919L12.7181 53.0811V35.0549L29.8067 25.187V43.1919Z" fill="#F0F0F0"/>
<path d="M29.8067 43.1919L28.9752 42.6956V25.6749L29.8067 25.187V43.1919Z" fill="#E0E0E0"/>
<path d="M31.3806 22.4636L30.5321 21.98L10.2999 33.6637L11.1442 34.1473L31.3806 22.4636Z" fill="#FAFAFA"/>
<path d="M10.2999 33.6636L11.1442 34.1472V55.7794L10.2999 55.2958V33.6636Z" fill="#E0E0E0"/>
<path d="M28.3389 42.1869L13.3503 50.8373V46.51L17.1007 37.8596L19.434 40.0233L18.594 43.6506L23.7698 32.582L28.3389 37.8596V42.1869Z" fill="#F0F0F0"/>
<path d="M19.294 33.6803C18.9707 33.8897 18.7015 34.1725 18.5083 34.5058C18.3152 34.839 18.2035 35.2132 18.1825 35.5978C18.1825 36.3063 18.6789 36.5948 19.294 36.2385C19.6161 36.0281 19.8841 35.7449 20.0764 35.4118C20.2688 35.0786 20.3801 34.705 20.4013 34.3209C20.4013 33.6124 19.9049 33.3281 19.294 33.6803Z" fill="#F0F0F0"/>
<path d="M40.8837 30.5842L41.7194 31.0806L58.808 21.2127L57.9765 20.7163L40.8837 30.5842Z" fill="#FAFAFA"/>
<path d="M57.9765 20.716L41.7195 30.1002V13.0753L57.9765 3.69531V20.716Z" fill="white"/>
<path d="M60.3819 0.475098L40.1455 12.1588V33.7952L60.3819 22.1115V0.475098ZM58.808 21.2037L41.7195 31.08V13.0751L58.808 3.20723V21.2037Z" fill="#F0F0F0"/>
<path d="M58.8081 21.2119L57.9766 20.7156V3.69491L58.8081 3.20703V21.2119Z" fill="#E0E0E0"/>
<path d="M60.3819 0.483639L59.5335 0L39.3013 11.6837L40.1455 12.1673L60.3819 0.483639Z" fill="#FAFAFA"/>
<path d="M39.3013 11.6836L40.1455 12.1672V33.8037L39.3013 33.3158V11.6836Z" fill="#E0E0E0"/>
<path d="M57.3443 20.2069L42.3516 28.8615V24.5342L46.1019 15.8796L48.4352 18.0433L47.5952 21.6706L52.771 10.6021L57.3443 15.8796V20.2069Z" fill="#F0F0F0"/>
<path d="M48.2952 11.7009C47.9713 11.9117 47.7018 12.196 47.5086 12.5307C47.3154 12.8655 47.2041 13.2411 47.1837 13.627C47.1837 14.3313 47.6801 14.6197 48.2952 14.2676C48.6165 14.0574 48.884 13.7748 49.0763 13.4426C49.2686 13.1103 49.3803 12.7375 49.4025 12.3543C49.4025 11.6331 48.9061 11.3488 48.2952 11.7009Z" fill="#F0F0F0"/>
<path d="M191.015 72.0828L189.683 72.8762L139.801 43.947L141.137 43.1494L191.015 72.0828Z" fill="#FAFAFA"/>
<path d="M141.137 43.1496L189.683 71.3067V34.0665L141.137 5.91797V43.1496Z" fill="white"/>
<path d="M165.37 18.5645V57.3701L162.854 55.9192V17.1094L165.37 18.5645Z" fill="#F0F0F0"/>
<path d="M166.63 17.8354L165.37 18.5651V57.3707L166.63 56.641V17.8354Z" fill="#E0E0E0"/>
<path d="M137.285 45.3983L192.199 77.2378V32.6159L137.285 0.776367V45.3983ZM139.8 5.14184L189.683 34.071V72.8808L139.8 43.9474V5.14184Z" fill="#F0F0F0"/>
<path d="M139.801 43.9475L141.137 43.1499V5.9183L139.801 5.1377V43.9475Z" fill="#E0E0E0"/>
<path d="M137.285 0.776366L138.638 0L193.552 31.8395L192.199 32.6159L137.285 0.776366Z" fill="#FAFAFA"/>
<path d="M193.552 31.8394L192.199 32.6157V77.2377L193.552 76.4613V31.8394Z" fill="#E0E0E0"/>
<path d="M165.37 20.0121L162.858 18.5654V20.0163L165.37 21.4673V20.0121Z" fill="#E0E0E0"/>
<path opacity="0.15" d="M165.37 21.4664L166.63 20.7409L165.37 20.0112V21.4664Z" fill="black"/>
<path d="M24.4612 129.925L20.677 132.101L19.0818 133.022C18.9503 131.711 18.5854 128.304 18.1018 124.605C17.4188 119.425 16.5788 115.772 14.7545 112.251C13.1042 109.056 10.6521 105.972 6.77448 101.946C1.03022 95.977 2.98175 90.237 7.89025 89.8679C15.9 89.2612 20.923 96.8807 23.4982 105.429C25.7679 112.9 25.4836 123.977 24.4612 129.925Z" fill="#E0E0E0"/>
<path d="M22.0896 131.117H22.0557C21.9719 131.107 21.8953 131.065 21.8428 130.999C21.7903 130.933 21.7661 130.849 21.7757 130.765C23.7145 112.679 16.9732 99.1078 9.43442 93.6775C9.36579 93.628 9.31963 93.5532 9.3061 93.4697C9.29258 93.3862 9.3128 93.3007 9.3623 93.232C9.41181 93.1634 9.48655 93.1172 9.57009 93.1037C9.65363 93.0902 9.73912 93.1104 9.80776 93.1599C17.4951 98.6963 24.372 112.493 22.4078 130.833C22.3994 130.911 22.3622 130.984 22.3034 131.036C22.2446 131.089 22.1684 131.117 22.0896 131.117V131.117Z" fill="white"/>
<path d="M20.6769 132.101L19.0817 133.022L17.2405 134.112C16.8163 130.718 15.4629 125.674 11.5005 121.762C6.96957 117.295 1.18288 114.881 0.164696 110.961C-0.802581 107.24 2.5744 104.547 8.09806 106.485C10.7604 107.481 13.0931 109.198 14.835 111.445C18.789 116.374 21.2751 124.38 20.6769 132.101Z" fill="#EBEBEB"/>
<path d="M19.0817 133.136C18.9977 133.134 18.9178 133.099 18.8592 133.039C18.8006 132.979 18.7678 132.898 18.7678 132.814C18.8951 121.262 12.1156 112.764 5.33623 109.481C5.26028 109.443 5.20219 109.378 5.17474 109.298C5.14729 109.218 5.15273 109.13 5.18986 109.054C5.22699 108.978 5.29277 108.92 5.37273 108.893C5.45269 108.865 5.54028 108.871 5.61623 108.908C12.5738 112.302 19.5314 121.007 19.4042 132.835C19.3988 132.917 19.3624 132.994 19.3025 133.05C19.2426 133.106 19.1637 133.137 19.0817 133.136V133.136Z" fill="white"/>
<path d="M145.26 118.729C145.271 118.61 145.313 118.497 145.383 118.4C145.452 118.303 145.546 118.226 145.655 118.178C145.951 118.028 146.278 117.951 146.609 117.951C146.941 117.951 147.268 118.028 147.564 118.178C147.673 118.226 147.767 118.303 147.837 118.4C147.907 118.497 147.951 118.61 147.963 118.729L143.152 135.521C143.142 135.603 143.111 135.682 143.062 135.749C143.013 135.816 142.948 135.869 142.872 135.903C142.663 136.009 142.432 136.065 142.197 136.065C141.963 136.065 141.732 136.009 141.523 135.903C141.447 135.869 141.381 135.816 141.332 135.749C141.283 135.682 141.252 135.603 141.243 135.521V135.521L145.26 118.729Z" fill="#455A64"/>
<path d="M182.356 118.729C182.345 118.61 182.303 118.496 182.234 118.399C182.165 118.302 182.071 118.226 181.962 118.177C181.665 118.027 181.337 117.949 181.005 117.949C180.673 117.949 180.345 118.027 180.048 118.177C179.939 118.226 179.846 118.302 179.776 118.399C179.707 118.496 179.665 118.61 179.654 118.729L184.465 135.52C184.474 135.603 184.505 135.681 184.554 135.748C184.603 135.815 184.669 135.868 184.745 135.902C184.954 136.009 185.185 136.064 185.419 136.064C185.654 136.064 185.885 136.009 186.094 135.902C186.17 135.868 186.235 135.815 186.284 135.748C186.333 135.681 186.364 135.603 186.374 135.52V135.52L182.356 118.729Z" fill="#455A64"/>
<path d="M165.344 120.88C165.333 120.761 165.291 120.647 165.222 120.55C165.152 120.453 165.058 120.377 164.949 120.328C164.653 120.178 164.325 120.1 163.993 120.1C163.66 120.1 163.333 120.178 163.036 120.328C162.927 120.377 162.833 120.453 162.764 120.55C162.695 120.647 162.652 120.761 162.642 120.88L163.036 143.059C163.045 143.141 163.075 143.218 163.124 143.284C163.172 143.351 163.237 143.403 163.312 143.437C163.522 143.543 163.753 143.599 163.989 143.599C164.224 143.599 164.456 143.543 164.665 143.437C164.74 143.403 164.805 143.351 164.853 143.284C164.902 143.218 164.932 143.141 164.941 143.059V143.059L165.344 120.88Z" fill="#455A64"/>
<path d="M188.185 109.374C188.185 105.798 185.843 102.222 181.113 99.4895C171.657 94.0295 156.329 94.0295 146.872 99.4895C142.142 102.222 139.8 105.798 139.804 109.374H139.779V111.296C139.838 114.826 142.205 118.347 146.872 121.054C156.329 126.514 171.657 126.514 181.113 121.054C185.78 118.36 188.151 114.839 188.206 111.296L188.185 109.374Z" fill="#5956E9"/>
<path opacity="0.3" d="M188.185 109.374C188.185 105.798 185.843 102.222 181.113 99.4895C171.657 94.0295 156.329 94.0295 146.872 99.4895C142.142 102.222 139.8 105.798 139.804 109.374H139.779V111.296C139.838 114.826 142.205 118.347 146.872 121.054C156.329 126.514 171.657 126.514 181.113 121.054C185.78 118.36 188.151 114.839 188.206 111.296L188.185 109.374Z" fill="white"/>
<path d="M146.851 99.4895C137.395 104.95 137.395 113.799 146.851 119.259C156.307 124.719 171.635 124.719 181.092 119.259C190.548 113.799 190.548 104.95 181.092 99.4895C171.635 94.0295 156.307 94.0295 146.851 99.4895Z" fill="#5956E9"/>
<path opacity="0.6" d="M146.851 99.4895C137.395 104.95 137.395 113.799 146.851 119.259C156.307 124.719 171.635 124.719 181.092 119.259C190.548 113.799 190.548 104.95 181.092 99.4895C171.635 94.0295 156.307 94.0295 146.851 99.4895Z" fill="white"/>
<path opacity="0.15" d="M148.904 109.545L165.938 119.379C166.452 119.64 167.02 119.777 167.596 119.777C168.173 119.777 168.741 119.64 169.255 119.379L180.472 112.901C181.389 112.374 181.389 111.518 180.472 110.987L163.439 101.153C162.925 100.892 162.357 100.755 161.78 100.755C161.204 100.755 160.635 100.892 160.121 101.153L148.904 107.627C147.988 108.157 147.988 109.014 148.904 109.545Z" fill="black"/>
<path d="M179.764 111.262L167.482 118.267L150.152 108.327L162.429 101.322L179.764 111.262Z" fill="black"/>
<path d="M167.342 117.732L179.187 110.944C178.88 109.939 178.902 108.861 179.25 107.869L167.465 114.597C167.465 114.597 167.257 115.331 167.342 117.732Z" fill="#F5F5F5"/>
<path d="M168.084 113.629C167.754 113.843 167.478 114.132 167.281 114.473C167.083 114.814 166.969 115.196 166.947 115.589V117.88C166.947 118.601 167.456 118.894 168.084 118.534L179.768 111.831V111.262L168.245 117.834C167.868 118.05 167.562 117.876 167.562 117.439V115.318C167.576 115.082 167.644 114.853 167.763 114.648C167.882 114.444 168.047 114.271 168.245 114.143L179.768 107.571V106.926L168.084 113.629Z" fill="#263238"/>
<path d="M179.768 106.931L162.429 96.9907L150.754 103.69C150.423 103.904 150.148 104.193 149.951 104.533C149.753 104.874 149.639 105.256 149.617 105.65V107.94C149.602 108.081 149.625 108.222 149.684 108.35C149.742 108.478 149.833 108.589 149.948 108.67L167.283 118.61C167.167 118.53 167.074 118.42 167.015 118.291C166.956 118.163 166.933 118.021 166.947 117.88V115.59C166.97 115.196 167.085 114.813 167.283 114.473C167.482 114.132 167.758 113.843 168.089 113.63L179.768 106.931Z" fill="#455A64"/>
<path d="M167.278 114.473C167.074 114.811 166.958 115.195 166.943 115.589V117.88C166.929 118.02 166.952 118.162 167.011 118.291C167.07 118.419 167.162 118.529 167.278 118.61L149.948 108.657C149.833 108.576 149.742 108.465 149.684 108.337C149.625 108.209 149.602 108.067 149.617 107.927V105.636C149.631 105.242 149.745 104.859 149.948 104.521L167.278 114.473Z" fill="#37474F"/>
<path d="M101.707 15.1073C102.384 15.4189 103.013 15.8261 103.574 16.3164C104.114 16.778 104.567 17.3326 104.911 17.954C105.239 18.5497 105.435 19.2098 105.483 19.8885C105.526 20.6135 105.38 21.3371 105.059 21.9885C104.829 22.5124 104.497 22.9854 104.083 23.3801C103.715 23.7208 103.299 24.0066 102.849 24.2286C102.411 24.4393 101.955 24.6097 101.487 24.7376L100.167 25.1067C99.7695 25.2133 99.3819 25.3553 99.0093 25.531C98.6768 25.6862 98.3946 25.9317 98.1947 26.2395C98.0973 26.3813 97.9621 26.493 97.8044 26.5619C97.7311 26.5975 97.6506 26.6161 97.569 26.6161C97.4874 26.6161 97.4069 26.5975 97.3335 26.5619L95.6747 25.794C95.5149 25.7192 95.3902 25.5854 95.3269 25.4207C95.2927 25.3429 95.2775 25.258 95.2827 25.1731C95.2878 25.0883 95.3132 25.0059 95.3566 24.9328C95.6121 24.4225 95.9703 23.9704 96.4087 23.6049C96.8029 23.2786 97.2396 23.0074 97.7069 22.7989C98.1548 22.5988 98.6189 22.437 99.0941 22.3152C99.5651 22.1964 100.006 22.0776 100.414 21.9588C100.786 21.8574 101.146 21.7151 101.487 21.5346C101.783 21.3783 102.02 21.1295 102.161 20.8261C102.29 20.5592 102.351 20.265 102.339 19.9692C102.327 19.6733 102.243 19.3849 102.094 19.1291C101.727 18.4986 101.161 18.0077 100.486 17.7334C99.2469 17.1677 98.0505 17.3657 96.8966 18.3273C96.782 18.4359 96.6482 18.5222 96.502 18.5819C96.3463 18.6207 96.1816 18.5963 96.0438 18.514L94.2747 17.6994C94.2118 17.6722 94.155 17.6326 94.1077 17.5831C94.0603 17.5335 94.0233 17.475 93.999 17.411C93.9676 17.3446 93.9514 17.2722 93.9514 17.1988C93.9514 17.1255 93.9676 17.053 93.999 16.9867C94.2811 16.4493 94.6903 15.989 95.1911 15.6461C95.7552 15.2411 96.3874 14.9408 97.0578 14.7594C97.7927 14.5606 98.5544 14.479 99.3147 14.5176C100.143 14.5546 100.957 14.755 101.707 15.1073V15.1073ZM96.8626 27.9067C96.9402 27.9422 97.0097 27.9932 97.0666 28.0567C97.1235 28.1203 97.1668 28.1948 97.1935 28.2758C97.2282 28.3532 97.2461 28.4371 97.2461 28.5219C97.2461 28.6067 97.2282 28.6906 97.1935 28.768L96.3069 30.6898C96.234 30.8422 96.105 30.9606 95.9467 31.0199C95.7885 31.0792 95.6135 31.0749 95.4584 31.008L93.579 30.1595C93.428 30.0851 93.3113 29.9557 93.2529 29.7978C93.1945 29.64 93.1988 29.4657 93.265 29.311L94.1517 27.3892C94.2245 27.2367 94.3538 27.1186 94.5122 27.06C94.6707 27.0014 94.8457 27.0069 95.0002 27.0752L96.8626 27.9067Z" fill="#5956E9"/>
<path d="M101.029 37.809C101.514 37.9767 101.973 38.2139 102.39 38.5132C102.792 38.7941 103.14 39.1447 103.417 39.5484C103.68 39.9307 103.857 40.3646 103.939 40.8211C103.999 41.2642 103.966 41.715 103.842 42.1445C103.718 42.5741 103.505 42.973 103.218 43.3157C102.987 43.57 102.722 43.79 102.429 43.969C102.141 44.1372 101.838 44.2792 101.525 44.3932L100.643 44.7326C100.377 44.8345 100.121 44.9609 99.8789 45.1102C99.66 45.2372 99.4819 45.4241 99.3656 45.649C99.3074 45.7529 99.2225 45.8394 99.1195 45.8993C99.07 45.9264 99.0153 45.9427 98.959 45.9471C98.9026 45.9515 98.846 45.9439 98.7929 45.9248L97.6008 45.5005C97.4871 45.4581 97.3933 45.3749 97.3377 45.2672C97.3106 45.2147 97.2964 45.1565 97.2964 45.0975C97.2964 45.0384 97.3106 44.9802 97.3377 44.9278C97.4818 44.5617 97.6983 44.2284 97.9741 43.9478C98.2279 43.6983 98.5131 43.483 98.8226 43.3072C99.1188 43.1408 99.4281 42.9989 99.7474 42.8829C100.061 42.7684 100.354 42.6581 100.63 42.5478C100.879 42.453 101.117 42.3306 101.338 42.1829C101.534 42.0556 101.683 41.868 101.763 41.6484C101.83 41.4571 101.85 41.2526 101.822 41.0519C101.794 40.8512 101.718 40.66 101.601 40.4944C101.308 40.0861 100.887 39.7874 100.405 39.6459C99.9832 39.4915 99.5241 39.4705 99.09 39.5859C98.6559 39.7012 98.2678 39.9473 97.9783 40.2908C97.9054 40.3723 97.8194 40.4412 97.7238 40.4944C97.6217 40.5357 97.5076 40.5357 97.4056 40.4944L96.1329 40.0702C96.0871 40.0554 96.0448 40.0317 96.0084 40.0004C95.972 39.9691 95.9422 39.9308 95.9207 39.8878C95.8996 39.8434 95.8887 39.7948 95.8887 39.7456C95.8887 39.6965 95.8996 39.6479 95.9207 39.6035C96.0708 39.2234 96.3093 38.8845 96.6165 38.615C96.9776 38.2984 97.3929 38.0498 97.8426 37.8811C98.3342 37.6936 98.8527 37.5862 99.3783 37.5629C99.9391 37.5379 100.5 37.6215 101.029 37.809ZM98.5426 46.926C98.6543 46.9658 98.7458 47.0481 98.7971 47.1551C98.8245 47.2077 98.8405 47.2654 98.8442 47.3246C98.8478 47.3838 98.839 47.4431 98.8183 47.4987L98.3347 48.8775C98.3163 48.9335 98.2864 48.9851 98.247 49.0289C98.2075 49.0727 98.1594 49.1079 98.1056 49.132C97.9982 49.1835 97.8749 49.1911 97.762 49.1533L96.4171 48.6781C96.3615 48.6602 96.3102 48.6309 96.2664 48.5923C96.2226 48.5536 96.1872 48.5062 96.1626 48.4532C96.1352 48.4006 96.1192 48.3429 96.1155 48.2837C96.1119 48.2245 96.1207 48.1652 96.1414 48.1096L96.6165 46.7181C96.6349 46.6621 96.6648 46.6105 96.7042 46.5667C96.7437 46.5228 96.7918 46.4877 96.8456 46.4635C96.8976 46.4368 96.9547 46.4211 97.0131 46.4174C97.0715 46.4138 97.13 46.4223 97.185 46.4423L98.5426 46.926Z" fill="#5956E9"/>
<g opacity="0.2">
<path d="M101.029 37.809C101.514 37.9767 101.973 38.2139 102.39 38.5132C102.792 38.7941 103.14 39.1447 103.417 39.5484C103.68 39.9307 103.857 40.3646 103.939 40.8211C103.999 41.2642 103.966 41.715 103.842 42.1445C103.718 42.5741 103.505 42.973 103.218 43.3157C102.987 43.57 102.722 43.79 102.429 43.969C102.141 44.1372 101.838 44.2792 101.525 44.3932L100.643 44.7326C100.377 44.8345 100.121 44.9609 99.8789 45.1102C99.66 45.2372 99.4819 45.4241 99.3656 45.649C99.3074 45.7529 99.2225 45.8394 99.1195 45.8993C99.07 45.9264 99.0153 45.9427 98.959 45.9471C98.9026 45.9515 98.846 45.9439 98.7929 45.9248L97.6008 45.5005C97.4871 45.4581 97.3933 45.3749 97.3377 45.2672C97.3106 45.2147 97.2964 45.1565 97.2964 45.0975C97.2964 45.0384 97.3106 44.9802 97.3377 44.9278C97.4818 44.5617 97.6983 44.2284 97.9741 43.9478C98.2279 43.6983 98.5131 43.483 98.8226 43.3072C99.1188 43.1408 99.4281 42.9989 99.7474 42.8829C100.061 42.7684 100.354 42.6581 100.63 42.5478C100.879 42.453 101.117 42.3306 101.338 42.1829C101.534 42.0556 101.683 41.868 101.763 41.6484C101.83 41.4571 101.85 41.2526 101.822 41.0519C101.794 40.8512 101.718 40.66 101.601 40.4944C101.308 40.0861 100.887 39.7874 100.405 39.6459C99.9832 39.4915 99.5241 39.4705 99.09 39.5859C98.6559 39.7012 98.2678 39.9473 97.9783 40.2908C97.9054 40.3723 97.8194 40.4412 97.7238 40.4944C97.6217 40.5357 97.5076 40.5357 97.4056 40.4944L96.1329 40.0702C96.0871 40.0554 96.0448 40.0317 96.0084 40.0004C95.972 39.9691 95.9422 39.9308 95.9207 39.8878C95.8996 39.8434 95.8887 39.7948 95.8887 39.7456C95.8887 39.6965 95.8996 39.6479 95.9207 39.6035C96.0708 39.2234 96.3093 38.8845 96.6165 38.615C96.9776 38.2984 97.3929 38.0498 97.8426 37.8811C98.3342 37.6936 98.8527 37.5862 99.3783 37.5629C99.9391 37.5379 100.5 37.6215 101.029 37.809ZM98.5426 46.926C98.6543 46.9658 98.7458 47.0481 98.7971 47.1551C98.8245 47.2077 98.8405 47.2654 98.8442 47.3246C98.8478 47.3838 98.839 47.4431 98.8183 47.4987L98.3347 48.8775C98.3163 48.9335 98.2864 48.9851 98.247 49.0289C98.2075 49.0727 98.1594 49.1079 98.1056 49.132C97.9982 49.1835 97.8749 49.1911 97.762 49.1533L96.4171 48.6781C96.3615 48.6602 96.3102 48.6309 96.2664 48.5923C96.2226 48.5536 96.1872 48.5062 96.1626 48.4532C96.1352 48.4006 96.1192 48.3429 96.1155 48.2837C96.1119 48.2245 96.1207 48.1652 96.1414 48.1096L96.6165 46.7181C96.6349 46.6621 96.6648 46.6105 96.7042 46.5667C96.7437 46.5228 96.7918 46.4877 96.8456 46.4635C96.8976 46.4368 96.9547 46.4211 97.0131 46.4174C97.0715 46.4138 97.13 46.4223 97.185 46.4423L98.5426 46.926Z" fill="black"/>
</g>
<path d="M116.675 39.506C116.744 39.511 116.812 39.5301 116.874 39.5622C116.936 39.5943 116.991 39.6387 117.035 39.6927C117.082 39.7447 117.118 39.8059 117.139 39.8723C117.161 39.9388 117.169 40.0091 117.162 40.0787L117.031 41.8012C117.028 41.8712 117.009 41.9396 116.977 42.0018C116.945 42.064 116.899 42.1186 116.844 42.1618C116.793 42.2086 116.733 42.2444 116.667 42.267C116.601 42.2896 116.532 42.2986 116.462 42.2933L114.766 42.1618C114.625 42.1509 114.495 42.085 114.404 41.9784C114.313 41.8718 114.267 41.7333 114.278 41.5933L114.409 39.8666C114.414 39.797 114.433 39.7291 114.465 39.6671C114.497 39.6051 114.542 39.5503 114.596 39.506C114.647 39.4597 114.708 39.4246 114.773 39.4027C114.839 39.3808 114.909 39.3726 114.978 39.3787L116.675 39.506ZM116.738 28.3102C117.345 28.3538 117.942 28.4853 118.512 28.7005C119.058 28.9002 119.563 29.1962 120.005 29.5745C120.427 29.9374 120.766 30.3875 120.998 30.8939C121.242 31.4347 121.34 32.03 121.282 32.6205C121.257 33.0876 121.139 33.5448 120.934 33.9654C120.748 34.3282 120.509 34.6614 120.226 34.9539C119.952 35.2409 119.652 35.5022 119.33 35.7345L118.418 36.3963C118.146 36.5934 117.891 36.815 117.659 37.0581C117.449 37.2731 117.302 37.5417 117.235 37.8345C117.199 37.9704 117.129 38.0948 117.031 38.1951C116.985 38.2437 116.927 38.2806 116.864 38.3027C116.8 38.3248 116.733 38.3316 116.666 38.3224L115.177 38.2078C115.034 38.198 114.9 38.1325 114.804 38.0254C114.753 37.976 114.716 37.9148 114.695 37.8474C114.675 37.78 114.671 37.7085 114.685 37.6393C114.736 37.1754 114.88 36.7265 115.109 36.3199C115.318 35.9589 115.575 35.6278 115.873 35.3357C116.159 35.053 116.47 34.796 116.802 34.5678C117.124 34.343 117.43 34.1436 117.706 33.9145C117.961 33.7286 118.196 33.5152 118.406 33.2781C118.586 33.0735 118.696 32.8161 118.719 32.5442C118.74 32.3046 118.703 32.0634 118.61 31.8417C118.516 31.6199 118.371 31.4242 118.185 31.2714C117.725 30.892 117.152 30.6756 116.556 30.6563C115.444 30.5714 114.583 31.0805 113.976 32.1369C113.918 32.2523 113.841 32.357 113.747 32.4466C113.637 32.5189 113.504 32.5476 113.374 32.5272L111.787 32.4042C111.731 32.4017 111.676 32.3881 111.625 32.3641C111.574 32.34 111.528 32.3061 111.49 32.2642C111.452 32.2203 111.423 32.169 111.406 32.1135C111.388 32.0581 111.382 31.9996 111.389 31.9417C111.449 31.4489 111.63 30.9784 111.915 30.5714C112.233 30.1009 112.633 29.6902 113.094 29.3581C113.598 28.9884 114.158 28.7019 114.753 28.5096C115.395 28.3127 116.069 28.2435 116.738 28.306V28.3102Z" fill="#5956E9"/>
<g opacity="0.3">
<path d="M116.675 39.506C116.744 39.511 116.812 39.5301 116.874 39.5622C116.936 39.5943 116.991 39.6387 117.035 39.6927C117.082 39.7447 117.118 39.8059 117.139 39.8723C117.161 39.9388 117.169 40.0091 117.162 40.0787L117.031 41.8012C117.028 41.8712 117.009 41.9396 116.977 42.0018C116.945 42.064 116.899 42.1186 116.844 42.1618C116.793 42.2086 116.733 42.2444 116.667 42.267C116.601 42.2896 116.532 42.2986 116.462 42.2933L114.766 42.1618C114.625 42.1509 114.495 42.085 114.404 41.9784C114.313 41.8718 114.267 41.7333 114.278 41.5933L114.409 39.8666C114.414 39.797 114.433 39.7291 114.465 39.6671C114.497 39.6051 114.542 39.5503 114.596 39.506C114.647 39.4597 114.708 39.4246 114.773 39.4027C114.839 39.3808 114.909 39.3726 114.978 39.3787L116.675 39.506ZM116.738 28.3102C117.345 28.3538 117.942 28.4853 118.512 28.7005C119.058 28.9002 119.563 29.1962 120.005 29.5745C120.427 29.9374 120.766 30.3875 120.998 30.8939C121.242 31.4347 121.34 32.03 121.282 32.6205C121.257 33.0876 121.139 33.5448 120.934 33.9654C120.748 34.3282 120.509 34.6614 120.226 34.9539C119.952 35.2409 119.652 35.5022 119.33 35.7345L118.418 36.3963C118.146 36.5934 117.891 36.815 117.659 37.0581C117.449 37.2731 117.302 37.5417 117.235 37.8345C117.199 37.9704 117.129 38.0948 117.031 38.1951C116.985 38.2437 116.927 38.2806 116.864 38.3027C116.8 38.3248 116.733 38.3316 116.666 38.3224L115.177 38.2078C115.034 38.198 114.9 38.1325 114.804 38.0254C114.753 37.976 114.716 37.9148 114.695 37.8474C114.675 37.78 114.671 37.7085 114.685 37.6393C114.736 37.1754 114.88 36.7265 115.109 36.3199C115.318 35.9589 115.575 35.6278 115.873 35.3357C116.159 35.053 116.47 34.796 116.802 34.5678C117.124 34.343 117.43 34.1436 117.706 33.9145C117.961 33.7286 118.196 33.5152 118.406 33.2781C118.586 33.0735 118.696 32.8161 118.719 32.5442C118.74 32.3046 118.703 32.0634 118.61 31.8417C118.516 31.6199 118.371 31.4242 118.185 31.2714C117.725 30.892 117.152 30.6756 116.556 30.6563C115.444 30.5714 114.583 31.0805 113.976 32.1369C113.918 32.2523 113.841 32.357 113.747 32.4466C113.637 32.5189 113.504 32.5476 113.374 32.5272L111.787 32.4042C111.731 32.4017 111.676 32.3881 111.625 32.3641C111.574 32.34 111.528 32.3061 111.49 32.2642C111.452 32.2203 111.423 32.169 111.406 32.1135C111.388 32.0581 111.382 31.9996 111.389 31.9417C111.449 31.4489 111.63 30.9784 111.915 30.5714C112.233 30.1009 112.633 29.6902 113.094 29.3581C113.598 28.9884 114.158 28.7019 114.753 28.5096C115.395 28.3127 116.069 28.2435 116.738 28.306V28.3102Z" fill="white"/>
</g>
<path d="M119.101 116.133C119.342 117.569 119.138 119.044 118.518 120.362C117.898 121.679 116.891 122.776 115.631 123.506L74.98 144.718L74.8612 147.064L72.9861 148.112L75.3746 149.487L120.344 123.46L119.101 116.133Z" fill="#5956E9"/>
<path d="M77.4365 59.7207L67.0425 65.7195L111.367 93.7451C112.769 94.6331 113.968 95.8065 114.886 97.1887C115.804 98.571 116.421 100.131 116.696 101.768L123.153 143.564C123.172 143.679 123.219 143.788 123.289 143.881C123.36 143.974 123.452 144.048 123.557 144.098C123.663 144.147 123.779 144.171 123.895 144.166C124.012 144.161 124.125 144.127 124.226 144.069C124.468 143.933 124.608 143.645 124.523 142.648L120.832 98.2336C120.624 95.7263 119.025 92.7184 116.471 90.7075L77.4365 59.7207Z" fill="#5956E9"/>
<path opacity="0.1" d="M77.4365 59.7207L67.0425 65.7195L111.367 93.7451C112.769 94.6331 113.968 95.8065 114.886 97.1887C115.804 98.571 116.421 100.131 116.696 101.768L123.153 143.564C123.172 143.679 123.219 143.788 123.289 143.881C123.36 143.974 123.452 144.048 123.557 144.098C123.663 144.147 123.779 144.171 123.895 144.166C124.012 144.161 124.125 144.127 124.226 144.069C124.468 143.933 124.608 143.645 124.523 142.648L120.832 98.2336C120.624 95.7263 119.025 92.7184 116.471 90.7075L77.4365 59.7207Z" fill="black"/>
<path d="M119.526 118.666C119.76 120.07 119.56 121.513 118.954 122.801C118.347 124.089 117.363 125.163 116.132 125.878L78.1831 147.807L80.2068 151.994L116.861 130.829C117.344 130.552 117.887 130.396 118.443 130.375C119 130.354 119.553 130.468 120.055 130.708C120.557 130.947 120.994 131.305 121.329 131.75C121.663 132.195 121.884 132.714 121.974 133.264L119.526 118.666Z" fill="#5956E9"/>
<path opacity="0.1" d="M119.526 118.666C119.76 120.07 119.56 121.513 118.954 122.801C118.347 124.089 117.363 125.163 116.132 125.878L78.1831 147.807L80.2068 151.994L116.861 130.829C117.344 130.552 117.887 130.396 118.443 130.375C119 130.354 119.553 130.468 120.055 130.708C120.557 130.947 120.994 131.305 121.329 131.75C121.663 132.195 121.884 132.714 121.974 133.264L119.526 118.666Z" fill="black"/>
<path d="M72.3371 147.828L71.8238 144.773L33.4976 122.658L38.1642 119.972L35.8394 118.632L34.1 119.637C33.4662 120.009 32.7306 120.171 31.9991 120.099C31.2676 120.027 30.5779 119.724 30.029 119.235C29.4802 118.746 29.1006 118.096 28.9447 117.378C28.7889 116.659 28.8649 115.91 29.1618 115.238L29.323 114.864L29.0685 115.45L25.5981 123.447L28.6145 125.462L31.16 123.99L72.3371 147.828Z" fill="#5956E9"/>
<path d="M72.8334 145.354L33.6502 122.712C32.9277 122.242 32.3266 121.608 31.8961 120.861C31.4655 120.114 31.2176 119.276 31.1726 118.415V116.107C31.2182 115.247 31.4665 114.411 31.897 113.665C32.3276 112.92 32.9283 112.287 33.6502 111.818L72.8334 89.1929C73.6005 88.8038 74.4486 88.6011 75.3088 88.6011C76.169 88.6011 77.0171 88.8038 77.7843 89.1929L116.98 111.826C117.701 112.296 118.3 112.93 118.73 113.675C119.16 114.42 119.408 115.256 119.454 116.115V118.453C119.407 119.312 119.159 120.148 118.729 120.893C118.299 121.638 117.7 122.272 116.98 122.742L77.7928 145.354C77.0245 145.745 76.1749 145.948 75.3131 145.948C74.4513 145.948 73.6016 145.745 72.8334 145.354Z" fill="#455A64"/>
<path d="M73.5588 145.668C73.3071 145.587 73.0641 145.48 72.8334 145.35L33.6502 122.712C32.929 122.241 32.3291 121.606 31.8994 120.86C31.4696 120.113 31.2221 119.275 31.1769 118.415V116.103C31.221 115.34 31.422 114.595 31.7673 113.914C32.1126 113.233 32.5947 112.631 33.1836 112.145C32.3054 112.934 32.4623 113.986 33.6502 114.69L72.6467 137.209L73.5588 145.668Z" fill="#263238"/>
<path d="M119.445 116.111V118.453C119.401 119.312 119.155 120.148 118.726 120.893C118.298 121.638 117.7 122.272 116.98 122.742L77.797 145.355C77.1456 145.684 76.4351 145.882 75.7069 145.935C74.9786 145.988 74.247 145.896 73.5546 145.664L72.6425 137.179L72.8291 137.285C73.5957 137.676 74.444 137.88 75.3046 137.88C76.1652 137.88 77.0135 137.676 77.78 137.285L116.98 114.682C118.177 113.999 118.329 112.938 117.447 112.136C118.037 112.625 118.519 113.23 118.863 113.914C119.207 114.598 119.405 115.347 119.445 116.111V116.111Z" fill="#37474F"/>
<path d="M86.774 97.2454L47.5866 119.87C46.6966 120.342 45.6873 120.541 44.6848 120.443C44.5363 120.443 44.3921 120.418 44.2605 120.396H44.1714L43.9127 120.35H43.8787C43.7481 120.324 43.6191 120.29 43.4927 120.248C43.1961 120.165 42.911 120.045 42.6442 119.892L40.6163 118.708C39.1186 117.727 38.0553 116.208 37.6466 114.465L31.7072 81.2048C31.673 81.0001 31.656 80.7929 31.6563 80.5854C31.6563 80.5048 31.6563 80.4242 31.6563 80.3436C31.69 79.9271 31.7813 79.5173 31.9278 79.126C32.1886 78.4037 32.6331 77.7618 33.2175 77.2635L33.3872 77.1363C33.4716 77.0748 33.5594 77.0182 33.6502 76.9666L72.8334 54.3416C73.6015 53.9558 74.4492 53.7549 75.3088 53.7549C76.1684 53.7549 77.0161 53.9558 77.7843 54.3416L79.7994 55.5083C80.24 55.7736 80.6412 56.0992 80.9916 56.4756L81.191 56.6962C81.4576 57.0012 81.6988 57.3276 81.9122 57.672C81.9628 57.7429 82.0095 57.8166 82.0522 57.8926L82.1625 58.092L82.3152 58.3847C82.3619 58.4823 82.4086 58.5798 82.4467 58.6774C82.4849 58.775 82.5146 58.8429 82.5443 58.9235C82.5635 58.9615 82.5791 59.0013 82.591 59.0423C82.6164 59.1144 82.6376 59.1865 82.6589 59.2586C82.6801 59.3308 82.714 59.4495 82.7352 59.5429C82.7544 59.6113 82.7699 59.6807 82.7819 59.7508L88.7425 93.02C88.8493 93.8385 88.7209 94.6705 88.3723 95.4188C88.0237 96.167 87.4694 96.8006 86.774 97.2454V97.2454Z" fill="#455A64"/>
<path d="M38.6479 85.2219L44.5873 118.487C44.8631 120.04 46.1994 120.663 47.557 119.87L86.7402 97.2493C87.4384 96.8029 87.9949 96.1667 88.3443 95.4153C88.6937 94.6639 88.8216 93.8284 88.7129 93.0068L82.7523 59.7461C82.4765 58.1891 81.1402 57.5697 79.7826 58.3588L40.6164 80.9795C39.9186 81.426 39.3626 82.0624 39.014 82.8139C38.6653 83.5654 38.5383 84.4008 38.6479 85.2219Z" fill="#37474F"/>
<path d="M46.5769 120.273C45.9593 120.43 45.3205 120.488 44.6848 120.443C44.5363 120.443 44.3921 120.418 44.2605 120.396C44.129 120.375 44.0314 120.362 43.9127 120.337H43.8787C43.7481 120.311 43.6191 120.277 43.4927 120.235C43.1961 120.152 42.911 120.033 42.6442 119.879L40.6163 118.708C39.1186 117.727 38.0553 116.208 37.6466 114.465L31.7072 81.2048C31.673 81.0001 31.656 80.7929 31.6563 80.5854C31.6563 80.5048 31.6563 80.4242 31.6563 80.3436C31.69 79.9271 31.7813 79.5173 31.9278 79.126L38.9193 83.0969C38.642 83.7674 38.5554 84.5015 38.669 85.2181L44.6084 118.483C44.8121 119.641 45.6054 120.286 46.5684 120.206C46.5686 120.228 46.5714 120.251 46.5769 120.273V120.273Z" fill="#263238"/>
<path d="M107.07 140.836C107.07 140.836 102.577 150.484 102.187 154.357C101.763 158.392 100.736 159.681 101.207 164.115C101.313 165.082 101.72 167.025 101.809 167.81C101.89 168.51 101.601 169.053 100.702 169.193C98.9286 169.473 96.171 166.036 94.9577 162.379C93.7443 158.722 92.1704 150.539 92.094 149.563C92.0742 148.584 92.3127 147.617 92.7856 146.759C93.0318 146.255 93.3259 145.776 93.6637 145.329C94.3298 143.598 94.771 140.264 95.3607 137.973L107.07 140.836Z" fill="#F28F8F"/>
<path d="M88.4837 153.084C88.2325 153.485 88.0517 153.925 87.9492 154.387C87.8686 155.193 89.5613 157.938 90.2316 158.939C90.9019 159.94 91.5383 161.188 91.3262 163.606C91.0928 166.185 92.1153 168.726 93.6807 170.937C95.2462 173.147 98.025 175.603 102.225 177.135C106.425 178.666 108.024 176.592 108.024 176.592C108.024 176.592 109.446 174.598 108.695 173.72C107.944 172.842 88.4837 153.084 88.4837 153.084Z" fill="#263238"/>
<path d="M93.6468 145.329C93.5195 145.329 93.2905 145.274 92.9383 145.66C92.8026 145.804 91.9329 147.683 91.2414 148.659C90.5498 149.635 88.7638 151.459 88.4668 153.084C89.3153 156.291 92.1577 158.629 92.4589 161.633C92.7601 164.636 92.6414 168.102 97.0493 171.971C101.457 175.841 106.149 176.451 107.889 175.565C109.628 174.678 109.564 172.858 107.371 169.29C105.042 165.502 103.735 157.471 103.735 157.467C103.489 156.067 103.875 153.746 102.539 152.825C101.87 152.438 101.124 152.203 100.354 152.138C99.5056 152.002 98.5341 151.883 97.8086 152.346C97.1873 152.807 96.7703 153.492 96.6462 154.255C96.5292 155.012 96.3619 155.76 96.1456 156.495C96.0565 156.724 95.908 156.974 95.662 157C95.2971 157.034 95.1232 156.576 95.0723 156.202C94.7894 154.276 94.5151 152.349 94.2492 150.42C94.1135 149.482 93.9777 148.54 93.8462 147.603C93.7402 146.877 93.4517 146.037 93.6468 145.329Z" fill="#37474F"/>
<path d="M112.899 154.34C112.899 154.34 115.618 165.659 118.049 169.952C120.48 174.245 121.715 176.316 124.867 179.468C125.55 180.151 127.09 181.411 127.65 181.967C128.151 182.459 128.269 183.065 127.65 183.74C126.445 185.068 120.981 185.755 117.744 183.672C114.507 181.589 111.355 176.884 109.386 175.157C108.648 174.508 107.952 173.842 107.265 173.13C106.578 172.417 106.735 171.738 106.624 170.928C106.569 170.533 106.548 169.451 106.548 169.451C105.988 167.555 104.635 164.611 103.896 162.774L112.899 154.34Z" fill="#FFA8A7"/>
<path d="M106.107 178.187C106.108 178.66 106.188 179.128 106.345 179.574C106.705 180.295 109.603 181.721 110.702 182.217C111.8 182.714 113.005 183.426 114.095 185.582C115.275 187.885 117.489 189.497 119.988 190.537C122.487 191.576 126.161 192.191 130.522 191.241C134.883 190.291 135.146 187.694 135.146 187.694C135.146 187.694 135.291 185.251 134.183 184.907C133.076 184.563 106.107 178.187 106.107 178.187Z" fill="#263238"/>
<path d="M106.374 168.866C106.26 168.926 106.039 169.006 105.95 169.52C105.916 169.715 106.179 171.768 106.111 172.96C106.035 174.233 105.5 176.651 106.111 178.187C108.521 180.457 112.186 180.919 114.036 183.303C115.886 185.687 117.634 188.683 123.424 189.616C129.215 190.549 133.513 188.568 134.514 186.892C135.515 185.217 134.493 183.711 130.734 181.857C126.751 179.884 121.375 173.796 121.371 173.775C120.632 172.91 119.949 171.999 119.326 171.047C118.94 170.47 118.949 169.884 118.054 169.829C117.63 169.829 117.21 169.913 116.819 170.075C116.017 170.355 115.228 170.673 114.46 171.03C114.06 171.165 113.723 171.443 113.514 171.81C113.401 172.237 113.449 172.69 113.65 173.083C114.173 174.497 114.696 175.911 115.22 177.326C113.455 176.477 112.301 174.78 111.121 173.206C110.469 172.284 109.689 171.458 108.805 170.754C108.386 170.433 107.925 170.171 107.435 169.973C107.257 169.906 106.786 169.867 106.658 169.736C106.599 169.672 106.561 169.384 106.51 169.363C106.456 169.2 106.411 169.034 106.374 168.866V168.866Z" fill="#37474F"/>
<path d="M84.3135 96.4014C89.256 99.5068 106.289 107.78 113.37 113.452C115.415 115.089 116.403 117.664 115.449 122.598C114.125 129.433 109.085 144.061 109.085 144.061C108.561 145.366 108.146 146.713 107.846 148.087L81.7681 121.334L84.3135 96.4014Z" fill="#5956E9"/>
<path opacity="0.4" d="M84.3135 96.4014C89.256 99.5068 106.289 107.78 113.37 113.452C115.415 115.089 116.403 117.664 115.449 122.598C114.125 129.433 109.085 144.061 109.085 144.061C108.561 145.366 108.146 146.713 107.846 148.087L81.7681 121.334L84.3135 96.4014Z" fill="white"/>
<path opacity="0.3" d="M107.07 127.969C106.361 125.301 104.575 123.867 102.989 122.785C96.6632 118.475 87.7159 112.221 86.1123 111.008C86.8038 109.311 87.9535 106.32 86.6935 103.414C86.6935 103.414 86.2183 109.778 82.7141 112.4L82.6759 112.463C83.5668 113.664 101.186 137.434 108.818 144.706C108.903 144.481 108.992 144.281 109.081 144.078C109.081 144.078 109.412 143.115 109.929 141.575C109.251 137.6 108.135 131.991 107.07 127.969Z" fill="black"/>
<path d="M84.6019 95.6626L49.8988 103.723C50.8958 109.37 51.3879 111.784 53.3224 114.872C55.257 117.961 58.5364 121.236 69.7534 126.497C78.2043 130.455 88.6747 134.786 90.7874 135.609C92.3783 136.233 92.7686 139.3 93.8505 143.212C95.0596 147.586 97.1002 150.653 98.9414 154.263C101.631 159.533 103.646 163.873 103.646 163.873C103.646 163.873 111.007 163.906 114.906 159.948C107.528 132.971 106.981 131.032 106.777 130.37C105.891 127.455 105.857 126.662 101.945 123.671C98.5893 121.105 83.7365 111.449 83.7365 111.449C83.7365 111.449 88.7935 103.524 84.6019 95.6626Z" fill="#5956E9"/>
<path opacity="0.4" d="M84.6019 95.6626L49.8988 103.723C50.8958 109.37 51.3879 111.784 53.3224 114.872C55.257 117.961 58.5364 121.236 69.7534 126.497C78.2043 130.455 88.6747 134.786 90.7874 135.609C92.3783 136.233 92.7686 139.3 93.8505 143.212C95.0596 147.586 97.1002 150.653 98.9414 154.263C101.631 159.533 103.646 163.873 103.646 163.873C103.646 163.873 111.007 163.906 114.906 159.948C107.528 132.971 106.981 131.032 106.777 130.37C105.891 127.455 105.857 126.662 101.945 123.671C98.5893 121.105 83.7365 111.449 83.7365 111.449C83.7365 111.449 88.7935 103.524 84.6019 95.6626Z" fill="white"/>
<path d="M77.3855 59.5469C83.7492 59.5935 86.6934 63.5008 88.5983 69.1008C90.5031 74.7009 91.5043 77.5136 93.0189 81.8918C94.6225 86.5245 86.0231 92.2009 83.711 90.8985L78.9679 78.6675C78.5352 74.5057 77.3855 59.5469 77.3855 59.5469Z" fill="#FFA8A7"/>
<path d="M77.0673 57.9941C80.5758 58.1638 83.3291 59.3178 84.6103 60.4972C85.8915 61.6766 86.7952 62.0329 89.6037 70.539C91.6316 76.6778 91.9752 78.0863 91.9752 78.0863C91.9752 78.0863 87.6521 83.5463 79.3158 82.8888L77.8818 79.4948L77.0673 57.9941Z" fill="#263238"/>
<path d="M64.9509 57.1502L56.7375 59.7211C56.7375 59.7211 49.8096 64.7696 49.1011 70.4163C48.3927 76.063 48.1678 79.0624 48.9484 92.88C49.3727 100.466 51.8375 111.42 51.8375 111.42C51.8375 111.42 59.7836 113.761 72.5788 109.158C87.5037 103.792 87.5037 98.0855 87.5037 98.0855C85.6366 96.4641 84.4678 94.1843 84.2413 91.7219C84.0461 89.2655 83.9994 85.8249 84.2964 78.0994C84.7207 66.98 84.0716 60.3405 77.8437 58.4399C77.8649 58.4442 68.977 56.5775 64.9509 57.1502Z" fill="#5956E9"/>
<path opacity="0.3" d="M64.9509 57.1502L56.7375 59.7211C56.7375 59.7211 49.8096 64.7696 49.1011 70.4163C48.3927 76.063 48.1678 79.0624 48.9484 92.88C49.3727 100.466 51.8375 111.42 51.8375 111.42C51.8375 111.42 59.7836 113.761 72.5788 109.158C87.5037 103.792 87.5037 98.0855 87.5037 98.0855C85.6366 96.4641 84.4678 94.1843 84.2413 91.7219C84.0461 89.2655 83.9994 85.8249 84.2964 78.0994C84.7207 66.98 84.0716 60.3405 77.8437 58.4399C77.8649 58.4442 68.977 56.5775 64.9509 57.1502Z" fill="black"/>
<path d="M76.4988 27.3554C68.0818 25.6288 60.9885 31.1736 59.5291 36.3155C57.2509 44.2488 64.7897 50.3749 65.9818 54.804L86.4855 38.7379C86.7825 35.4882 84.9158 29.0821 76.4988 27.3554Z" fill="#263238"/>
<path d="M70.9751 38.5167C68.2939 37.9355 67.6575 39.1531 67.5006 40.884C67.3436 42.6149 67.4709 43.2598 67.0763 45.0543C67.0081 45.4435 66.8639 45.8154 66.6521 46.1489C66.5464 46.3158 66.4046 46.4569 66.2372 46.5619C66.0699 46.6669 65.8811 46.733 65.6848 46.7556C65.1587 46.7937 64.9424 46.4713 64.7812 46.0556C64.5733 45.521 64.5478 44.6089 63.6442 43.841C62.7406 43.0731 60.3436 42.2543 59.2278 44.7828C58.0739 47.4004 60.2587 50.6077 62.0745 51.4222C64.4969 52.5125 65.8927 50.0859 65.8927 50.0859L63.9878 59.6017C68.1369 66.1732 77.6824 64.5356 75.7861 61.8756L77.5679 57.5568C77.5679 57.5568 79.7443 57.8495 81.1612 57.4889C82.7691 57.1792 85.5182 56.3732 86.3964 50.8368C86.7231 48.7707 86.774 43.0519 86.5576 39.8701C86.3752 37.1719 85.8831 36.2386 85.7685 35.8737C84.6528 34.9361 81.1018 34.9701 79.4049 36.6034C76.7406 34.8385 72.9903 34.9828 70.9751 38.5167Z" fill="#FFA8A7"/>
<path d="M79.6466 52.0038C79.2809 51.6207 78.8049 51.3612 78.2848 51.2614C78.0497 51.2076 77.8089 51.1834 77.5678 51.1893C77.312 51.178 77.0585 51.2414 76.8381 51.3717C76.8057 51.4002 76.7815 51.4369 76.7681 51.478C76.7547 51.519 76.7525 51.5629 76.7617 51.605C76.7617 51.6729 76.8211 51.8002 76.906 51.8044C77.0281 51.8031 77.1501 51.7932 77.2708 51.7747C77.4023 51.7747 77.5296 51.7747 77.6611 51.7747C77.874 51.7733 78.0862 51.7975 78.2933 51.8468C78.4992 51.8947 78.6987 51.9674 78.8872 52.0632C79.0841 52.1806 79.274 52.3095 79.4557 52.4493C79.4752 52.4668 79.4988 52.4793 79.5242 52.4857C79.5497 52.4921 79.5764 52.4922 79.6019 52.4859C79.6274 52.4796 79.651 52.4672 79.6706 52.4497C79.6902 52.4323 79.7053 52.4103 79.7145 52.3856C79.7402 52.3221 79.7475 52.2525 79.7355 52.185C79.7235 52.1174 79.6927 52.0547 79.6466 52.0038V52.0038Z" fill="#B16668"/>
<path d="M77.5679 57.5568C74.6406 57.315 73.0709 56.8271 71.8024 56.3095C69.4648 55.355 68.5018 55.1089 66.4951 50.1113C66.4951 50.1113 66.7157 54.532 69.4648 56.7889C71.6327 58.5962 76.9739 59.0204 76.9739 59.0204L77.5679 57.5568Z" fill="#F28F8F"/>
<path d="M85.688 37.4527C84.6061 34.4321 81.3055 32.1454 79.3964 36.6042C76.7534 32.8284 72.1843 33.3545 71.1958 38.1527C70.6191 40.8496 70.7241 43.6478 71.5012 46.2939C71.5012 46.2939 68.5315 44.8473 68.417 40.7066C68.417 40.7066 67.9588 43.7103 68.3194 44.9024C68.3194 44.9024 61.0054 44.2066 58.9097 41.9836C58.9097 41.9836 57.1321 33.7109 62.7067 31.6024C63.1309 28.0514 68.5273 23.5417 77.7588 25.8114C86.9904 28.0811 88.3649 32.9727 88.3649 32.9727C87.4753 32.3632 86.506 31.8793 85.4843 31.5345C87.2345 33.2258 88.2931 35.5077 88.454 37.9363C88.7595 42.043 86.7019 44.1515 86.7019 44.1515C86.7019 44.1515 86.5577 39.8709 85.688 37.4527Z" fill="#37474F"/>
<path d="M62.5284 32.1788L59.6096 29.994C59.9147 29.6061 60.3582 29.3514 60.847 29.2834C61.3358 29.2153 61.832 29.3393 62.2314 29.6291C62.4226 29.7739 62.5826 29.9559 62.7016 30.1641C62.8206 30.3723 62.8963 30.6024 62.924 30.8406C62.9517 31.0788 62.931 31.3202 62.863 31.5502C62.795 31.7801 62.6812 31.994 62.5284 32.1788V32.1788Z" fill="#37474F"/>
<path d="M62.9272 31.9626L59.512 33.2354C59.3523 32.769 59.3787 32.259 59.5858 31.8117C59.7929 31.3643 60.1646 31.0141 60.6236 30.8342C60.8486 30.7519 61.088 30.716 61.3272 30.7285C61.5665 30.7411 61.8008 30.8019 62.016 30.9073C62.2311 31.0127 62.4228 31.1606 62.5794 31.3419C62.736 31.5233 62.8543 31.7344 62.9272 31.9626V31.9626Z" fill="#37474F"/>
<path d="M77.9497 33.7023C77.9832 33.703 78.016 33.6925 78.043 33.6726C78.0717 33.6486 78.09 33.6144 78.0939 33.5772C78.0979 33.54 78.0872 33.5027 78.0642 33.4732C74.929 29.549 66.563 29.1757 63.2963 31.1738C63.2804 31.1836 63.2666 31.1964 63.2557 31.2115C63.2447 31.2265 63.2369 31.2436 63.2325 31.2618C63.2282 31.2799 63.2275 31.2987 63.2304 31.3171C63.2333 31.3355 63.2399 31.3531 63.2496 31.369C63.2594 31.3849 63.2721 31.3987 63.2872 31.4096C63.3023 31.4205 63.3194 31.4284 63.3375 31.4327C63.3556 31.4371 63.3744 31.4378 63.3928 31.4349C63.4112 31.4319 63.4289 31.4254 63.4448 31.4157C66.5545 29.515 74.8442 29.9011 77.8394 33.6514C77.8531 33.6672 77.8701 33.6799 77.8891 33.6887C77.9081 33.6974 77.9287 33.7021 77.9497 33.7023V33.7023Z" fill="#263238"/>
<path d="M76.8 44.5967C76.8022 44.8163 76.7398 45.0318 76.6206 45.2162C76.5013 45.4007 76.3304 45.546 76.1292 45.6341C75.928 45.7221 75.7053 45.7491 75.4889 45.7116C75.2725 45.6741 75.0719 45.5739 74.912 45.4232C74.7521 45.2726 74.6401 45.0783 74.5898 44.8645C74.5395 44.6506 74.5532 44.4268 74.6292 44.2207C74.7052 44.0146 74.8401 43.8354 75.0171 43.7054C75.1941 43.5753 75.4055 43.5003 75.6249 43.4894C75.7749 43.4843 75.9244 43.509 76.0649 43.562C76.2053 43.615 76.3339 43.6953 76.4431 43.7982C76.5524 43.9012 76.6402 44.0247 76.7014 44.1618C76.7627 44.2988 76.7962 44.4466 76.8 44.5967V44.5967Z" fill="#263238"/>
<path d="M84.8988 43.9899C84.9092 44.1352 84.8907 44.281 84.8444 44.4191C84.7981 44.5572 84.7249 44.6847 84.6291 44.7944C84.5332 44.904 84.4166 44.9936 84.286 45.058C84.1553 45.1223 84.0133 45.1602 83.8679 45.1693C83.72 45.1839 83.5707 45.1667 83.43 45.1189C83.2893 45.0712 83.1604 44.9939 83.0519 44.8923C82.9435 44.7906 82.858 44.667 82.8012 44.5297C82.7443 44.3924 82.7175 44.2445 82.7225 44.096C82.7096 43.9498 82.7264 43.8025 82.7718 43.6629C82.8173 43.5234 82.8904 43.3944 82.9869 43.2838C83.0833 43.1732 83.2011 43.0832 83.3332 43.0192C83.4653 42.9553 83.6089 42.9186 83.7555 42.9114C83.9021 42.9043 84.0486 42.9268 84.1863 42.9777C84.324 43.0285 84.4499 43.1066 84.5567 43.2073C84.6635 43.308 84.7488 43.4293 84.8076 43.5637C84.8664 43.6982 84.8974 43.8432 84.8988 43.9899V43.9899Z" fill="#263238"/>
<path d="M79.3667 42.2329L79.8631 49.8481L83.8213 48.1766L79.3667 42.2329Z" fill="#F28F8F"/>
<path d="M72.9902 41.7036L75.1793 39.6885C75.4448 39.9915 75.5829 40.3854 75.5647 40.7878C75.5465 41.1902 75.3735 41.5701 75.0818 41.8479C74.9369 41.9798 74.7668 42.0809 74.5818 42.1453C74.3968 42.2097 74.2006 42.2359 74.0052 42.2224C73.8098 42.209 73.6191 42.1561 73.4446 42.0669C73.2702 41.9777 73.1156 41.8542 72.9902 41.7036V41.7036Z" fill="#263238"/>
<path d="M83.2442 39.2725L85.6073 41.1179C85.4948 41.2777 85.3509 41.4128 85.1844 41.5151C85.0179 41.6173 84.8324 41.6846 84.639 41.7128C84.4457 41.741 84.2486 41.7295 84.0599 41.679C83.8711 41.6285 83.6947 41.5401 83.5412 41.4191C83.2261 41.1675 83.0197 40.8045 82.9644 40.405C82.9092 40.0056 83.0093 39.6002 83.2442 39.2725V39.2725Z" fill="#263238"/>
<path d="M64.3738 49.5216C65.3878 49.284 66.1684 50.2046 66.1684 50.2046C66.1684 50.2046 66.9617 49.6913 67.4411 50.2046C67.7516 50.531 67.9672 50.9358 68.0647 51.3755C68.0647 51.3755 68.8878 50.7986 69.4478 51.4561C69.7922 51.8703 70.0439 52.3535 70.186 52.8731C70.186 52.8731 70.9199 52.5931 71.552 53.5519C72.006 54.2434 72.8545 55.321 73.9363 55.775C74.9078 56.1992 74.4369 56.7974 73.372 57.0774C72.3072 57.3574 63.9326 50.0052 63.9326 50.0052L64.3738 49.5216Z" fill="#F28F8F"/>
<path d="M55.1721 88.0691C55.5624 88.4509 63.6357 84.3188 64.2212 79.2491C62.0788 78.7442 54.7818 83.7673 55.1721 88.0691Z" fill="#263238"/>
<path d="M56.6612 60.2256C50.3951 62.5462 48.8636 67.5947 49.449 72.7874C49.8987 76.6481 52.283 80.725 57.183 88.7348C62.083 96.7445 66.143 94.1184 66.143 94.1184L67.4836 88.179L60.4369 70.6662C60.4369 70.6662 60.0721 62.9789 56.6612 60.2256Z" fill="#FFA8A7"/>
<path d="M63.5254 78.2858L62.4945 75.6895C62.4945 75.6895 58.7612 82.7149 60.5218 87.2925L63.5254 78.2858Z" fill="#F28F8F"/>
<path d="M56.7375 59.7207C51.6466 61.5195 49.7926 63.6068 49.0078 68.0783C48.4775 71.1032 48.8805 73.2753 50.2296 77.4583C51.6254 81.8026 55.2654 88.0644 55.2654 88.0644C55.3163 85.5444 60.14 79.8341 64.3103 79.2444C64.3103 79.2444 61.9133 71.9771 61.1963 69.9959C60.4793 68.0147 58.9266 62.071 56.7375 59.7207Z" fill="#263238"/>
<path d="M73.0497 64.6292C73.7497 62.6861 74.3225 61.0146 74.0806 59.9625C73.7625 58.5413 73.0709 58.291 73.0709 58.291C73.3394 58.2485 73.5972 58.1549 73.8303 58.0152C73.9514 57.9435 74.0532 57.8435 74.1271 57.7238C74.201 57.6041 74.2447 57.4683 74.2546 57.3279C74.2843 56.9546 73.4994 56.7213 73.1855 56.5091C72.1503 55.8091 71.8024 55.3085 71.0643 54.354C70.962 54.2008 70.8294 54.0703 70.6747 53.9703C70.52 53.8704 70.3465 53.8031 70.1649 53.7728C69.9358 53.0728 69.6897 52.4364 69.2146 52.2031C69.0517 52.1217 68.8739 52.0749 68.6921 52.0654C68.5104 52.0559 68.3286 52.084 68.1582 52.1479C68.0158 51.6692 67.7055 51.258 67.2842 50.9897C66.9338 50.8523 66.5444 50.8523 66.1939 50.9897C65.9622 50.6678 65.6962 50.3719 65.4006 50.1073C65.1157 49.9227 64.781 49.8302 64.4417 49.8424C64.1025 49.8545 63.7752 49.9707 63.5042 50.1752C62.7703 50.68 62.5115 51.4479 62.1679 52.2243C61.8658 52.9093 61.6231 53.619 61.4424 54.3455C61.2603 55.0223 61.1186 55.7094 61.0182 56.4031C60.9444 56.8018 60.9604 57.2119 61.0648 57.6037C61.3788 58.4522 65.9394 63.2164 65.9394 63.2164C65.5449 66.0122 62.397 78.1032 61.0436 82.2438C59.7709 86.1892 60.9588 92.6505 62.8297 93.6984C64.7006 94.7462 67.1527 94.9287 70.237 90.3765C73.6479 85.3238 71.3188 69.4316 73.0497 64.6292Z" fill="#FFA8A7"/>
<path d="M66.16 94.1182C67.3436 93.694 68.663 92.6461 70.1309 90.5164C69.4564 90.3679 68.7691 90.2576 68.0988 90.177C66.9533 90.0328 65.9776 89.5237 64.8703 89.1928C64.8457 89.1764 64.8173 89.1668 64.7879 89.1648C64.7584 89.1628 64.729 89.1685 64.7024 89.1814C64.6759 89.1942 64.6531 89.2138 64.6365 89.2381C64.6198 89.2624 64.6097 89.2906 64.6073 89.32C64.5256 89.5878 64.505 89.8704 64.5468 90.1472C64.5887 90.4239 64.6919 90.6878 64.8491 90.9194C65.1209 91.2693 65.4527 91.5681 65.8291 91.8019C65.9479 91.8825 66.1515 91.9673 66.5842 92.2261C66.7667 92.3364 66.9109 92.4679 66.877 92.6249C66.7751 93.1128 65.1503 93.1085 64.8491 93.1085C63.8564 93.0947 62.8718 92.9272 61.9303 92.6122C61.7009 92.5468 61.4801 92.4542 61.2727 92.3364C61.0724 92.2082 60.891 92.0526 60.7339 91.874C60.5127 91.6484 60.3045 91.4105 60.1103 91.1613C59.6661 90.5002 59.1558 89.8861 58.5872 89.3285C58.1935 88.984 57.7032 88.7693 57.183 88.7134V88.7431C62.0915 96.7189 66.16 94.1182 66.16 94.1182Z" fill="#F28F8F"/>
<path d="M73.1642 58.1935C72.7272 58.2728 72.279 58.2656 71.8448 58.1723C71.5447 58.1392 71.2548 58.0436 70.994 57.8916C70.7331 57.7396 70.507 57.5346 70.3302 57.2898C70.3302 57.2898 70.2624 55.4656 70.0715 55.6141C69.8805 55.7626 69.9315 57.1795 69.9315 57.1795C69.6534 57.0305 69.4059 56.8304 69.2018 56.5898C68.8157 56.8316 69.3375 57.2559 69.8763 57.5953C70.1876 57.8246 70.5183 58.0262 70.8648 58.1977C71.418 58.4083 72.0038 58.5203 72.5957 58.5286C72.78 58.5109 72.9658 58.5354 73.1393 58.6C73.3127 58.6647 73.4692 58.7679 73.5969 58.902C73.406 58.6347 73.1642 58.1935 73.1642 58.1935Z" fill="#B16668"/>
<path d="M70.4618 53.8321C70.3939 53.8321 70.326 53.9 70.2624 53.8873C69.6685 53.7897 69.0279 53.9891 68.1751 54.5363C67.4463 55.0875 66.8091 55.7505 66.2872 56.5006C66.2872 56.5006 66.4272 55.6521 67.56 54.6339C68.6927 53.6157 69.8297 53.4291 70.4618 53.8321Z" fill="#B16668"/>
<path d="M68.192 52.0298L68.1666 52.2419C66.1132 52.9292 65.0781 54.3292 64.3484 55.3983C64.3484 55.3983 64.4078 54.4565 65.9138 53.1625C66.5632 52.5954 67.3479 52.2052 68.192 52.0298V52.0298Z" fill="#B16668"/>
<path d="M65.8969 50.6289C65.5278 50.7265 65.0145 51.1889 64.3993 51.8762C63.7532 52.5902 63.2415 53.4152 62.889 54.3113C63.2878 53.6665 64.6666 51.5919 66.3297 51.0319C66.1381 50.9595 65.9827 50.8148 65.8969 50.6289V50.6289Z" fill="#B16668"/>
<path d="M64.3739 61.5195C65.5254 62.5875 66.9881 63.2594 68.5485 63.4371C67.668 63.5666 66.7698 63.4999 65.9181 63.242L64.3739 61.5195Z" fill="#B16668"/>
<path d="M72.1886 80.7253C72.2607 78.812 72.2777 76.9071 72.2819 74.9811C72.2861 73.055 72.2819 71.1629 72.3455 69.2283C72.3773 68.2689 72.458 67.3117 72.5873 66.3604C72.6518 65.8826 72.7525 65.4103 72.8886 64.9477C73.0201 64.481 73.2025 64.0398 73.351 63.5859C73.6858 62.6926 73.9206 61.7649 74.051 60.8198C74.0932 60.351 74.0249 59.8787 73.8516 59.441C73.7228 58.9981 73.4379 58.6169 73.0498 58.3677C73.0319 58.3586 73.0183 58.3428 73.0119 58.3238C73.0056 58.3047 73.007 58.2839 73.0158 58.2659C73.0272 58.2487 73.0434 58.2354 73.0625 58.2277C73.3488 58.1872 73.621 58.0781 73.8558 57.9095C73.965 57.8237 74.0522 57.7132 74.1104 57.5871C74.1398 57.5307 74.1576 57.4689 74.1627 57.4055C74.1678 57.3421 74.1601 57.2784 74.1401 57.218C73.9487 57.0101 73.7101 56.8515 73.4443 56.7556C73.1711 56.6167 72.9137 56.4489 72.6764 56.255C72.1974 55.8812 71.7695 55.4462 71.4037 54.961C71.217 54.7319 71.0346 54.4816 70.8437 54.2652C70.6698 54.0464 70.4169 53.9047 70.1395 53.8707C70.1215 53.8706 70.104 53.8648 70.0895 53.8542C70.075 53.8435 70.0643 53.8285 70.0589 53.8113C69.9347 53.3431 69.7231 52.9026 69.4352 52.5131C69.2779 52.3458 69.0713 52.2328 68.8455 52.1907C68.6169 52.1498 68.3816 52.1688 68.1625 52.2458C68.1508 52.2498 68.1384 52.2514 68.1261 52.2506C68.1138 52.2498 68.1017 52.2465 68.0907 52.241C68.0796 52.2354 68.0698 52.2278 68.0617 52.2184C68.0537 52.2091 68.0475 52.1982 68.0437 52.1865C67.9264 51.787 67.6895 51.4332 67.3649 51.1725C67.1921 51.0682 66.9969 51.0065 66.7955 50.9925C66.5942 50.9784 66.3923 51.0125 66.2067 51.0919C66.1874 51.098 66.1668 51.0984 66.1472 51.0932C66.1277 51.0879 66.1101 51.0772 66.0964 51.0622C65.8462 50.6795 65.5251 50.3483 65.1504 50.0865C64.9505 49.9957 64.7335 49.9488 64.514 49.9488C64.2945 49.9488 64.0775 49.9957 63.8776 50.0865C63.4534 50.2666 63.0938 50.5713 62.8467 50.9604C62.608 51.3601 62.4022 51.7787 62.2316 52.2119C61.8623 53.0686 61.5781 53.9596 61.3831 54.8719C61.277 55.3259 61.1837 55.7883 61.1158 56.2507C61.0762 56.4792 61.0535 56.7104 61.0479 56.9422C61.0274 57.164 61.052 57.3877 61.12 57.5998V57.5998C61.2579 57.8696 61.4258 58.1229 61.6206 58.355C61.8116 58.5968 62.0109 58.8386 62.2103 59.0719C62.6091 59.5471 63.0206 60.0095 63.4364 60.4719C64.2679 61.3911 65.1164 62.3018 65.9819 63.2041C65.9861 63.2103 65.9883 63.2177 65.9883 63.2253C65.9883 63.2328 65.9861 63.2402 65.9819 63.2465C65.8461 64.1459 65.6425 65.0326 65.4388 65.915C65.2352 66.7974 65.0146 67.6798 64.7897 68.558L63.4279 73.8314L64.7261 68.5453L65.3455 65.8938C65.5449 65.0113 65.7443 64.1247 65.8758 63.2295V63.2762C65.0273 62.3768 64.1788 61.4732 63.3303 60.5525C62.9061 60.0944 62.4819 59.6277 62.0958 59.1568C61.8922 58.9192 61.6928 58.6816 61.5019 58.4356C61.2967 58.1936 61.1202 57.9289 60.9758 57.6465C60.8882 57.4153 60.8548 57.1671 60.8782 56.921C60.8878 56.6838 60.9105 56.4473 60.9461 56.2125C61.014 55.7459 61.1031 55.2834 61.2091 54.821C61.4115 53.8985 61.7028 52.9977 62.0788 52.1313C62.2541 51.6919 62.4626 51.2664 62.7025 50.8586C62.9566 50.4411 63.3306 50.1099 63.7758 49.9083C64.0014 49.8046 64.2467 49.751 64.4949 49.751C64.7431 49.751 64.9884 49.8046 65.214 49.9083C65.4278 50.0298 65.6176 50.1894 65.774 50.3792C65.9343 50.5543 66.0844 50.7384 66.2237 50.9307L66.1176 50.901C66.3324 50.8174 66.5619 50.7784 66.7922 50.7864C67.0282 50.7908 67.2579 50.863 67.454 50.9943C67.642 51.1282 67.7996 51.3002 67.9164 51.4992C68.0379 51.6884 68.1348 51.8922 68.2049 52.1058L68.0861 52.0465C68.3371 51.9609 68.6057 51.9404 68.8667 51.9871C69.1304 52.0386 69.371 52.1723 69.554 52.3689C69.8581 52.7777 70.08 53.2416 70.2073 53.7349L70.1267 53.6713C70.4505 53.711 70.7466 53.8735 70.954 54.1253C71.1619 54.3628 71.3316 54.6004 71.5183 54.8337C71.8762 55.3096 72.294 55.7374 72.7613 56.1065C72.9881 56.2933 73.2341 56.4554 73.4952 56.5901C73.631 56.6537 73.7667 56.7216 73.9195 56.798C74.0653 56.8747 74.1894 56.9871 74.2801 57.1247C74.324 57.287 74.3166 57.459 74.2589 57.617C74.2012 57.775 74.0959 57.9113 73.9577 58.0071C73.7051 58.1863 73.4148 58.3053 73.1092 58.355V58.2107C73.5414 58.4727 73.8594 58.8877 74.0001 59.3731C74.0836 59.6032 74.1461 59.8403 74.1867 60.0816C74.2143 60.3255 74.2143 60.5717 74.1867 60.8156C74.0532 61.7714 73.8127 62.7092 73.4698 63.6113C73.3213 64.0653 73.1346 64.5107 73.0031 64.9647C72.8687 65.4219 72.768 65.8884 72.7019 66.3604C72.5619 67.3065 72.4983 68.2611 72.4516 69.2156C72.3752 71.1289 72.371 73.0338 72.3455 74.9641C72.3201 76.8944 72.2819 78.812 72.1886 80.7253Z" fill="#B16668"/>
<path d="M78.2763 99.4383C76.9569 99.9346 75.2769 101.016 73.5121 101.496C71.6583 101.965 69.7462 102.162 67.8357 102.081C66.8327 102.068 65.8312 101.997 64.8363 101.869C63.7926 101.729 62.9102 101.182 61.9684 100.724C61.0266 100.266 60.0254 99.7268 59.6732 98.751C59.4866 98.2419 59.5078 97.6607 59.2235 97.1983C59.0496 96.914 58.7781 96.7061 58.5829 96.4389C58.3051 95.9749 58.1422 95.4513 58.1078 94.9116C58.022 94.3335 57.8799 93.7651 57.6835 93.2146C57.2629 91.9994 56.7626 90.8132 56.186 89.6637C56.1592 89.6254 56.1485 89.5782 56.1563 89.5322C56.1789 89.4865 56.2185 89.4515 56.2666 89.4346C56.6448 89.3069 57.0508 89.2852 57.4404 89.372C57.8301 89.4587 58.1886 89.6506 58.4769 89.9267C59.0465 90.4849 59.5569 91.1005 59.9999 91.7637C60.1951 92.0098 60.4029 92.2473 60.6235 92.4764C60.7819 92.6525 60.9631 92.8066 61.1623 92.9346C61.3693 93.0534 61.5901 93.146 61.8199 93.2104C62.7618 93.5244 63.746 93.6932 64.7387 93.711C65.0399 93.711 66.6648 93.711 66.7708 93.2273C66.8048 93.0661 66.6563 92.9346 66.4739 92.8286C66.0496 92.5783 65.8375 92.4892 65.7229 92.4043C65.3434 92.1714 65.0098 91.8709 64.7387 91.5176C64.5816 91.286 64.4783 91.0221 64.4365 90.7454C64.3946 90.4686 64.4153 90.186 64.4969 89.9182C64.5092 89.8682 64.5375 89.8235 64.5775 89.791C64.6063 89.7785 64.6373 89.772 64.6687 89.772C64.7001 89.772 64.7311 89.7785 64.7599 89.791C65.8545 90.1219 66.843 90.6395 67.9884 90.7752C69.1155 90.895 70.2282 91.1252 71.3102 91.4625C72.053 91.7626 72.8105 92.0245 73.5799 92.2473C74.0311 92.3546 74.4992 92.3697 74.9562 92.2917C75.4133 92.2137 75.85 92.0442 76.24 91.7934C78.1151 90.7582 82.2303 87.4576 84.4279 85.8964L92.7388 81.0049C92.7388 81.0049 93.3158 82.7019 93.8885 84.734C94.9873 88.6413 94.86 89.4007 93.1164 91.0637C90.2061 93.8467 84.6527 97.0371 78.2763 99.4383Z" fill="#FFA8A7"/>
<path d="M56.2454 89.4475C56.476 89.3519 56.7233 89.3027 56.9729 89.3027C57.2226 89.3027 57.4699 89.3519 57.7005 89.4475C58.1649 89.6332 58.5801 89.9236 58.9139 90.296C59.2533 90.6651 59.5375 91.0766 59.8345 91.4712C59.9787 91.6706 60.1442 91.853 60.3096 92.0396C60.4751 92.2263 60.6278 92.4172 60.8102 92.5827C61.1703 92.9035 61.6098 93.1218 62.083 93.2148C62.5558 93.3531 63.0378 93.458 63.5254 93.5287C64.0126 93.6002 64.5054 93.6272 64.9975 93.6093C65.4814 93.613 65.9628 93.5385 66.423 93.3887C66.6478 93.2954 66.7242 93.1257 66.5248 92.9645C66.3254 92.8033 66.1006 92.7184 65.8884 92.5954C65.6676 92.474 65.4588 92.332 65.2648 92.1712C65.0602 92.0204 64.8763 91.8435 64.7175 91.6451C64.5587 91.4407 64.4421 91.2069 64.3744 90.9571C64.3067 90.7073 64.2892 90.4465 64.323 90.1899C64.338 90.0593 64.3693 89.931 64.4163 89.8081C64.4332 89.7666 64.4629 89.7315 64.501 89.7079C64.5391 89.6842 64.5837 89.6733 64.6284 89.6766C64.6952 89.6837 64.7608 89.6993 64.8236 89.7233C65.0611 89.7996 65.2945 89.8845 65.5278 89.9693C65.9945 90.1433 66.4569 90.3257 66.9278 90.4699C67.4002 90.6094 67.8845 90.7045 68.3745 90.7542C69.3594 90.8918 70.3294 91.1204 71.2721 91.4372C70.3226 91.1498 69.3482 90.9523 68.3618 90.8475C67.8653 90.801 67.3741 90.7102 66.8939 90.576C66.4145 90.4318 65.9521 90.2536 65.4854 90.0881C65.2521 90.0033 65.0187 89.9227 64.7812 89.8548C64.73 89.8323 64.6756 89.818 64.6199 89.8124C64.5775 89.8124 64.5648 89.8124 64.5393 89.8675C64.502 89.9777 64.4764 90.0914 64.463 90.2069C64.4331 90.4443 64.4512 90.6852 64.516 90.9154C64.5809 91.1457 64.6912 91.3606 64.8405 91.5475C64.9947 91.7341 65.1714 91.9008 65.3666 92.0439C65.5595 92.1968 65.767 92.3303 65.986 92.4427C66.2085 92.5561 66.4252 92.6807 66.6351 92.816C66.695 92.8609 66.7455 92.9171 66.7836 92.9815C66.8052 93.0182 66.819 93.0591 66.8241 93.1014C66.8292 93.1437 66.8255 93.1867 66.8133 93.2275C66.7878 93.2991 66.7462 93.3638 66.6918 93.4168C66.6374 93.4697 66.5715 93.5095 66.4993 93.533C66.0154 93.6935 65.5072 93.7681 64.9975 93.7536C64.4979 93.767 63.9982 93.7358 63.5042 93.6603C63.0108 93.5812 62.5232 93.4692 62.0448 93.3251C61.802 93.259 61.5639 93.1768 61.332 93.079C61.0979 92.9784 60.8849 92.8345 60.7042 92.6548C60.5217 92.4809 60.369 92.2857 60.2036 92.099C60.0381 91.9124 59.8769 91.7215 59.7326 91.5178C59.4357 91.119 59.1557 90.7118 58.829 90.3427C58.5157 89.9608 58.1177 89.6572 57.6666 89.456C57.2122 89.2672 56.7019 89.2642 56.2454 89.4475V89.4475Z" fill="#B16668"/>
<path d="M84.1226 86.1211C85.5989 84.9927 88.6832 83.8642 90.9105 84.4496C89.6377 83.0878 85.7304 83.9193 84.1226 84.7975V86.1211Z" fill="#F28F8F"/>
<path d="M71.3485 141.786C71.436 142.32 71.3705 142.867 71.1596 143.365C70.9487 143.862 70.6011 144.29 70.1571 144.598C69.713 144.906 69.1907 145.082 68.6507 145.106C68.1107 145.129 67.5751 144.999 67.106 144.731L30.5786 123.641C29.6465 123.105 28.9022 122.294 28.4468 121.319C27.9914 120.345 27.847 119.254 28.0332 118.194L35.8011 99.8413H31.1344L18.4665 136.263C18.4107 136.432 18.4072 136.615 18.4564 136.786C18.5056 136.958 18.6052 137.111 18.7424 137.225C18.8796 137.34 19.048 137.41 19.2258 137.428C19.4035 137.445 19.5824 137.409 19.7392 137.323C19.9056 137.225 20.0364 137.077 20.1125 136.899L23.5701 128.724C24.2111 128.021 25.0735 127.559 26.0137 127.415C26.9539 127.27 27.9151 127.452 28.7374 127.93L69.346 151.378C70.6077 152.119 71.6929 153.125 72.526 154.327C73.359 155.53 73.92 156.899 74.1697 158.34L71.3485 141.786Z" fill="#5956E9"/>
<path opacity="0.2" d="M71.3485 141.786C71.436 142.32 71.3705 142.867 71.1596 143.365C70.9487 143.862 70.6011 144.29 70.1571 144.598C69.713 144.906 69.1907 145.082 68.6507 145.106C68.1107 145.129 67.5751 144.999 67.106 144.731L30.5786 123.641C29.6465 123.105 28.9022 122.294 28.4468 121.319C27.9914 120.345 27.847 119.254 28.0332 118.194L35.8011 99.8413H31.1344L18.4665 136.263C18.4107 136.432 18.4072 136.615 18.4564 136.786C18.5056 136.958 18.6052 137.111 18.7424 137.225C18.8796 137.34 19.048 137.41 19.2258 137.428C19.4035 137.445 19.5824 137.409 19.7392 137.323C19.9056 137.225 20.0364 137.077 20.1125 136.899L23.5701 128.724C24.2111 128.021 25.0735 127.559 26.0137 127.415C26.9539 127.27 27.9151 127.452 28.7374 127.93L69.346 151.378C70.6077 152.119 71.6929 153.125 72.526 154.327C73.359 155.53 73.92 156.899 74.1697 158.34L71.3485 141.786Z" fill="white"/>
<path d="M78.1789 147.819C77.9074 148.007 77.5898 148.117 77.2602 148.137C76.9307 148.158 76.6019 148.088 76.3092 147.935C76.0166 147.782 75.7713 147.552 75.5999 147.27C75.4284 146.988 75.3373 146.664 75.3365 146.334V146.334L75.1413 144.319L75.1965 144.917L73.4104 126.39C73.2765 124.784 72.8152 123.222 72.0549 121.801C71.2947 120.38 70.2516 119.129 68.9898 118.126L33.2048 89.7018L32.4963 85.769C31.2615 86.7485 30.279 88.0092 29.6309 89.4459C28.9828 90.8826 28.688 92.4535 28.771 94.0274C28.8541 95.6013 29.3126 97.1325 30.1083 98.493C30.904 99.8535 32.0138 101.004 33.3448 101.848L63.8904 121.147C65.2932 122.034 66.4933 123.207 67.4122 124.589C68.331 125.972 68.9481 127.532 69.2231 129.169L76.2274 170.512C76.251 170.702 76.3492 170.875 76.5004 170.993C76.5752 171.051 76.6608 171.094 76.7523 171.119C76.8438 171.144 76.9393 171.151 77.0335 171.14C77.1276 171.128 77.2185 171.098 77.301 171.051C77.3836 171.004 77.456 170.941 77.5143 170.867C77.5726 170.792 77.6156 170.706 77.6408 170.615C77.6661 170.523 77.673 170.428 77.6613 170.334L76.6474 159.821C76.3886 156.698 77.4959 153.555 80.211 151.989" fill="#5956E9"/>
<path opacity="0.1" d="M78.1789 147.819C77.9074 148.007 77.5898 148.117 77.2602 148.137C76.9307 148.158 76.6019 148.088 76.3092 147.935C76.0166 147.782 75.7713 147.552 75.5999 147.27C75.4284 146.988 75.3373 146.664 75.3365 146.334V146.334L75.1413 144.319L75.1965 144.917L73.4104 126.39C73.2765 124.784 72.8152 123.222 72.0549 121.801C71.2947 120.38 70.2516 119.129 68.9898 118.126L33.2048 89.7018L32.4963 85.769C31.2615 86.7485 30.279 88.0092 29.6309 89.4459C28.9828 90.8826 28.688 92.4535 28.771 94.0274C28.8541 95.6013 29.3126 97.1325 30.1083 98.493C30.904 99.8535 32.0138 101.004 33.3448 101.848L63.8904 121.147C65.2932 122.034 66.4933 123.207 67.4122 124.589C68.331 125.972 68.9481 127.532 69.2231 129.169L76.2274 170.512C76.251 170.702 76.3492 170.875 76.5004 170.993C76.5752 171.051 76.6608 171.094 76.7523 171.119C76.8438 171.144 76.9393 171.151 77.0335 171.14C77.1276 171.128 77.2185 171.098 77.301 171.051C77.3836 171.004 77.456 170.941 77.5143 170.867C77.5726 170.792 77.6156 170.706 77.6408 170.615C77.6661 170.523 77.673 170.428 77.6613 170.334L76.6474 159.821C76.3886 156.698 77.4959 153.555 80.211 151.989" fill="black"/>
</svg>
