<svg width="66" height="64" viewBox="0 0 66 64" fill="none" xmlns="http://www.w3.org/2000/svg">
<rect x="0.422852" width="65.5034" height="64" rx="20" fill="#5956E9"/>
<path d="M33.6865 15C23.7944 15 15.7754 22.835 15.7754 32.5C15.7754 42.165 23.7944 50 33.6865 50C43.5785 50 51.5975 42.165 51.5975 32.5C51.5975 22.835 43.5785 15 33.6865 15ZM29.2461 19.7429C29.8984 20.086 30.6693 20.4106 31.5599 20.717C32.4504 21.0233 33.3348 21.1769 34.2127 21.1769C34.8607 21.1756 35.5071 21.0185 36.0569 20.625C36.5893 20.3133 37.1046 20.0645 37.7877 20.1286C38.4896 20.2035 39.2287 20.4396 39.9699 20.4787C40.8981 20.9689 41.8015 21.5808 42.6795 22.3161C42.253 22.3405 41.8007 22.3844 41.3241 22.4457C40.8475 22.507 40.384 22.598 39.9325 22.7205C39.4809 22.8431 39.0668 23.0032 38.6905 23.1992C38.3143 23.3953 38.0382 23.6398 37.8626 23.934C37.5867 24.3751 37.3925 24.749 37.2796 25.0554C37.0473 25.6906 37.1022 26.7041 36.5651 27.1698C36.4522 27.2433 36.3579 27.3288 36.2826 27.4268C36.2074 27.5249 36.176 27.6532 36.1885 27.8125C36.2011 27.9718 36.283 28.1988 36.4335 28.4929C36.5088 28.6645 36.5705 28.8728 36.6207 29.1179C37.0972 29.1164 37.5915 29.0463 38.0135 28.75L40.4973 28.9705C41.1385 28.2649 41.8856 28.2532 42.5286 28.9705C42.7293 29.1666 42.9425 29.4616 43.1683 29.8537L42.1147 30.5519C41.8638 30.4783 41.563 30.3314 41.2119 30.1108C41.0367 30.0128 40.8604 29.902 40.6844 29.7795C39.6834 29.3048 37.7232 29.8576 36.6207 29.9269C36.4769 30.2078 36.3611 30.4829 36.0195 30.5519C35.9602 30.7337 36.0175 30.9287 35.9435 31.1038C35.4669 31.8391 35.3042 32.611 35.4547 33.4198C35.7306 34.6943 36.4073 35.3314 37.486 35.3314H37.9C38.4268 35.3314 38.7972 35.3555 39.0104 35.4045C39.2236 35.4535 39.3302 35.4908 39.3302 35.5153C39.2048 35.8095 39.161 36.0419 39.1987 36.2135C39.3229 36.764 39.7294 37.1806 39.6875 37.776C39.6485 38.5333 39.4048 39.1863 39.6694 39.9458C39.971 40.6824 40.3499 41.4824 40.6289 42.243C40.7418 42.4636 40.9112 42.5985 41.137 42.6475C41.5885 42.721 42.153 42.4271 42.8303 41.7654C43.3321 41.2261 43.6205 40.6373 43.6957 40.0001C43.795 39.436 44.202 38.9349 44.3354 38.3456V37.868C44.4606 37.6229 44.5672 37.3838 44.6552 37.151C44.7808 36.8126 44.7945 36.3813 44.8242 35.993C45.2186 35.6077 45.6034 35.2637 45.8779 34.7796C46.0535 34.4854 46.104 34.2289 46.0287 34.0083C46.0046 33.9593 45.9418 33.9099 45.8405 33.8609L45.2756 33.6404C45.2853 33.3322 45.8652 33.3781 46.141 33.4198L47.4952 32.6109C47.445 34.2775 47.1128 35.8894 46.4983 37.4458C45.8837 39.0021 44.9747 40.4045 43.7705 41.6545C42.1651 43.3702 40.2393 44.5961 37.9941 45.3314C35.749 46.0667 33.4349 46.2136 31.0518 45.7724C31.4621 45.0643 31.6989 44.2663 32.1814 43.5661C32.1814 43.1985 32.2376 42.886 32.3504 42.6286C32.8293 41.546 33.6108 41.2644 34.5144 40.4234C35.4263 39.4947 35.4178 38.3974 35.4547 37.059C35.4422 36.2118 34.0559 35.6918 33.4222 35.2206C31.9535 34.2535 31.0208 32.8307 28.9263 33.2536C28.1778 33.3282 27.9966 33.4703 27.4394 33.0153L27.2137 32.9045L27.233 32.8314L27.3271 32.6474C27.5519 32.4177 27.2327 32.1289 26.9312 32.2241C26.8685 32.2363 26.8001 32.2429 26.7248 32.2429C26.656 31.9146 26.4306 31.6091 26.3857 31.25C26.7369 31.5196 27.0388 31.7225 27.2896 31.8573C27.5404 31.9921 27.7537 32.0842 27.9293 32.1332C28.105 32.2068 28.2553 32.2309 28.3807 32.2064C28.6567 32.1574 28.8127 31.8876 28.8503 31.3974C28.8879 30.9072 28.8699 30.3436 28.7947 29.7064C28.87 29.6084 28.9193 29.5097 28.9444 29.4116C29.2096 28.072 29.9117 28.3658 30.9769 27.9788C31.1525 27.8807 31.1895 27.7579 31.0892 27.6109C31.0892 27.5863 31.0836 27.5743 31.0711 27.5743C31.0586 27.5743 31.0518 27.5611 31.0518 27.5366C31.6308 27.2524 31.9719 26.6707 32.3311 26.1403C32.0251 25.6665 31.5499 25.2708 31.0143 25C30.7271 24.6539 29.5994 24.8661 29.3584 24.3019C29.1577 24.2773 29.0074 24.2401 28.907 24.1911C27.8911 23.5478 27.462 22.4229 26.3676 21.967C25.9286 21.9302 25.4954 21.9368 25.0689 21.9858C26.3483 20.9809 27.741 20.2331 29.2461 19.7429ZM20.1023 30.1108C20.3281 30.4784 20.6042 30.8096 20.9303 31.1037C22.6228 32.6229 24.2138 32.9448 26.3857 33.7134C26.4859 33.787 26.624 33.9097 26.7997 34.0813C27.0363 34.2568 27.2366 34.467 27.4779 34.6332C27.4779 34.7557 27.4589 34.9268 27.4212 35.1474C27.3836 35.368 27.3768 35.7232 27.4019 36.2134C27.4745 37.5774 28.6258 38.6572 28.9444 39.9634C28.6618 41.6562 28.6578 43.32 28.4556 45C26.7498 44.3138 25.2516 43.3335 23.9597 42.059C22.6678 40.7845 21.6701 39.302 20.9677 37.6108C20.466 36.3853 20.1462 35.1408 20.0082 33.8785C19.87 32.6163 19.9015 31.3608 20.1023 30.1108Z" fill="white"/>
</svg>
