<svg width="56" height="55" viewBox="0 0 56 55" fill="none" xmlns="http://www.w3.org/2000/svg">
<circle cx="28.45" cy="27.5" r="27.5" fill="#5956E9" fill-opacity="0.24"/>
<path d="M32.9576 15.294C32.9943 15.1685 33.0071 15.0366 32.9954 14.9059C32.9836 14.7751 32.9475 14.6481 32.8891 14.532C32.8307 14.416 32.7512 14.3131 32.6551 14.2294C32.5589 14.1457 32.4481 14.0828 32.3288 14.0442C32.2096 14.0056 32.0843 13.9921 31.96 14.0044C31.8358 14.0168 31.7152 14.0548 31.6049 14.1163C31.4946 14.1778 31.397 14.2615 31.3175 14.3627C31.2379 14.4639 31.1781 14.5806 31.1415 14.7061L23.5424 40.703C23.4683 40.9565 23.4929 41.2306 23.6109 41.465C23.7288 41.6994 23.9303 41.8749 24.1712 41.9529C24.412 42.0308 24.6724 42.0049 24.8951 41.8807C25.1178 41.7566 25.2845 41.5445 25.3585 41.2909L32.9576 15.294V15.294ZM22.2733 20.2914C22.3618 20.3843 22.432 20.4947 22.4798 20.6161C22.5277 20.7376 22.5524 20.8678 22.5524 20.9994C22.5524 21.1309 22.5277 21.2611 22.4798 21.3826C22.432 21.504 22.3618 21.6144 22.2733 21.7073L16.2947 27.9985L22.2733 34.2898C22.4517 34.4775 22.5519 34.7322 22.5519 34.9977C22.5519 35.2632 22.4517 35.5178 22.2733 35.7056C22.0949 35.8934 21.853 35.9988 21.6008 35.9988C21.3485 35.9988 21.1066 35.8934 20.9283 35.7056L14.2791 28.7064C14.1906 28.6136 14.1204 28.5032 14.0725 28.3817C14.0246 28.2603 14 28.13 14 27.9985C14 27.867 14.0246 27.7368 14.0725 27.6153C14.1204 27.4938 14.1906 27.3835 14.2791 27.2906L20.9283 20.2914C21.0165 20.1983 21.1213 20.1244 21.2367 20.074C21.3521 20.0236 21.4758 19.9977 21.6008 19.9977C21.7257 19.9977 21.8495 20.0236 21.9649 20.074C22.0803 20.1244 22.1851 20.1983 22.2733 20.2914V20.2914ZM34.2267 20.2914C34.1382 20.3843 34.068 20.4947 34.0202 20.6161C33.9723 20.7376 33.9476 20.8678 33.9476 20.9994C33.9476 21.1309 33.9723 21.2611 34.0202 21.3826C34.068 21.504 34.1382 21.6144 34.2267 21.7073L40.2053 27.9985L34.2267 34.2898C34.1384 34.3827 34.0683 34.4931 34.0205 34.6146C33.9727 34.736 33.9481 34.8662 33.9481 34.9977C33.9481 35.1292 33.9727 35.2593 34.0205 35.3808C34.0683 35.5023 34.1384 35.6126 34.2267 35.7056C34.315 35.7986 34.4199 35.8723 34.5352 35.9226C34.6506 35.9729 34.7743 35.9988 34.8992 35.9988C35.0241 35.9988 35.1478 35.9729 35.2632 35.9226C35.3786 35.8723 35.4834 35.7986 35.5717 35.7056L42.2209 28.7064C42.3094 28.6136 42.3796 28.5032 42.4275 28.3817C42.4753 28.2603 42.5 28.13 42.5 27.9985C42.5 27.867 42.4753 27.7368 42.4275 27.6153C42.3796 27.4938 42.3094 27.3835 42.2209 27.2906L35.5717 20.2914C35.4835 20.1983 35.3787 20.1244 35.2633 20.074C35.1479 20.0236 35.0242 19.9977 34.8992 19.9977C34.7743 19.9977 34.6505 20.0236 34.5351 20.074C34.4197 20.1244 34.3149 20.1983 34.2267 20.2914V20.2914Z" fill="#5956E9"/>
</svg>
