<svg width="351" height="342" viewBox="0 0 351 342" fill="none" xmlns="http://www.w3.org/2000/svg">
<path d="M327.556 161.071C328.37 156.402 329.678 151.784 330.614 147.028C332.307 137.847 332.439 128.446 331.004 119.22C328.277 101.517 321.238 84.7559 310.507 70.4136C299.09 55.0975 281.92 42.6922 263.468 47.3789C244.271 52.2301 228.019 67.035 209.351 73.7921C177.731 85.2272 145.722 64.3842 113.859 65.1292C86.346 65.7269 57.4811 75.6027 39.3583 100.023C31.9602 109.994 26.8058 123.413 28.5557 136.616C30.6954 152.703 42.503 164.943 51.3045 176.846C64.8013 195.09 69.9124 214.963 58.5553 236.256C50.88 250.689 40.5538 263.441 41.4461 281.364C42.8755 310.038 69.3493 327.356 91.1799 335.074C113.357 342.923 138.54 343.737 160.587 334.901C180.174 327.018 193.844 309.779 211.698 298.777C227.35 289.081 245.844 285.022 264.118 287.272C282.985 289.525 302.867 293.492 321.102 285.358C338.549 277.561 346.814 256.727 347.463 236.759C347.831 226.796 346.33 216.853 343.037 207.444C338.991 196.13 330.042 187.302 327.521 175.304C326.618 170.602 326.63 165.769 327.556 161.071Z" fill="#5956E9"/>
<path opacity="0.7" d="M327.556 161.071C328.37 156.402 329.678 151.784 330.614 147.028C332.307 137.847 332.439 128.446 331.004 119.22C328.277 101.517 321.238 84.7559 310.507 70.4136C299.09 55.0975 281.92 42.6922 263.468 47.3789C244.271 52.2301 228.019 67.035 209.351 73.7921C177.731 85.2272 145.722 64.3842 113.859 65.1292C86.346 65.7269 57.4811 75.6027 39.3583 100.023C31.9602 109.994 26.8058 123.413 28.5557 136.616C30.6954 152.703 42.503 164.943 51.3045 176.846C64.8013 195.09 69.9124 214.963 58.5553 236.256C50.88 250.689 40.5538 263.441 41.4461 281.364C42.8755 310.038 69.3493 327.356 91.1799 335.074C113.357 342.923 138.54 343.737 160.587 334.901C180.174 327.018 193.844 309.779 211.698 298.777C227.35 289.081 245.844 285.022 264.118 287.272C282.985 289.525 302.867 293.492 321.102 285.358C338.549 277.561 346.814 256.727 347.463 236.759C347.831 226.796 346.33 216.853 343.037 207.444C338.991 196.13 330.042 187.302 327.521 175.304C326.618 170.602 326.63 165.769 327.556 161.071Z" fill="white"/>
<path d="M277.883 20.9743C277.935 20.9743 279.485 16.8854 279.555 16.6428C280.343 13.4982 280.005 6.95768 276.956 5.04317C276.435 4.74837 275.859 4.56469 275.263 4.50373C274.668 4.44277 274.067 4.50585 273.497 4.68899C272.927 4.87213 272.401 5.17135 271.953 5.56779C271.505 5.96422 271.143 6.44927 270.892 6.99233C269.757 9.29666 270.554 12.3547 271.646 14.5204C272.876 17.0153 277.883 20.9656 277.883 20.9743Z" fill="#5956E9"/>
<path d="M349.758 50.9567C347.22 48.3578 340.766 49.432 337.864 50.8787C337.613 51 333.914 53.3996 333.966 53.4776L334.018 53.5296C333.004 53.6942 331.904 53.8761 330.717 54.1013C328.526 54.5431 326.048 55.0542 323.397 55.8339C320.525 56.5948 317.701 57.5292 314.942 58.632C311.843 59.8435 308.857 61.3278 306.019 63.0674L305.924 63.1367C306.617 62.3311 308.471 60.0008 308.601 59.8102C310.334 57.064 312.066 50.7488 309.719 47.968C309.313 47.5241 308.819 47.1697 308.268 46.9271C307.718 46.6846 307.123 46.5594 306.522 46.5594C305.92 46.5594 305.326 46.6846 304.775 46.9271C304.225 47.1697 303.731 47.5241 303.325 47.968C301.532 49.8045 301.333 52.9492 301.697 55.3488C302.112 58.0429 305.344 63.0068 305.604 63.4053C302.761 65.2404 300.046 67.2664 297.478 69.4693C295.97 70.7514 294.498 72.0682 293.034 73.4369C293.605 72.7179 294.117 72.0769 294.177 71.9729C295.91 69.2268 297.642 62.9115 295.303 60.1307C294.898 59.6869 294.404 59.3324 293.853 59.0899C293.303 58.8474 292.708 58.7221 292.107 58.7221C291.505 58.7221 290.911 58.8474 290.36 59.0899C289.81 59.3324 289.316 59.6869 288.91 60.1307C287.117 61.9672 286.918 65.1205 287.282 67.5115C287.645 69.9025 290.322 74.2253 291.041 75.3081L289.378 76.8761C286.718 79.4057 284.076 81.9439 281.408 84.3522C280.473 85.2185 279.511 86.0068 278.558 86.8125C279.069 86.1714 279.494 85.6343 279.554 85.5477C281.287 82.8016 283.019 76.4863 280.672 73.6968C280.269 73.2502 279.778 72.8924 279.229 72.6461C278.68 72.3999 278.086 72.2706 277.485 72.2665C276.883 72.2625 276.288 72.3837 275.736 72.6225C275.184 72.8613 274.687 73.2124 274.279 73.6535C272.494 75.4901 272.286 78.6434 272.65 81.0343C273.014 83.4253 275.439 87.3323 276.288 88.675C275.292 89.472 274.287 90.269 273.282 90.9967C272.581 91.4731 271.94 91.9842 271.212 92.426L269.098 93.7775C267.721 94.5831 266.309 95.4234 264.949 96.1858C264.004 96.7142 263.095 97.1993 262.185 97.7018C263.129 96.8355 264.94 95.1895 265.079 95.0336C266.871 92.8102 268.064 90.1648 268.544 87.3496C268.755 87.113 268.941 86.8545 269.098 86.5786C269.415 86.0678 269.622 85.4966 269.706 84.9015C269.79 84.3064 269.749 83.7003 269.586 83.1218C269.423 82.5433 269.141 82.005 268.759 81.5413C268.377 81.0775 267.902 80.6983 267.366 80.4279C264.862 79.2757 261.016 80.913 258.347 82.8102C258.46 80.965 258.408 79.8302 258.408 79.8302L257.706 79.8995L258.217 78.678C258.564 77.9157 258.824 77.0667 259.127 76.2524C259.803 74.3465 260.392 72.3801 260.946 70.3963C262.202 71.0027 266.681 73.1251 269.115 73.2117C271.55 73.2983 274.642 72.7439 276.262 70.7514C276.655 70.295 276.947 69.7618 277.122 69.1859C277.297 68.6099 277.349 68.0039 277.277 67.4065C277.204 66.809 277.008 66.2333 276.701 65.7159C276.393 65.1985 275.981 64.7509 275.491 64.4015C272.459 62.4091 266.378 64.8433 263.848 66.8704C263.692 67.0004 262.038 68.6637 261.154 69.5906C261.475 68.3951 261.804 67.1996 262.09 65.9695C262.913 62.4437 263.64 58.8399 264.385 55.2535C264.611 54.1533 264.853 53.0618 265.087 51.9616C265.529 52.1868 270.805 54.8203 273.525 54.9156C275.95 55.0023 279.052 54.4478 280.672 52.4554C281.063 51.9991 281.354 51.4665 281.528 50.8914C281.702 50.3164 281.754 49.7114 281.682 49.1151C281.609 48.5187 281.413 47.9439 281.107 47.4273C280.8 46.9107 280.389 46.4635 279.901 46.1141C276.869 44.113 270.787 46.5473 268.258 48.583C268.067 48.7303 265.659 51.1213 265.13 51.7623C265.642 49.354 266.187 46.9544 266.811 44.6068C267.638 41.4404 268.674 38.3323 269.912 35.3028C270.12 35.4067 275.613 38.1789 278.402 38.2742C280.819 38.3695 283.929 37.8064 285.549 35.8139C285.939 35.3571 286.23 34.824 286.403 34.2486C286.577 33.6732 286.628 33.0681 286.555 32.4717C286.482 31.8753 286.285 31.3006 285.978 30.7843C285.67 30.268 285.259 29.8213 284.769 29.4726C281.737 27.4715 275.665 29.9058 273.135 31.9416C272.936 32.0975 270.389 34.6704 269.956 35.1728C270.034 34.9996 270.086 34.809 270.164 34.6357C271.48 31.6116 273.066 28.7122 274.902 25.9728C275.898 24.4568 276.929 23.0534 277.969 21.7193C278.939 22.3431 283.401 25.1325 285.904 25.505C288.408 25.8775 291.448 25.635 293.276 23.8417C293.715 23.4305 294.064 22.9324 294.3 22.3791C294.535 21.8258 294.653 21.2294 294.646 20.628C294.639 20.0265 294.506 19.4332 294.257 18.8858C294.008 18.3384 293.647 17.8489 293.198 17.4485C290.409 15.1269 284.102 16.8854 281.365 18.6267C281.218 18.7133 279.805 19.8482 278.766 20.6798C279.242 20.0907 279.719 19.467 280.187 18.9039C281.919 16.7901 283.652 14.9623 285.228 13.3596C286.095 12.4933 286.961 11.627 287.715 10.908C288.988 11.0206 294.108 11.4105 296.456 10.6048C298.803 9.79917 301.445 8.17054 302.234 5.7276C302.434 5.1609 302.514 4.55868 302.469 3.95926C302.425 3.35985 302.255 2.77636 301.973 2.2459C301.69 1.71545 301.3 1.24966 300.827 0.878161C300.355 0.506658 299.81 0.237575 299.228 0.0880379C295.676 -0.682962 290.885 3.7871 289.257 6.58522C289.118 6.82779 287.36 10.8734 287.42 10.9167H287.498C286.736 11.6097 285.93 12.3721 285.064 13.2124C283.47 14.789 281.694 16.5822 279.866 18.67C277.895 20.8941 276.055 23.2313 274.356 25.6696C272.442 28.4038 270.775 31.3029 269.375 34.3325L269.323 34.4452C269.462 33.3883 269.73 30.4256 269.722 30.1917C269.653 26.9517 267.608 20.7318 264.126 19.6922C263.545 19.5408 262.939 19.5119 262.346 19.6072C261.753 19.7024 261.187 19.9199 260.683 20.2457C260.178 20.5716 259.747 20.9986 259.417 21.4999C259.087 22.0011 258.864 22.5656 258.763 23.1574C258.287 25.6696 259.855 28.4071 261.483 30.209C263.311 32.2361 268.752 34.5405 269.185 34.7744C267.828 37.869 266.685 41.0528 265.763 44.3036C265.208 46.2007 264.715 48.1239 264.238 50.0644C264.325 49.1461 264.394 48.3318 264.385 48.2105C264.316 44.9706 262.272 38.7506 258.789 37.7111C258.209 37.5611 257.604 37.5332 257.012 37.6291C256.42 37.7251 255.855 37.9428 255.352 38.2685C254.849 38.5942 254.418 39.0208 254.089 39.5213C253.759 40.0218 253.536 40.5854 253.436 41.1762C252.95 43.6885 254.527 46.426 256.147 48.2279C257.767 50.0297 262.393 52.1435 263.614 52.6893C263.441 53.4343 263.259 54.1706 263.086 54.9156C262.263 58.4934 261.466 62.0712 260.565 65.545C260.253 66.7752 259.898 67.9706 259.552 69.1661C259.621 68.3605 259.673 67.6674 259.673 67.5635C259.604 64.3236 257.559 58.1036 254.077 57.064C253.496 56.914 252.891 56.8861 252.299 56.9821C251.708 57.078 251.142 57.2957 250.639 57.6214C250.136 57.9471 249.706 58.3737 249.376 58.8743C249.046 59.3748 248.824 59.9383 248.723 60.5292C248.238 63.0501 249.806 65.7876 251.434 67.5895C253.063 69.3914 257.23 71.2972 258.677 71.9209C258.287 73.1424 257.888 74.3552 257.446 75.516C257.135 76.3044 256.883 77.084 256.52 77.855L255.523 80.0901C254.752 80.22 253.86 80.3933 252.864 80.6185C252.604 77.3526 251.382 73.3676 248.896 72.1895C248.343 71.9516 247.746 71.8318 247.143 71.8377C246.541 71.8436 245.947 71.9751 245.398 72.2238C244.849 72.4724 244.359 72.8328 243.957 73.2818C243.555 73.7309 243.252 74.2587 243.066 74.8317C242.2 77.2486 243.352 80.194 244.686 82.2125C244.881 82.519 245.101 82.8087 245.344 83.0788C241.087 84.8151 237.259 87.4579 234.126 90.8234C225.142 100.872 225.818 116.136 225.818 116.136C225.818 116.136 238.561 115.27 247.614 107.474C250.395 106.157 253.99 104.407 258.105 102.198C259.647 101.383 261.275 100.465 262.939 99.521C263.381 100.067 266.958 104.502 269.341 105.706C271.506 106.806 274.538 107.595 276.86 106.469C277.404 106.218 277.89 105.857 278.287 105.409C278.684 104.961 278.985 104.436 279.169 103.866C279.353 103.296 279.416 102.694 279.356 102.098C279.296 101.503 279.112 100.926 278.818 100.405C276.903 97.3206 270.363 96.9914 267.218 97.8057C267.036 97.8577 265.079 98.5854 263.848 99.0618C264.524 98.672 265.191 98.2995 265.884 97.8837C267.262 97.078 268.613 96.2377 270.068 95.3368L272.156 93.9421C272.858 93.4916 273.551 92.9285 274.253 92.4174C275.864 91.2046 277.441 89.8878 279 88.5364C279.71 89.7405 282.283 93.9767 284.258 95.3888C286.233 96.8008 289.127 98.0483 291.578 97.2859C292.157 97.1206 292.695 96.8365 293.158 96.4517C293.62 96.067 293.998 95.59 294.266 95.0512C294.534 94.5125 294.687 93.9238 294.715 93.3226C294.743 92.7215 294.645 92.1211 294.428 91.5598C293.008 88.2245 286.589 86.8991 283.366 87.2283C283.158 87.2283 280.871 87.7221 279.615 88.008C280.542 87.185 281.477 86.362 282.396 85.5044C284.995 83.0095 287.593 80.4106 290.192 77.829C290.989 77.0321 291.795 76.2524 292.592 75.4727C292.834 75.8972 295.789 81.0083 298.006 82.5936C299.973 84.0057 302.875 85.2445 305.318 84.4822C305.896 84.3176 306.434 84.0344 306.897 83.6507C307.36 83.2669 307.738 82.791 308.007 82.2531C308.276 81.7153 308.429 81.1274 308.459 80.5268C308.488 79.9262 308.392 79.3261 308.177 78.7646C306.747 75.4208 300.38 74.104 297.105 74.4332C296.863 74.4332 293.571 75.1435 292.774 75.3601C294.506 73.6275 296.308 71.8949 298.119 70.327C300.56 68.1397 303.141 66.1141 305.846 64.2629C305.959 64.4622 309.017 69.8072 311.286 71.4271C313.253 72.8392 316.155 74.0867 318.598 73.3157C319.176 73.1511 319.714 72.8679 320.177 72.4842C320.64 72.1004 321.018 71.6245 321.287 71.0866C321.556 70.5488 321.71 69.9609 321.739 69.3603C321.768 68.7597 321.672 68.1596 321.457 67.5981C320.027 64.2543 313.617 62.9375 310.386 63.2667C310.134 63.2667 306.591 64.0377 305.95 64.2196C306.115 64.107 306.262 63.9857 306.418 63.8817C309.181 62.1 312.097 60.5692 315.133 59.3077C316.796 58.5887 318.425 57.991 320.027 57.4539C320.495 58.5021 322.678 63.2927 324.567 64.9819C326.455 66.6712 329.115 68.1526 331.627 67.6674C332.221 67.5671 332.787 67.344 333.29 67.0125C333.792 66.681 334.22 66.2483 334.546 65.7421C334.873 65.2359 335.089 64.6672 335.183 64.0725C335.277 63.4777 335.246 62.8699 335.092 62.2878C334.035 58.8226 327.807 56.7955 324.567 56.7435C324.385 56.7435 322.592 56.8994 321.284 57.0467C322.011 56.8128 322.756 56.5529 323.458 56.345C326.057 55.548 328.543 54.9849 330.726 54.4998C331.965 54.2313 333.091 54.0147 334.191 53.8328C335.187 54.6211 339.25 57.7744 341.65 58.3981C344.05 59.0219 347.151 59.1171 349.161 57.5318C349.674 57.1702 350.103 56.7012 350.417 56.1574C350.731 55.6136 350.924 55.008 350.981 54.3825C351.037 53.757 350.958 53.1267 350.747 52.5351C350.536 51.9436 350.198 51.405 349.758 50.9567ZM257.152 100.24C255.263 101.202 253.479 102.077 251.833 102.839C254.62 98.7962 256.535 94.2174 257.455 89.394C257.949 89.5153 258.451 89.6193 258.954 89.7146C259.101 92.4434 261.275 97.2946 261.553 97.9183C260.045 98.75 258.564 99.5643 257.152 100.24Z" fill="#5956E9"/>
<path d="M324.178 53.9194C326.569 51.7277 329.904 46.1228 328.388 42.7963C328.118 42.2595 327.739 41.7849 327.275 41.4026C326.811 41.0204 326.273 40.7388 325.694 40.5758C325.116 40.4129 324.51 40.3721 323.915 40.4561C323.319 40.5401 322.748 40.747 322.237 41.0637C320.028 42.3631 318.998 45.3432 318.72 47.7515C318.391 50.5756 320.384 56.6309 320.384 56.6309C320.384 56.6309 323.979 54.11 324.178 53.9194Z" fill="#5956E9"/>
<path d="M219.269 26.9603C219.269 26.9603 200.773 45.7242 200.678 68.9755C200.583 92.2267 218.87 111.138 218.87 111.138C218.87 111.138 237.383 92.374 237.461 69.1314C237.539 45.8888 219.269 26.9603 219.269 26.9603Z" fill="#5956E9"/>
<path d="M178.613 80.1333C178.613 80.1333 178.501 95.4147 187.848 105.126C197.195 114.837 212.459 115.305 212.459 115.305C212.459 115.305 212.581 100.023 203.233 90.3122C193.886 80.6011 178.613 80.1333 178.613 80.1333Z" fill="#5956E9"/>
<path d="M277.883 20.9743C277.935 20.9743 279.485 16.8854 279.555 16.6428C280.343 13.4982 280.005 6.95768 276.956 5.04317C276.435 4.74837 275.859 4.56469 275.263 4.50373C274.668 4.44277 274.067 4.50585 273.497 4.68899C272.927 4.87213 272.401 5.17135 271.953 5.56779C271.505 5.96422 271.143 6.44927 270.892 6.99233C269.757 9.29666 270.554 12.3547 271.646 14.5204C272.876 17.0153 277.883 20.9656 277.883 20.9743Z" fill="white"/>
<path d="M349.758 50.9567C347.22 48.3578 340.766 49.432 337.864 50.8787C337.613 51 333.914 53.3996 333.966 53.4776L334.018 53.5296C333.004 53.6942 331.904 53.8761 330.717 54.1013C328.526 54.5431 326.048 55.0542 323.397 55.8339C320.525 56.5948 317.701 57.5292 314.942 58.632C311.843 59.8435 308.857 61.3278 306.019 63.0674L305.924 63.1367C306.617 62.3311 308.471 60.0008 308.601 59.8102C310.334 57.064 312.066 50.7488 309.719 47.968C309.313 47.5241 308.819 47.1697 308.268 46.9271C307.718 46.6846 307.123 46.5594 306.522 46.5594C305.92 46.5594 305.326 46.6846 304.775 46.9271C304.225 47.1697 303.731 47.5241 303.325 47.968C301.532 49.8045 301.333 52.9492 301.697 55.3488C302.112 58.0429 305.344 63.0068 305.604 63.4053C302.761 65.2404 300.046 67.2664 297.478 69.4693C295.97 70.7514 294.498 72.0682 293.034 73.4369C293.605 72.7179 294.117 72.0769 294.177 71.9729C295.91 69.2268 297.642 62.9115 295.303 60.1307C294.898 59.6869 294.404 59.3324 293.853 59.0899C293.303 58.8474 292.708 58.7221 292.107 58.7221C291.505 58.7221 290.911 58.8474 290.36 59.0899C289.81 59.3324 289.316 59.6869 288.91 60.1307C287.117 61.9672 286.918 65.1205 287.282 67.5115C287.645 69.9025 290.322 74.2253 291.041 75.3081L289.378 76.8761C286.718 79.4057 284.076 81.9439 281.408 84.3522C280.473 85.2185 279.511 86.0068 278.558 86.8125C279.069 86.1714 279.494 85.6343 279.554 85.5477C281.287 82.8016 283.019 76.4863 280.672 73.6968C280.269 73.2502 279.778 72.8924 279.229 72.6461C278.68 72.3999 278.086 72.2706 277.485 72.2665C276.883 72.2625 276.288 72.3837 275.736 72.6225C275.184 72.8613 274.687 73.2124 274.279 73.6535C272.494 75.4901 272.286 78.6434 272.65 81.0343C273.014 83.4253 275.439 87.3323 276.288 88.675C275.292 89.472 274.287 90.269 273.282 90.9967C272.581 91.4731 271.94 91.9842 271.212 92.426L269.098 93.7775C267.721 94.5831 266.309 95.4234 264.949 96.1858C264.004 96.7142 263.095 97.1993 262.185 97.7018C263.129 96.8355 264.94 95.1895 265.079 95.0336C266.871 92.8102 268.064 90.1648 268.544 87.3496C268.755 87.113 268.941 86.8545 269.098 86.5786C269.415 86.0678 269.622 85.4966 269.706 84.9015C269.79 84.3064 269.749 83.7003 269.586 83.1218C269.423 82.5433 269.141 82.005 268.759 81.5413C268.377 81.0775 267.902 80.6983 267.366 80.4279C264.862 79.2757 261.016 80.913 258.347 82.8102C258.46 80.965 258.408 79.8302 258.408 79.8302L257.706 79.8995L258.217 78.678C258.564 77.9157 258.824 77.0667 259.127 76.2524C259.803 74.3465 260.392 72.3801 260.946 70.3963C262.202 71.0027 266.681 73.1251 269.115 73.2117C271.55 73.2983 274.642 72.7439 276.262 70.7514C276.655 70.295 276.947 69.7618 277.122 69.1859C277.297 68.6099 277.349 68.0039 277.277 67.4065C277.204 66.809 277.008 66.2333 276.701 65.7159C276.393 65.1985 275.981 64.7509 275.491 64.4015C272.459 62.4091 266.378 64.8433 263.848 66.8704C263.692 67.0004 262.038 68.6637 261.154 69.5906C261.475 68.3951 261.804 67.1996 262.09 65.9695C262.913 62.4437 263.64 58.8399 264.385 55.2535C264.611 54.1533 264.853 53.0618 265.087 51.9616C265.529 52.1868 270.805 54.8203 273.525 54.9156C275.95 55.0023 279.052 54.4478 280.672 52.4554C281.063 51.9991 281.354 51.4665 281.528 50.8914C281.702 50.3164 281.754 49.7114 281.682 49.1151C281.609 48.5187 281.413 47.9439 281.107 47.4273C280.8 46.9107 280.389 46.4635 279.901 46.1141C276.869 44.113 270.787 46.5473 268.258 48.583C268.067 48.7303 265.659 51.1213 265.13 51.7623C265.642 49.354 266.187 46.9544 266.811 44.6068C267.638 41.4404 268.674 38.3323 269.912 35.3028C270.12 35.4067 275.613 38.1789 278.402 38.2742C280.819 38.3695 283.929 37.8064 285.549 35.8139C285.939 35.3571 286.23 34.824 286.403 34.2486C286.577 33.6732 286.628 33.0681 286.555 32.4717C286.482 31.8753 286.285 31.3006 285.978 30.7843C285.67 30.268 285.259 29.8213 284.769 29.4726C281.737 27.4715 275.665 29.9058 273.135 31.9416C272.936 32.0975 270.389 34.6704 269.956 35.1728C270.034 34.9996 270.086 34.809 270.164 34.6357C271.48 31.6116 273.066 28.7122 274.902 25.9728C275.898 24.4568 276.929 23.0534 277.969 21.7193C278.939 22.3431 283.401 25.1325 285.904 25.505C288.408 25.8775 291.448 25.635 293.276 23.8417C293.715 23.4305 294.064 22.9324 294.3 22.3791C294.535 21.8258 294.653 21.2294 294.646 20.628C294.639 20.0265 294.506 19.4332 294.257 18.8858C294.008 18.3384 293.647 17.8489 293.198 17.4485C290.409 15.1269 284.102 16.8854 281.365 18.6267C281.218 18.7133 279.805 19.8482 278.766 20.6798C279.242 20.0907 279.719 19.467 280.187 18.9039C281.919 16.7901 283.652 14.9623 285.228 13.3596C286.095 12.4933 286.961 11.627 287.715 10.908C288.988 11.0206 294.108 11.4105 296.456 10.6048C298.803 9.79917 301.445 8.17054 302.234 5.7276C302.434 5.1609 302.514 4.55868 302.469 3.95926C302.425 3.35985 302.255 2.77636 301.973 2.2459C301.69 1.71545 301.3 1.24966 300.827 0.878161C300.355 0.506658 299.81 0.237575 299.228 0.0880379C295.676 -0.682962 290.885 3.7871 289.257 6.58522C289.118 6.82779 287.36 10.8734 287.42 10.9167H287.498C286.736 11.6097 285.93 12.3721 285.064 13.2124C283.47 14.789 281.694 16.5822 279.866 18.67C277.895 20.8941 276.055 23.2313 274.356 25.6696C272.442 28.4038 270.775 31.3029 269.375 34.3325L269.323 34.4452C269.462 33.3883 269.73 30.4256 269.722 30.1917C269.653 26.9517 267.608 20.7318 264.126 19.6922C263.545 19.5408 262.939 19.5119 262.346 19.6072C261.753 19.7024 261.187 19.9199 260.683 20.2457C260.178 20.5716 259.747 20.9986 259.417 21.4999C259.087 22.0011 258.864 22.5656 258.763 23.1574C258.287 25.6696 259.855 28.4071 261.483 30.209C263.311 32.2361 268.752 34.5405 269.185 34.7744C267.828 37.869 266.685 41.0528 265.763 44.3036C265.208 46.2007 264.715 48.1239 264.238 50.0644C264.325 49.1461 264.394 48.3318 264.385 48.2105C264.316 44.9706 262.272 38.7506 258.789 37.7111C258.209 37.5611 257.604 37.5332 257.012 37.6291C256.42 37.7251 255.855 37.9428 255.352 38.2685C254.849 38.5942 254.418 39.0208 254.089 39.5213C253.759 40.0218 253.536 40.5854 253.436 41.1762C252.95 43.6885 254.527 46.426 256.147 48.2279C257.767 50.0297 262.393 52.1435 263.614 52.6893C263.441 53.4343 263.259 54.1706 263.086 54.9156C262.263 58.4934 261.466 62.0712 260.565 65.545C260.253 66.7752 259.898 67.9706 259.552 69.1661C259.621 68.3605 259.673 67.6674 259.673 67.5635C259.604 64.3236 257.559 58.1036 254.077 57.064C253.496 56.914 252.891 56.8861 252.299 56.9821C251.708 57.078 251.142 57.2957 250.639 57.6214C250.136 57.9471 249.706 58.3737 249.376 58.8743C249.046 59.3748 248.824 59.9383 248.723 60.5292C248.238 63.0501 249.806 65.7876 251.434 67.5895C253.063 69.3914 257.23 71.2972 258.677 71.9209C258.287 73.1424 257.888 74.3552 257.446 75.516C257.135 76.3044 256.883 77.084 256.52 77.855L255.523 80.0901C254.752 80.22 253.86 80.3933 252.864 80.6185C252.604 77.3526 251.382 73.3676 248.896 72.1895C248.343 71.9516 247.746 71.8318 247.143 71.8377C246.541 71.8436 245.947 71.9751 245.398 72.2238C244.849 72.4724 244.359 72.8328 243.957 73.2818C243.555 73.7309 243.252 74.2587 243.066 74.8317C242.2 77.2486 243.352 80.194 244.686 82.2125C244.881 82.519 245.101 82.8087 245.344 83.0788C241.087 84.8151 237.259 87.4579 234.126 90.8234C225.142 100.872 225.818 116.136 225.818 116.136C225.818 116.136 238.561 115.27 247.614 107.474C250.395 106.157 253.99 104.407 258.105 102.198C259.647 101.383 261.275 100.465 262.939 99.521C263.381 100.067 266.958 104.502 269.341 105.706C271.506 106.806 274.538 107.595 276.86 106.469C277.404 106.218 277.89 105.857 278.287 105.409C278.684 104.961 278.985 104.436 279.169 103.866C279.353 103.296 279.416 102.694 279.356 102.098C279.296 101.503 279.112 100.926 278.818 100.405C276.903 97.3206 270.363 96.9914 267.218 97.8057C267.036 97.8577 265.079 98.5854 263.848 99.0618C264.524 98.672 265.191 98.2995 265.884 97.8837C267.262 97.078 268.613 96.2377 270.068 95.3368L272.156 93.9421C272.858 93.4916 273.551 92.9285 274.253 92.4174C275.864 91.2046 277.441 89.8878 279 88.5364C279.71 89.7405 282.283 93.9767 284.258 95.3888C286.233 96.8008 289.127 98.0483 291.578 97.2859C292.157 97.1206 292.695 96.8365 293.158 96.4517C293.62 96.067 293.998 95.59 294.266 95.0512C294.534 94.5125 294.687 93.9238 294.715 93.3226C294.743 92.7215 294.645 92.1211 294.428 91.5598C293.008 88.2245 286.589 86.8991 283.366 87.2283C283.158 87.2283 280.871 87.7221 279.615 88.008C280.542 87.185 281.477 86.362 282.396 85.5044C284.995 83.0095 287.593 80.4106 290.192 77.829C290.989 77.0321 291.795 76.2524 292.592 75.4727C292.834 75.8972 295.789 81.0083 298.006 82.5936C299.973 84.0057 302.875 85.2445 305.318 84.4822C305.896 84.3176 306.434 84.0344 306.897 83.6507C307.36 83.2669 307.738 82.791 308.007 82.2531C308.276 81.7153 308.429 81.1274 308.459 80.5268C308.488 79.9262 308.392 79.3261 308.177 78.7646C306.747 75.4208 300.38 74.104 297.105 74.4332C296.863 74.4332 293.571 75.1435 292.774 75.3601C294.506 73.6275 296.308 71.8949 298.119 70.327C300.56 68.1397 303.141 66.1141 305.846 64.2629C305.959 64.4622 309.017 69.8072 311.286 71.4271C313.253 72.8392 316.155 74.0867 318.598 73.3157C319.176 73.1511 319.714 72.8679 320.177 72.4842C320.64 72.1004 321.018 71.6245 321.287 71.0866C321.556 70.5488 321.71 69.9609 321.739 69.3603C321.768 68.7597 321.672 68.1596 321.457 67.5981C320.027 64.2543 313.617 62.9375 310.386 63.2667C310.134 63.2667 306.591 64.0377 305.95 64.2196C306.115 64.107 306.262 63.9857 306.418 63.8817C309.181 62.1 312.097 60.5692 315.133 59.3077C316.796 58.5887 318.425 57.991 320.027 57.4539C320.495 58.5021 322.678 63.2927 324.567 64.9819C326.455 66.6712 329.115 68.1526 331.627 67.6674C332.221 67.5671 332.787 67.344 333.29 67.0125C333.792 66.681 334.22 66.2483 334.546 65.7421C334.873 65.2359 335.089 64.6672 335.183 64.0725C335.277 63.4777 335.246 62.8699 335.092 62.2878C334.035 58.8226 327.807 56.7955 324.567 56.7435C324.385 56.7435 322.592 56.8994 321.284 57.0467C322.011 56.8128 322.756 56.5529 323.458 56.345C326.057 55.548 328.543 54.9849 330.726 54.4998C331.965 54.2313 333.091 54.0147 334.191 53.8328C335.187 54.6211 339.25 57.7744 341.65 58.3981C344.05 59.0219 347.151 59.1171 349.161 57.5318C349.674 57.1702 350.103 56.7012 350.417 56.1574C350.731 55.6136 350.924 55.008 350.981 54.3825C351.037 53.757 350.958 53.1267 350.747 52.5351C350.536 51.9436 350.198 51.405 349.758 50.9567ZM257.152 100.24C255.263 101.202 253.479 102.077 251.833 102.839C254.62 98.7962 256.535 94.2174 257.455 89.394C257.949 89.5153 258.451 89.6193 258.954 89.7146C259.101 92.4434 261.275 97.2946 261.553 97.9183C260.045 98.75 258.564 99.5643 257.152 100.24Z" fill="white"/>
<path d="M324.176 53.9194C326.567 51.7277 329.902 46.1228 328.386 42.7963C328.116 42.2595 327.737 41.7849 327.273 41.4026C326.809 41.0204 326.271 40.7388 325.692 40.5758C325.114 40.4129 324.508 40.3721 323.913 40.4561C323.317 40.5401 322.746 40.747 322.236 41.0637C320.026 42.3631 318.996 45.3432 318.718 47.7515C318.389 50.5756 320.382 56.6309 320.382 56.6309C320.382 56.6309 323.977 54.11 324.176 53.9194Z" fill="white"/>
<path d="M219.269 26.9603C219.269 26.9603 200.773 45.7242 200.678 68.9755C200.583 92.2267 218.87 111.138 218.87 111.138C218.87 111.138 237.383 92.374 237.461 69.1314C237.539 45.8888 219.269 26.9603 219.269 26.9603Z" fill="white"/>
<path d="M178.613 80.1333C178.613 80.1333 178.501 95.4147 187.848 105.126C197.195 114.837 212.459 115.305 212.459 115.305C212.459 115.305 212.581 100.023 203.233 90.3122C193.886 80.6011 178.613 80.1333 178.613 80.1333Z" fill="white"/>
<path d="M230.894 90.0437L230.305 89.2813L219.424 97.823L219.511 79.0331L234.628 65.6576L233.987 64.9385L219.511 77.7423L219.606 57.1073L229.785 48.2884L229.162 47.5607L219.606 55.8252L219.736 26.9603H218.775L218.584 69.4866L206.612 51.9788L205.815 52.5159L218.506 71.0632L218.584 71.0112L218.506 88.6836L204.143 75.7672L203.502 76.4862L218.497 89.9744V89.9657L218.411 111.138L219.372 111.147L219.424 99.0444L230.894 90.0437Z" fill="white"/>
<path d="M258.755 80.0467L258.045 79.4056L242.036 97.3032L243.491 85.7382L242.538 85.6256L240.909 98.5507H240.918L234.481 105.75L233.269 95.0682L232.316 95.1721L233.624 106.711L225.498 115.79L226.217 116.431L230.834 111.277L239.177 111.779L239.229 110.817L231.649 110.358L238.57 102.622L250.187 102.631V101.669L239.428 101.652L247.043 93.145L254.761 93.2403L254.779 92.2787L247.9 92.1921L258.755 80.0467Z" fill="white"/>
<path d="M209.134 101.704L208.181 101.574L207.158 109.102L199.96 101.617L200.843 90.0351L199.882 89.9658L199.067 100.69L191.141 92.4607L191.816 84.768L190.855 84.6901L190.257 91.5425L178.961 79.8042L178.268 80.4712L194.918 97.7711L183.5 95.4494L183.309 96.3937L196.079 98.9839V98.9666L202.775 105.932L192.033 106.339L192.068 107.3L203.667 106.858L212.114 115.634L212.807 114.967L208.016 109.986L209.134 101.704Z" fill="white"/>
<path d="M216.16 331.444L326.777 289.94L327.574 281.096L217.771 322.591L216.16 331.444Z" fill="#5956E9" stroke="#2E353A" strokeWidth="1.13593" stroke-linecap="round" stroke-linejoin="round"/>
<path d="M197.535 184.729C195.591 184.715 193.713 184.029 192.216 182.789C190.336 181.238 189.1 179.042 188.751 176.63C188.707 176.199 188.831 175.767 189.096 175.425C189.361 175.082 189.747 174.855 190.176 174.789C190.604 174.724 191.041 174.825 191.396 175.072C191.752 175.32 191.999 175.694 192.086 176.119C192.312 177.701 193.118 179.143 194.347 180.164C194.882 180.625 195.51 180.965 196.189 181.159C196.867 181.354 197.58 181.398 198.278 181.291C198.975 181.183 199.641 180.925 200.23 180.534C200.818 180.144 201.314 179.63 201.685 179.029C201.94 178.676 202.322 178.434 202.751 178.356C203.18 178.277 203.623 178.368 203.987 178.609C204.35 178.849 204.607 179.221 204.703 179.647C204.798 180.072 204.726 180.519 204.5 180.892C203.868 181.883 203.032 182.729 202.047 183.373C201.063 184.017 199.953 184.444 198.791 184.625C198.376 184.695 197.956 184.73 197.535 184.729Z" fill="#2E353A"/>
<path d="M181.569 189.659C177.298 189.659 173.478 186.263 172.759 181.567C172.724 181.349 172.733 181.126 172.785 180.911C172.837 180.696 172.931 180.493 173.061 180.314C173.192 180.136 173.356 179.985 173.545 179.87C173.734 179.755 173.944 179.678 174.162 179.644C174.604 179.586 175.051 179.7 175.411 179.963C175.771 180.226 176.015 180.618 176.094 181.056C176.597 184.357 179.377 186.679 182.279 186.254C182.976 186.141 183.641 185.88 184.229 185.49C184.817 185.101 185.316 184.59 185.693 183.993C185.948 183.639 186.33 183.398 186.759 183.32C187.188 183.241 187.631 183.332 187.995 183.573C188.358 183.813 188.615 184.185 188.711 184.611C188.806 185.036 188.734 185.482 188.508 185.856C187.876 186.847 187.04 187.693 186.055 188.337C185.071 188.981 183.961 189.407 182.799 189.589C182.392 189.646 181.98 189.669 181.569 189.659Z" fill="#2E353A"/>
<path d="M166.965 195.263C165.022 195.25 163.144 194.568 161.646 193.332C159.767 191.779 158.532 189.584 158.181 187.172C158.137 186.741 158.26 186.31 158.525 185.968C158.791 185.625 159.177 185.398 159.605 185.332C160.033 185.266 160.47 185.368 160.826 185.615C161.181 185.862 161.428 186.237 161.516 186.661C161.742 188.243 162.548 189.685 163.777 190.707C164.317 191.159 164.946 191.494 165.624 191.688C166.301 191.882 167.012 191.931 167.71 191.833C168.405 191.719 169.068 191.459 169.655 191.069C170.242 190.679 170.74 190.169 171.114 189.572C171.397 189.298 171.766 189.128 172.158 189.091C172.551 189.055 172.944 189.153 173.274 189.37C173.603 189.587 173.848 189.91 173.969 190.285C174.09 190.661 174.079 191.066 173.938 191.434C173.303 192.426 172.466 193.271 171.48 193.915C170.494 194.558 169.384 194.985 168.221 195.168C167.806 195.235 167.385 195.267 166.965 195.263Z" fill="#2E353A"/>
<path d="M150.999 199.837C146.728 199.837 142.908 196.433 142.189 191.746C142.144 191.523 142.145 191.293 142.192 191.07C142.239 190.847 142.33 190.635 142.46 190.448C142.591 190.262 142.758 190.103 142.951 189.982C143.144 189.862 143.36 189.781 143.585 189.746C143.811 189.711 144.041 189.722 144.261 189.778C144.482 189.834 144.689 189.934 144.871 190.073C145.052 190.211 145.203 190.385 145.315 190.583C145.428 190.781 145.499 191 145.524 191.227C146.035 194.527 148.807 196.849 151.71 196.424C152.405 196.311 153.069 196.051 153.657 195.663C154.245 195.275 154.745 194.767 155.123 194.172C155.237 193.971 155.391 193.795 155.576 193.656C155.76 193.516 155.972 193.417 156.197 193.362C156.422 193.308 156.655 193.301 156.883 193.341C157.111 193.38 157.328 193.467 157.521 193.594C157.715 193.721 157.88 193.887 158.006 194.08C158.133 194.274 158.218 194.491 158.257 194.719C158.297 194.947 158.288 195.181 158.233 195.406C158.179 195.63 158.078 195.842 157.938 196.026C157.305 197.017 156.468 197.863 155.484 198.508C154.5 199.153 153.391 199.583 152.229 199.768C151.821 199.821 151.41 199.844 150.999 199.837Z" fill="#2E353A"/>
<path d="M134.652 206.335C130.39 206.335 126.569 202.939 125.842 198.244C125.868 197.85 126.028 197.478 126.295 197.187C126.561 196.897 126.919 196.706 127.309 196.647C127.698 196.587 128.097 196.662 128.438 196.86C128.779 197.057 129.043 197.365 129.186 197.732C129.688 201.033 132.469 203.346 135.371 202.93C136.067 202.815 136.731 202.554 137.319 202.165C137.907 201.775 138.407 201.265 138.784 200.669C139.039 200.315 139.422 200.074 139.851 199.996C140.28 199.917 140.722 200.008 141.086 200.249C141.45 200.489 141.707 200.861 141.802 201.287C141.898 201.712 141.825 202.159 141.6 202.532C140.966 203.522 140.13 204.367 139.146 205.011C138.162 205.654 137.052 206.082 135.891 206.265C135.48 206.318 135.066 206.341 134.652 206.335Z" fill="#2E353A"/>
<path d="M118.824 212.13C116.881 212.118 115.002 211.436 113.505 210.198C111.627 208.646 110.392 206.451 110.04 204.039C109.996 203.608 110.12 203.177 110.385 202.834C110.65 202.492 111.036 202.264 111.465 202.199C111.893 202.133 112.33 202.234 112.685 202.482C113.041 202.729 113.288 203.104 113.375 203.528C113.601 205.11 114.407 206.552 115.636 207.573C116.171 208.035 116.799 208.374 117.478 208.569C118.156 208.763 118.869 208.808 119.567 208.7C120.265 208.592 120.93 208.334 121.519 207.944C122.107 207.553 122.603 207.04 122.974 206.439C123.257 206.164 123.625 205.995 124.018 205.958C124.41 205.921 124.804 206.02 125.133 206.237C125.462 206.454 125.708 206.777 125.828 207.152C125.949 207.527 125.938 207.933 125.798 208.301C125.163 209.292 124.325 210.138 123.339 210.781C122.354 211.425 121.243 211.852 120.08 212.035C119.665 212.102 119.245 212.133 118.824 212.13Z" fill="#2E353A"/>
<path d="M219.191 326.048L310.732 292.323" stroke="#2E353A" strokeWidth="0.567964" stroke-linecap="round" stroke-linejoin="round"/>
<path d="M216.785 328.863L275.398 307.18" stroke="#2E353A" strokeWidth="0.567964" stroke-linecap="round" stroke-linejoin="round"/>
<path d="M105.943 208.241V218.697L216.162 331.445L217.773 322.591L105.943 208.241Z" fill="#5956E9" stroke="#2E353A" strokeWidth="1.13593" stroke-linecap="round" stroke-linejoin="round"/>
<path d="M107.58 216.444L173.028 281.884" stroke="#2E353A" strokeWidth="0.567964" stroke-linecap="round" stroke-linejoin="round"/>
<path d="M138.498 244.547L206.744 314.405" stroke="#2E353A" strokeWidth="0.567964" stroke-linecap="round" stroke-linejoin="round"/>
<path d="M105.943 208.241L217.773 322.591L327.575 281.096L213.771 172.03L105.943 208.241Z" fill="white" stroke="#2E353A" strokeWidth="1.13593" stroke-linecap="round" stroke-linejoin="round"/>
<path d="M104.574 206.439L1 109.769L107.095 76.6855L212.955 170.306L104.574 206.439Z" fill="#5956E9" stroke="#2E353A" strokeWidth="1.13593" stroke-linecap="round" stroke-linejoin="round"/>
<path d="M16.8516 110.41L47.1718 100.968" stroke="#2E353A" strokeWidth="1.21052" stroke-linecap="round" stroke-linejoin="round"/>
<path d="M21.332 113.893L51.6522 104.45" stroke="#2E353A" strokeWidth="1.21052" stroke-linecap="round" stroke-linejoin="round"/>
<path d="M124.379 209.055C124.049 209.057 123.726 208.96 123.452 208.778C123.086 208.525 122.832 208.141 122.742 207.705C122.651 207.27 122.732 206.816 122.967 206.439C123.832 205.095 124.166 203.476 123.902 201.899C123.755 200.704 123.256 199.58 122.467 198.669C121.679 197.759 120.637 197.104 119.476 196.788C119.056 196.673 118.697 196.401 118.473 196.028C118.249 195.655 118.178 195.21 118.274 194.786C118.37 194.362 118.626 193.991 118.989 193.751C119.351 193.51 119.792 193.419 120.221 193.496C122.044 193.964 123.686 194.964 124.938 196.37C126.189 197.776 126.993 199.523 127.246 201.388C127.642 203.799 127.123 206.271 125.791 208.319C125.631 208.545 125.42 208.73 125.174 208.859C124.929 208.987 124.656 209.054 124.379 209.055Z" fill="#2E353A"/>
<path d="M140.189 203.259C139.859 203.261 139.536 203.165 139.262 202.982C139.076 202.861 138.916 202.703 138.792 202.52C138.667 202.336 138.58 202.129 138.536 201.912C138.492 201.694 138.491 201.47 138.534 201.253C138.577 201.035 138.662 200.828 138.785 200.643C139.647 199.297 139.98 197.681 139.721 196.104C139.574 194.909 139.074 193.784 138.286 192.874C137.498 191.964 136.456 191.309 135.294 190.993C135.067 190.955 134.851 190.872 134.657 190.748C134.464 190.623 134.298 190.461 134.17 190.271C134.041 190.08 133.953 189.865 133.91 189.64C133.868 189.414 133.871 189.182 133.922 188.957C133.972 188.733 134.067 188.521 134.202 188.335C134.337 188.149 134.508 187.993 134.705 187.875C134.903 187.757 135.122 187.681 135.35 187.651C135.578 187.621 135.809 187.638 136.03 187.701C137.854 188.168 139.496 189.169 140.748 190.574C141.999 191.98 142.803 193.728 143.056 195.593C143.452 198.003 142.933 200.475 141.601 202.523C141.441 202.75 141.23 202.935 140.984 203.063C140.739 203.191 140.466 203.259 140.189 203.259Z" fill="#2E353A"/>
<path d="M203.089 181.654C202.792 181.639 202.504 181.548 202.253 181.39C202.002 181.232 201.795 181.012 201.653 180.751C201.512 180.49 201.439 180.197 201.443 179.9C201.447 179.603 201.528 179.312 201.677 179.055C202.543 177.715 202.877 176.099 202.612 174.524C202.467 173.328 201.968 172.201 201.18 171.29C200.391 170.378 199.349 169.721 198.185 169.405C197.969 169.358 197.764 169.268 197.583 169.141C197.402 169.014 197.247 168.853 197.129 168.666C197.01 168.479 196.93 168.27 196.893 168.052C196.856 167.834 196.862 167.611 196.912 167.395C197.019 166.963 197.289 166.589 197.665 166.35C198.04 166.111 198.494 166.026 198.93 166.113C200.754 166.58 202.396 167.581 203.648 168.986C204.899 170.392 205.703 172.14 205.956 174.005C206.353 176.417 205.83 178.89 204.492 180.935C204.335 181.161 204.125 181.345 203.88 181.47C203.636 181.596 203.364 181.659 203.089 181.654Z" fill="#2E353A"/>
<path d="M187.097 186.566C186.767 186.568 186.444 186.471 186.17 186.289C185.984 186.167 185.825 186.01 185.7 185.826C185.575 185.643 185.489 185.436 185.444 185.219C185.4 185.001 185.399 184.777 185.442 184.559C185.485 184.341 185.57 184.134 185.693 183.95C186.556 182.604 186.889 180.987 186.629 179.41C186.482 178.215 185.983 177.091 185.194 176.181C184.406 175.27 183.364 174.615 182.202 174.299C181.976 174.262 181.759 174.178 181.566 174.054C181.372 173.93 181.206 173.768 181.078 173.577C180.949 173.387 180.861 173.172 180.818 172.946C180.776 172.72 180.78 172.488 180.83 172.264C180.88 172.04 180.975 171.828 181.11 171.642C181.245 171.456 181.416 171.299 181.614 171.182C181.811 171.064 182.03 170.988 182.258 170.958C182.486 170.928 182.718 170.945 182.939 171.007C184.763 171.473 186.407 172.472 187.659 173.879C188.91 175.285 189.713 177.033 189.964 178.899C190.36 181.31 189.841 183.782 188.509 185.83C188.35 186.056 188.138 186.242 187.892 186.37C187.647 186.498 187.374 186.565 187.097 186.566Z" fill="#2E353A"/>
<path d="M172.489 192.197C172.159 192.196 171.836 192.096 171.562 191.911C171.197 191.658 170.943 191.274 170.852 190.838C170.762 190.403 170.843 189.95 171.077 189.572C171.947 188.23 172.284 186.611 172.022 185.033C171.875 183.837 171.375 182.713 170.587 181.803C169.798 180.893 168.757 180.238 167.595 179.922C167.368 179.884 167.152 179.801 166.958 179.676C166.765 179.552 166.599 179.39 166.47 179.199C166.342 179.009 166.254 178.794 166.211 178.568C166.168 178.343 166.172 178.11 166.222 177.886C166.273 177.662 166.368 177.45 166.503 177.264C166.637 177.078 166.809 176.921 167.006 176.804C167.204 176.686 167.423 176.61 167.651 176.58C167.879 176.55 168.11 176.567 168.331 176.63C170.155 177.097 171.797 178.097 173.049 179.503C174.3 180.909 175.104 182.656 175.357 184.522C175.753 186.932 175.234 189.404 173.901 191.452C173.743 191.68 173.532 191.867 173.286 191.997C173.041 192.126 172.767 192.195 172.489 192.197Z" fill="#2E353A"/>
<path d="M156.526 196.762C156.197 196.76 155.876 196.663 155.599 196.485C155.414 196.363 155.254 196.206 155.129 196.022C155.005 195.839 154.918 195.632 154.874 195.415C154.829 195.197 154.829 194.973 154.871 194.755C154.914 194.538 155 194.33 155.123 194.146C155.985 192.8 156.318 191.183 156.058 189.607C155.911 188.411 155.412 187.287 154.624 186.377C153.835 185.466 152.794 184.812 151.632 184.495C151.372 184.496 151.116 184.437 150.882 184.325C150.648 184.213 150.442 184.049 150.279 183.847C150.117 183.644 150.002 183.408 149.943 183.155C149.885 182.902 149.883 182.639 149.94 182.386C149.997 182.132 150.109 181.895 150.27 181.691C150.431 181.487 150.635 181.322 150.868 181.207C151.101 181.093 151.357 181.032 151.617 181.03C151.876 181.028 152.133 181.084 152.368 181.195C154.193 181.659 155.837 182.659 157.089 184.065C158.341 185.471 159.144 187.22 159.394 189.087C159.79 191.498 159.271 193.97 157.938 196.017C157.78 196.245 157.569 196.432 157.323 196.562C157.077 196.692 156.804 196.76 156.526 196.762Z" fill="#2E353A"/>
<path d="M306.438 278.453L310.7 276.885" stroke="#2E353A" strokeWidth="0.567964" stroke-linecap="round" stroke-linejoin="round"/>
<path d="M222.293 309.536L302.564 279.892" stroke="#2E353A" strokeWidth="0.567964" stroke-linecap="round" stroke-linejoin="round"/>
<path d="M224.547 296.135L301.153 267.841" stroke="#2E353A" strokeWidth="0.567964" stroke-linecap="round" stroke-linejoin="round"/>
<path d="M212.748 300.492L219.453 298.014" stroke="#2E353A" strokeWidth="0.567964" stroke-linecap="round" stroke-linejoin="round"/>
<path d="M203.201 291.448L291.615 258.797" stroke="#2E353A" strokeWidth="0.567964" stroke-linecap="round" stroke-linejoin="round"/>
<path d="M193.664 282.412L282.069 249.762" stroke="#2E353A" strokeWidth="0.567964" stroke-linecap="round" stroke-linejoin="round"/>
<path d="M268.812 242.087L272.52 240.718" stroke="#2E353A" strokeWidth="0.567964" stroke-linecap="round" stroke-linejoin="round"/>
<path d="M184.117 273.368L263.513 244.044" stroke="#2E353A" strokeWidth="0.567964" stroke-linecap="round" stroke-linejoin="round"/>
<path d="M174.57 264.324L262.984 231.674" stroke="#2E353A" strokeWidth="0.567964" stroke-linecap="round" stroke-linejoin="round"/>
<path d="M165.023 255.289L253.437 222.638" stroke="#2E353A" strokeWidth="0.567964" stroke-linecap="round" stroke-linejoin="round"/>
<path d="M155.484 246.245L243.889 213.594" stroke="#2E353A" strokeWidth="0.567964" stroke-linecap="round" stroke-linejoin="round"/>
<path d="M145.939 237.201L234.344 204.55" stroke="#2E353A" strokeWidth="0.567964" stroke-linecap="round" stroke-linejoin="round"/>
<path d="M221.672 196.667L224.808 195.506" stroke="#2E353A" strokeWidth="0.567964" stroke-linecap="round" stroke-linejoin="round"/>
<path d="M136.393 228.157L218.95 197.672" stroke="#2E353A" strokeWidth="0.567964" stroke-linecap="round" stroke-linejoin="round"/>
<path d="M153.242 209.367L215.26 186.471" stroke="#2E353A" strokeWidth="0.567964" stroke-linecap="round" stroke-linejoin="round"/>
<path d="M126.854 219.121L143.928 212.815" stroke="#2E353A" strokeWidth="0.567964" stroke-linecap="round" stroke-linejoin="round"/>
<g style="mix-blend-mode:multiply">
<path d="M157.521 242.502C166.47 243.672 165.682 228.356 163.412 223.219C161.756 225.116 160.523 227.344 159.792 229.755C159.062 232.165 158.852 234.703 159.176 237.201C159.27 238.367 159.677 239.486 160.354 240.44C160.697 240.913 161.172 241.273 161.719 241.477C162.266 241.68 162.861 241.718 163.43 241.584C164.244 241.239 164.933 240.652 165.405 239.903C167.051 237.72 168.142 235.017 169.875 233.016C172.274 234.636 180.799 237.408 179.569 231.448C178.893 228.156 180.53 228.529 182.289 230.14C183.016 230.799 184.16 230.443 185.061 230.045L193.724 226.233C194.826 225.671 196.02 225.31 197.25 225.168C201.408 224.96 204.128 228.824 208.208 226.095C209.941 224.951 210.339 221.85 212.54 220.672C214.108 219.805 215.953 219.753 217.737 219.511C223.871 218.697 227.007 215.457 232.672 212.529" stroke="#5956E9" strokeWidth="1.13593" stroke-linecap="round" stroke-linejoin="round"/>
</g>
<g style="mix-blend-mode:multiply">
<path d="M164.471 252.075C167.823 252.647 170.691 249.589 173.653 248.61C177.439 247.345 179.085 245.803 182.723 244.235C187.531 242.173 193.18 241.22 192.175 233.952C191.49 236.551 191.412 239.41 190.884 242.13C194.782 244.062 195.83 240.744 196.229 237.798C197.538 237.765 198.83 237.504 200.049 237.027C200.049 237.573 200.223 238.188 200.214 238.708C202.085 239.462 202.813 238.951 203.203 237.296C205.273 236.906 206.009 234.966 207.759 234.489C208.201 239.349 209.44 243.603 209.154 248.575C205.836 249.441 205.316 243.715 206.157 241.342C207.023 238.829 209.518 237.487 210.436 234.862C210.627 235.182 210.479 235.555 210.583 235.901C214.759 233.406 220.113 234.082 224.253 231.163C225.553 230.244 226.48 228.408 227.857 227.767C230.855 226.381 231.747 228.009 233.982 224.743" stroke="#5956E9" strokeWidth="1.13593" stroke-linecap="round" stroke-linejoin="round"/>
</g>
<g style="mix-blend-mode:multiply">
<path d="M194.65 280.619C200.671 278.887 203.313 263.926 201.581 258.433C199.554 251.789 196.764 259.074 196.114 262.644C195.595 265.502 194.763 273.039 197.431 275.214C203.348 280.013 206.96 270.146 207.688 265.684C207.948 268.474 206.267 271.913 206.952 274.919C211.742 275.482 214.116 271.497 213.813 267.382C214.408 267.952 214.811 268.692 214.966 269.501C215.121 270.309 215.021 271.146 214.679 271.896C219.253 271.575 218.499 263.856 219.011 260.746C218.751 262.921 218.95 265.468 220.414 267.226C221.635 268.682 223.966 269.323 225.499 268.197C227.032 267.07 226.729 264.108 224.867 263.718V282.473C224.925 283.015 224.817 283.563 224.555 284.041C223.94 284.907 222.432 284.725 221.731 283.894C221.113 282.986 220.822 281.896 220.908 280.801C220.821 274.659 222.718 266.247 227.474 262.055C227.718 262.652 227.799 263.304 227.708 263.943C228.163 263.766 228.575 263.492 228.914 263.14C229.254 262.789 229.513 262.368 229.675 261.907C229.986 263.285 230.801 265.017 232.195 264.775C232.658 264.653 233.082 264.415 233.426 264.082C235.713 262.193 238.19 260.946 239.724 258.26C239.94 258.936 240.165 259.612 240.391 260.296C240.754 258.988 242.002 258.13 243.223 257.541C245.087 256.665 247.102 256.156 249.157 256.042C250.89 255.956 252.779 256.138 254.355 255.393C255.054 255.02 255.723 254.594 256.356 254.119C258.151 252.936 260.23 252.254 262.377 252.144" stroke="#5956E9" strokeWidth="1.13593" stroke-linecap="round" stroke-linejoin="round"/>
</g>
<path d="M123.275 116.102C123.275 116.102 137.093 98.6894 141.771 92.4608C146.449 86.2321 149.836 81.4415 149.836 81.4415C149.836 81.4415 152.331 83.408 151.568 85.643C150.806 87.8781 134.372 110.324 130.717 116.024C127.061 121.724 127.572 128.94 127.841 131.427C128.109 133.913 120.858 125.787 123.275 116.102Z" fill="white" stroke="#2E353A" strokeWidth="1.27267" stroke-linecap="round" stroke-linejoin="round"/>
<path d="M149.836 81.4415C149.836 81.4415 158.439 69.478 164.823 59.5156C171.208 49.5533 180.529 34.5924 182.747 32.5999C184.965 30.6075 185.502 35.8052 184.783 39.2877C184.064 42.7702 176.432 52.49 171.277 60.4599C166.123 68.4298 162.935 74.1646 158.499 79.397C154.064 84.6294 154.324 84.8806 151.569 85.643C148.814 86.4053 149.351 83.6765 149.836 81.4415Z" fill="#2E353A" stroke="#2E353A" strokeWidth="1.27267" stroke-linecap="round" stroke-linejoin="round"/>
<path d="M120.305 117.852C121.258 111.398 123.415 99.4777 128.344 95.7267C133.273 91.9756 148.191 94.8604 149.43 95.0856C150.668 95.3109 170.299 99.6596 176.285 103.341C182.271 107.023 186.29 117.661 187.824 123.821C189.357 129.98 192.649 140.41 193.143 141.146C193.143 141.146 198.124 143.338 200.853 143.078C203.582 142.818 207.211 130.136 214.852 122.642C222.493 115.149 226.46 114.127 234.898 114.846C243.336 115.565 275.388 124.254 278.637 127.45C281.886 130.647 283.913 137.846 283.211 143.044C282.509 148.241 283.532 153.959 283.532 154.946C283.532 155.934 286.538 159.148 285.81 161.877C285.082 164.606 284.632 170.54 282.405 171.328C280.179 172.116 263.797 171.7 251.635 170.046C239.472 168.391 222.553 161.054 211.352 155.925C200.151 150.797 194.685 148.588 186.498 148.648C178.312 148.709 162.441 149.056 147.784 145.677C133.126 142.299 123.164 136.148 120.409 133.454C117.654 130.759 119.361 124.314 120.305 117.852ZM208.078 148.276C212.089 154.21 228.254 160.057 236.951 162.474C245.649 164.891 266.509 169.223 271.949 166.217C277.39 163.211 280.248 145.322 279.746 139.119C279.243 132.917 276.705 129.469 276.705 129.469C265.989 122.842 232.455 115.868 225.525 118.649C218.594 121.43 211.967 130.396 209.533 137.603C207.099 144.811 208.078 148.276 208.078 148.276ZM138.055 138.08C148.763 144.456 165.647 146.327 172.343 146.535C179.04 146.743 185.467 143.225 185.667 135.533C185.866 127.84 181.812 114.967 180.296 111.277C178.78 107.586 173.807 105.368 173.807 105.368C167.093 102.189 139.259 95.1809 134.547 95.9606C129.834 96.7402 125.711 103.896 124.749 114.352C123.787 124.808 127.348 131.704 138.055 138.08Z" fill="#2E353A" stroke="#2E353A" strokeWidth="1.27267" stroke-linecap="round" stroke-linejoin="round"/>
<path d="M282.788 154.73C282.788 154.73 285.542 158.931 287.509 155.943C289.475 152.954 314.84 124.505 314.84 124.505C314.84 124.505 315.828 124.245 315.594 126.237C315.36 128.23 288.808 163.878 287.821 165.619C286.833 167.36 282.623 167.889 281.635 167.152C280.648 166.416 282.788 154.73 282.788 154.73Z" fill="white" stroke="#2E353A" strokeWidth="1.27267" stroke-linecap="round" stroke-linejoin="round"/>
<path d="M313.107 125.501C314.557 122.921 315.864 120.263 317.023 117.54C319.709 111.571 321.355 99.9021 321.788 87.7394C322.221 75.5766 322.654 68.3864 324.898 70.6041C327.141 72.8218 325.218 84.7507 324.802 94.1673C324.387 103.584 321.458 113.044 320.748 118.016C320.211 121.767 317.335 127.71 315.351 127.719C313.367 127.727 313.619 127.234 313.107 125.501Z" fill="#2E353A" stroke="#2E353A" strokeWidth="1.27267" stroke-linecap="round" stroke-linejoin="round"/>
<path d="M149.429 281L160.335 293.345L144.119 289.689L28.7285 219.095L34.0475 210.406L149.429 281Z" fill="white" stroke="#2E353A" strokeWidth="1.4364" stroke-linecap="round" stroke-linejoin="round"/>
<g style="mix-blend-mode:multiply" opacity="0.5">
<path d="M149.429 281L160.335 293.345L144.119 289.689L28.7285 219.095L34.0475 210.406L149.429 281Z" fill="#5956E9"/>
<path d="M149.429 281L160.335 293.345L144.119 289.689L28.7285 219.095L34.0475 210.406L149.429 281Z" stroke="#2E353A" strokeWidth="1.4364" stroke-linecap="round" stroke-linejoin="round"/>
</g>
<path d="M32.8395 212.384L29.9414 217.121L145.329 287.719L148.227 282.983L32.8395 212.384Z" stroke="#2E353A" strokeWidth="0.718198" stroke-linecap="round" stroke-linejoin="round"/>
<path d="M149.457 281.026L144.146 289.698L160.337 293.345L149.457 281.026Z" fill="white" stroke="#2E353A" strokeWidth="1.4364" stroke-linecap="round" stroke-linejoin="round"/>
<path d="M152.236 291.517L160.336 293.345L154.896 287.186L152.236 291.517Z" fill="#5956E9" stroke="#2E353A" strokeWidth="1.4364" stroke-linecap="round" stroke-linejoin="round"/>
<path d="M18.4726 206.846C18.1227 207.416 17.8886 208.049 17.7837 208.709C17.6788 209.37 17.7051 210.044 17.8612 210.694C18.0173 211.344 18.3001 211.957 18.6934 212.498C19.0867 213.039 19.5828 213.497 20.1532 213.846L28.7295 219.095L34.0485 210.432L25.4723 205.183C24.323 204.477 22.9408 204.255 21.6286 204.567C20.3164 204.879 19.1815 205.698 18.4726 206.846Z" fill="white" stroke="#2E353A" strokeWidth="1.4364" stroke-linecap="round" stroke-linejoin="round"/>
<path d="M18.4726 206.846C18.1227 207.416 17.8886 208.049 17.7837 208.709C17.6788 209.37 17.7051 210.044 17.8612 210.694C18.0173 211.344 18.3001 211.957 18.6934 212.498C19.0867 213.039 19.5828 213.497 20.1532 213.846L24.2595 216.358L29.5785 207.695L25.4723 205.183C24.323 204.477 22.9408 204.255 21.6286 204.567C20.3164 204.879 19.1815 205.698 18.4726 206.846Z" fill="#2E353A" stroke="#2E353A" strokeWidth="1.4364" stroke-linecap="round" stroke-linejoin="round"/>
<path d="M251.322 165.48L248.282 163.341C247.811 163.011 247.273 162.791 246.706 162.698C246.139 162.605 245.558 162.641 245.007 162.804C241.793 163.739 235.729 166.122 233.997 168.001C231.744 170.323 231.034 174.525 232.117 176.5C233.2 178.475 237.644 180.996 237.644 180.996L256.26 169.665L251.322 165.48Z" fill="white" stroke="#2E353A" strokeWidth="0.9473" stroke-miterlimit="10"/>
<g style="mix-blend-mode:multiply" opacity="0.5">
<path d="M251.322 165.48L248.282 163.341C247.811 163.011 247.273 162.791 246.706 162.698C246.139 162.605 245.558 162.641 245.007 162.804C241.793 163.739 235.729 166.122 233.997 168.001C231.744 170.323 231.034 174.525 232.117 176.5C233.2 178.475 237.644 180.996 237.644 180.996L256.26 169.665L251.322 165.48Z" fill="#5956E9"/>
<path d="M251.322 165.48L248.282 163.341C247.811 163.011 247.273 162.791 246.706 162.698C246.139 162.605 245.558 162.641 245.007 162.804C241.793 163.739 235.729 166.122 233.997 168.001C231.744 170.323 231.034 174.525 232.117 176.5C233.2 178.475 237.644 180.996 237.644 180.996L256.26 169.665L251.322 165.48Z" stroke="#2E353A" strokeWidth="0.9473" stroke-miterlimit="10"/>
</g>
<path d="M253.221 164.606L238.494 171.337C238.494 171.337 233.513 174.152 235.09 182.772L321.329 246.271C321.329 246.271 324.326 248.454 329.741 246.609C335.155 244.763 340.699 238.379 341.869 232.982C343.038 227.585 339.27 225.887 338.568 225.289C337.866 224.691 256.132 165.247 256.132 165.247C255.268 164.695 254.237 164.468 253.221 164.606Z" fill="white" stroke="#2E353A" strokeWidth="0.9473" stroke-miterlimit="10"/>
<g style="mix-blend-mode:multiply" opacity="0.5">
<path d="M253.221 164.606L238.494 171.337C238.494 171.337 233.513 174.152 235.09 182.772L321.329 246.271C321.329 246.271 324.326 248.454 329.741 246.609C335.155 244.763 340.699 238.379 341.869 232.982C343.038 227.585 339.27 225.887 338.568 225.289C337.866 224.691 256.132 165.247 256.132 165.247C255.268 164.695 254.237 164.468 253.221 164.606Z" fill="#5956E9"/>
<path d="M253.221 164.606L238.494 171.337C238.494 171.337 233.513 174.152 235.09 182.772L321.329 246.271C321.329 246.271 324.326 248.454 329.741 246.609C335.155 244.763 340.699 238.379 341.869 232.982C343.038 227.585 339.27 225.887 338.568 225.289C337.866 224.691 256.132 165.247 256.132 165.247C255.268 164.695 254.237 164.468 253.221 164.606Z" stroke="#2E353A" strokeWidth="0.9473" stroke-miterlimit="10"/>
</g>
<path d="M336.064 242.13C330.632 247.198 324.057 248.982 321.337 246.106C318.617 243.23 320.861 236.776 326.292 231.7C331.724 226.623 338.299 224.847 341.019 227.724C343.739 230.6 341.487 237.053 336.064 242.13Z" fill="white" stroke="#2E353A" strokeWidth="0.9473" stroke-miterlimit="10"/>
<g style="mix-blend-mode:multiply">
<path d="M336.064 242.13C330.632 247.198 324.057 248.982 321.337 246.106C318.617 243.23 320.861 236.776 326.292 231.7C331.724 226.623 338.299 224.847 341.019 227.724C343.739 230.6 341.487 237.053 336.064 242.13Z" fill="#5956E9"/>
<path d="M336.064 242.13C330.632 247.198 324.057 248.982 321.337 246.106C318.617 243.23 320.861 236.776 326.292 231.7C331.724 226.623 338.299 224.847 341.019 227.724C343.739 230.6 341.487 237.053 336.064 242.13Z" stroke="#2E353A" strokeWidth="0.9473" stroke-miterlimit="10"/>
</g>
<path d="M256.123 165.247C255.262 164.697 254.234 164.47 253.221 164.606L238.494 171.337C238.494 171.337 233.513 174.152 235.09 182.772L294.725 226.684C294.301 224.657 294.379 221.694 296.657 218.177C298.771 214.894 308.265 209.601 313.394 206.915C289.12 189.252 256.123 165.247 256.123 165.247Z" fill="#2E353A" stroke="#2E353A" strokeWidth="1.27267" stroke-linecap="round" stroke-linejoin="round"/>
<path d="M324.551 231.544L293.053 208.717C292.581 208.376 292.203 207.922 291.954 207.396C291.704 206.87 291.591 206.29 291.625 205.709C291.659 205.129 291.838 204.565 292.147 204.072C292.455 203.579 292.883 203.171 293.391 202.887L298.268 200.227C298.84 199.917 299.488 199.775 300.138 199.816C300.788 199.858 301.412 200.081 301.941 200.461L335.241 224.579" fill="white"/>
<path d="M324.551 231.544L293.053 208.717C292.581 208.376 292.203 207.922 291.954 207.396C291.704 206.87 291.591 206.29 291.625 205.709C291.659 205.129 291.838 204.565 292.147 204.072C292.455 203.579 292.883 203.171 293.391 202.887L298.268 200.227C298.84 199.917 299.488 199.775 300.138 199.816C300.788 199.858 301.412 200.081 301.941 200.461L335.241 224.579" stroke="#2E353A" strokeWidth="0.9473" stroke-miterlimit="10"/>
<g style="mix-blend-mode:multiply" opacity="0.5">
<path d="M324.551 231.544L293.053 208.717C292.581 208.376 292.203 207.922 291.954 207.396C291.704 206.87 291.591 206.29 291.625 205.709C291.659 205.129 291.838 204.565 292.147 204.072C292.455 203.579 292.883 203.171 293.391 202.887L298.268 200.227C298.84 199.917 299.488 199.775 300.138 199.816C300.788 199.858 301.412 200.081 301.941 200.461L335.241 224.579" fill="#5956E9"/>
<path d="M324.551 231.544L293.053 208.717C292.581 208.376 292.203 207.922 291.954 207.396C291.704 206.87 291.591 206.29 291.625 205.709C291.659 205.129 291.838 204.565 292.147 204.072C292.455 203.579 292.883 203.171 293.391 202.887L298.268 200.227C298.84 199.917 299.488 199.775 300.138 199.816C300.788 199.858 301.412 200.081 301.941 200.461L335.241 224.579" stroke="#2E353A" strokeWidth="0.9473" stroke-miterlimit="10"/>
</g>
</svg>
