<svg width="33" height="16" viewBox="0 0 33 16" fill="none" xmlns="http://www.w3.org/2000/svg">
<path d="M8.47336 15.9996H7.35776C7.33454 15.9953 7.31144 15.9881 7.28808 15.9869C6.88451 15.9656 6.48509 15.9142 6.08866 15.839C4.98007 15.6286 3.95181 15.239 3.03178 14.6064C1.89633 13.8256 1.04779 12.8303 0.549626 11.5786C0.190954 10.6773 0.0162901 9.7416 0.00110755 8.77838C-0.00615931 8.31713 0.0210914 7.85873 0.119843 7.40588C0.152544 7.25625 0.151765 7.25612 0.311506 7.256C4.64852 7.25242 8.98541 7.24872 13.3224 7.24514C13.3477 7.24514 13.373 7.24514 13.4025 7.24514C13.4025 7.22736 13.4037 7.21748 13.4024 7.20785C13.3588 6.88772 13.2892 6.57302 13.1842 6.26586C12.8506 5.29065 12.2777 4.46989 11.4279 3.83322C10.5056 3.14234 9.44582 2.79776 8.28078 2.73751C7.72578 2.70887 7.17648 2.76147 6.63627 2.89036C5.61346 3.13444 4.72638 3.60815 3.97491 4.31187C3.96012 4.32582 3.94416 4.33866 3.92586 4.35458C3.22928 3.7063 2.53659 3.06147 1.84365 2.41652C1.85545 2.40343 1.86077 2.39689 1.86661 2.39096C2.56994 1.67762 3.38655 1.11119 4.3245 0.711302C5.30773 0.292034 6.34559 0.0778323 7.41875 0.015362C7.90057 -0.0126633 8.38187 0.00153453 8.86252 0.0475848C9.35096 0.0943759 9.83161 0.178452 10.306 0.297219C11.5928 0.619448 12.7359 1.19773 13.726 2.04343C14.6488 2.83159 15.3435 3.77581 15.8286 4.86052C16.089 5.44275 16.2736 6.04585 16.3726 6.67179C16.4005 6.84821 16.4198 7.026 16.4416 7.20328C16.446 7.23909 16.462 7.2523 16.5001 7.25081C16.5389 7.24946 16.5426 7.22958 16.5467 7.19933C16.5802 6.95315 16.6056 6.7055 16.6527 6.46166C16.8296 5.54609 17.1752 4.68953 17.6751 3.88988C18.4519 2.64751 19.5039 1.67441 20.8425 0.986863C21.8932 0.447222 23.0159 0.133759 24.2056 0.0357327C24.7538 -0.00945333 25.3024 -0.0116756 25.8505 0.0284487C26.344 0.0646222 26.8306 0.144006 27.3102 0.260799C28.7467 0.610682 29.9864 1.28551 31.0238 2.2943C31.0642 2.33356 31.1035 2.37368 31.1466 2.41689C30.4486 3.06666 29.756 3.71136 29.061 4.35829C29.0375 4.33446 29.0213 4.31804 29.005 4.30162C28.6738 3.97075 28.3049 3.68432 27.894 3.44704C27.1175 2.99851 26.2763 2.74752 25.3688 2.69504C24.9373 2.67011 24.5101 2.69628 24.0849 2.76739C23.6427 2.84134 23.2207 2.97554 22.8075 3.14061C22.0851 3.42913 21.4542 3.84062 20.93 4.39557C20.2433 5.12275 19.8187 5.97264 19.6307 6.93143C19.6107 7.03353 19.5985 7.13711 19.5817 7.24625C19.6223 7.2481 19.6519 7.25057 19.6816 7.25057C20.2847 7.25155 20.888 7.25242 21.4912 7.25279C23.4132 7.25378 25.3352 7.25452 27.2573 7.25538C29.0906 7.25625 30.9241 7.25761 32.7574 7.25736C32.8145 7.25736 32.8389 7.2697 32.8518 7.32736C32.9467 7.7507 32.9956 8.17898 32.9997 8.61096C33.0056 9.2395 32.9344 9.86136 32.7918 10.4752C32.6525 11.0743 32.4597 11.6568 32.1596 12.2021C31.283 13.795 29.9352 14.8775 28.1743 15.5037C27.4367 15.7659 26.6713 15.9173 25.8858 15.9756C25.8066 15.9815 25.7277 15.9916 25.6488 15.9999H24.5203C24.4951 15.9954 24.4702 15.9894 24.4447 15.9868C24.1488 15.9562 23.8509 15.9375 23.5571 15.8936C22.8835 15.7928 22.2313 15.6146 21.6026 15.3626C19.9577 14.7034 18.6676 13.6498 17.7347 12.2029C17.2467 11.4458 16.8997 10.6334 16.7046 9.76395C16.694 9.7163 16.673 9.70444 16.6268 9.7058C16.5426 9.70839 16.4581 9.70926 16.3739 9.70555C16.3229 9.70333 16.3026 9.72049 16.2922 9.76803C16.1526 10.4064 15.9223 11.0151 15.6154 11.5972C14.9211 12.9136 13.9305 13.9787 12.6155 14.7621C11.4284 15.4692 10.1315 15.8659 8.73626 15.9747C8.64841 15.9815 8.56082 15.9915 8.4731 16L8.47336 15.9996ZM19.7993 9.71358C19.805 9.73691 19.8078 9.75469 19.8137 9.77148C20.155 10.7476 20.7418 11.5599 21.5999 12.1907C22.5884 12.9172 23.723 13.2374 24.9573 13.2735C25.3752 13.2857 25.7898 13.2483 26.2015 13.1783C26.8588 13.0667 27.4767 12.8599 28.0386 12.5112C28.5266 12.2083 28.9617 11.8528 29.2842 11.385C29.6082 10.915 29.8227 10.3998 29.9716 9.85815C29.9843 9.81173 29.9942 9.76457 30.0064 9.71358H19.7991H19.7993ZM2.98117 9.71617C2.98558 9.73938 2.98714 9.75728 2.99259 9.77407C3.06772 10.0072 3.13222 10.2441 3.22123 10.4724C3.39421 10.9155 3.61858 11.334 3.94584 11.6951C4.43052 12.2301 5.02666 12.6218 5.70884 12.8892C6.35987 13.1444 7.04646 13.2597 7.74901 13.2708C8.05253 13.2756 8.35774 13.2539 8.66022 13.2255C9.15203 13.1795 9.63138 13.0693 10.0882 12.8913C11.588 12.3068 12.6104 11.2855 13.1513 9.83062C13.1645 9.79494 13.1748 9.75815 13.1882 9.7163H2.98117V9.71617Z" fill="#5956E9"/>
</svg>
