<svg width="24" height="24" viewBox="0 0 24 24" fill="none" xmlns="http://www.w3.org/2000/svg">
<path d="M22.3827 6C21.703 4.83047 13.3654 0 12.0074 0C10.6494 0 2.30848 4.81828 1.63301 6C0.95754 7.18172 0.95379 16.8188 1.63301 18C2.31223 19.1812 10.6508 24 12.0074 24C13.3639 24 21.703 19.1756 22.3822 18C23.0614 16.8244 23.0624 7.17188 22.3827 6ZM14.8185 19.4166C14.631 19.4166 12.9008 17.7398 13.0372 17.603C13.078 17.5622 13.3307 17.5336 13.8599 17.5172C13.8599 16.2877 13.8875 14.302 13.9039 13.4709C13.9039 13.3772 13.8833 13.3102 13.8833 13.1967H10.1366C10.1366 13.5295 10.115 14.8936 10.2008 16.613C10.2116 16.8258 10.1268 16.8942 9.93176 16.8914C9.45692 16.8914 8.9816 16.8862 8.50629 16.8877C8.3141 16.8877 8.23113 16.8159 8.23723 16.6012C8.28035 15.0338 8.37785 12.6637 8.2302 6.63234V6.48375C7.77692 6.46734 7.46238 6.43687 7.42113 6.3975C7.28426 6.26062 9.0402 4.58391 9.22535 4.58391C9.41051 4.58391 11.1552 6.26109 11.0193 6.3975C10.9785 6.43828 10.6489 6.46734 10.2332 6.48375V6.63188C10.1197 7.83891 10.1394 10.3627 10.1099 11.572H13.8721C13.8721 11.3587 13.8904 9.94359 13.8158 7.65141C13.8111 7.4925 13.8604 7.40906 14.0132 7.40766C14.5321 7.40391 15.0514 7.40156 15.5708 7.40484C15.733 7.40484 15.785 7.48547 15.7818 7.65703C15.6093 16.6238 15.7499 15.998 15.7499 17.5167C16.1657 17.5331 16.5383 17.5636 16.5791 17.603C16.7141 17.7394 15.0032 19.4166 14.8175 19.4166H14.8185Z" fill="#5956E9"/>
</svg>
