<svg width="28" height="29" viewBox="0 0 28 29" fill="none" xmlns="http://www.w3.org/2000/svg">
<path d="M18.4802 14.4905C18.4802 15.3542 18.2298 16.1985 17.7608 16.9166C17.2919 17.6348 16.6253 18.1945 15.8454 18.525C15.0654 18.8555 14.2073 18.942 13.3793 18.7735C12.5514 18.605 11.7909 18.1891 11.194 17.5784C10.597 16.9676 10.1905 16.1895 10.0259 15.3424C9.86117 14.4953 9.9457 13.6173 10.2687 12.8193C10.5918 12.0214 11.1388 11.3393 11.8407 10.8595C12.5426 10.3796 13.3678 10.1235 14.212 10.1235C15.3429 10.1271 16.4265 10.5884 17.2262 11.4066C18.0258 12.2247 18.4766 13.3334 18.4802 14.4905ZM27.55 8.48592V20.495C27.55 22.5219 26.763 24.4657 25.3623 25.8989C23.9615 27.3321 22.0617 28.1372 20.0807 28.1372H8.34329C6.36232 28.1372 4.46248 27.3321 3.06172 25.8989C1.66096 24.4657 0.874023 22.5219 0.874023 20.495V8.48592C0.874023 6.45909 1.66096 4.51527 3.06172 3.08209C4.46248 1.6489 6.36232 0.84375 8.34329 0.84375H20.0807C22.0617 0.84375 23.9615 1.6489 25.3623 3.08209C26.763 4.51527 27.55 6.45909 27.55 8.48592ZM20.6142 14.4905C20.6142 13.1949 20.2387 11.9285 19.5353 10.8513C18.8318 9.77404 17.8319 8.93446 16.662 8.43867C15.4922 7.94288 14.2049 7.81316 12.963 8.06591C11.7211 8.31866 10.5803 8.94253 9.68494 9.85863C8.78957 10.7747 8.17982 11.9419 7.93279 13.2126C7.68576 14.4832 7.81254 15.8003 8.29711 16.9972C8.78168 18.1942 9.60227 19.2172 10.6551 19.937C11.708 20.6567 12.9458 21.0409 14.212 21.0409C15.91 21.0409 17.5384 20.3508 18.7391 19.1223C19.9397 17.8939 20.6142 16.2278 20.6142 14.4905ZM22.7483 7.39418C22.7483 7.07029 22.6544 6.75368 22.4786 6.48437C22.3027 6.21507 22.0527 6.00517 21.7603 5.88123C21.4678 5.75728 21.146 5.72485 20.8355 5.78804C20.525 5.85123 20.2398 6.00719 20.016 6.23622C19.7921 6.46524 19.6397 6.75703 19.5779 7.0747C19.5162 7.39236 19.5479 7.72163 19.669 8.02086C19.7902 8.3201 19.9953 8.57586 20.2585 8.7558C20.5217 8.93574 20.8312 9.03179 21.1478 9.03179C21.5722 9.03179 21.9794 8.85925 22.2795 8.55214C22.5797 8.24503 22.7483 7.8285 22.7483 7.39418Z" fill="#5956E9"/>
</svg>
