<svg width="16" height="18" viewBox="0 0 16 18" fill="none" xmlns="http://www.w3.org/2000/svg">
<path d="M0.370515 7.89975L1.69877 9.16575L5.89727 13.0215L7.69727 11.3033C7.77436 11.1938 7.81281 11.0617 7.80657 10.928C7.80032 10.7942 7.74973 10.6663 7.66277 10.5645L6.00977 9.138L6.01727 9.13425L4.23902 7.43475C4.13819 7.32317 4.08369 7.17736 4.08662 7.02701C4.08954 6.87665 4.14967 6.73307 4.25477 6.6255L9.04727 2.0685L6.87677 0L0.373515 6.1785C0.255636 6.28872 0.161656 6.42199 0.0974051 6.57003C0.0331536 6.71808 0 6.87774 0 7.03912C0 7.20051 0.0331536 7.36017 0.0974051 7.50822C0.161656 7.65626 0.255636 7.78953 0.373515 7.89975H0.370515ZM14.6625 10.1025L13.335 8.83425L9.13877 4.97775L7.33052 6.696C7.24925 6.8038 7.20815 6.93659 7.21431 7.07146C7.22047 7.20632 7.2735 7.33481 7.36427 7.43475L9.01802 8.853H9.01352L10.7903 10.5518C10.8901 10.662 10.9435 10.8065 10.9395 10.9551C10.9354 11.1038 10.8742 11.2451 10.7685 11.3498L5.97527 15.906L8.15852 18L14.661 11.8215C14.779 11.7113 14.8731 11.5781 14.9374 11.43C15.0017 11.282 15.0349 11.1223 15.0349 10.9609C15.0349 10.7995 15.0017 10.6398 14.9374 10.4917C14.8731 10.3437 14.779 10.2104 14.661 10.1003L14.6625 10.1025Z" fill="#8F8F8F"/>
</svg>
