<svg width="33" height="25" viewBox="0 0 33 25" fill="none" xmlns="http://www.w3.org/2000/svg">
<path d="M14.8121 23.2605C12.5158 24.5862 10.0999 24.9094 7.5645 24.2301C5.02908 23.5507 3.09849 22.0629 1.77273 19.7666C0.44697 17.4703 0.123774 15.0545 0.803139 12.519C1.4825 9.98362 2.97033 8.05303 5.26661 6.72727C7.12659 5.65341 9.05292 5.23748 11.0456 5.47948C13.0379 5.72293 14.7669 6.47777 16.2328 7.74403L27.7372 1.10198C28.4949 0.66448 29.2995 0.559404 30.1509 0.786754C31.0019 1.01555 31.6461 1.50883 32.0836 2.26661C32.5609 3.09327 32.6583 3.92491 32.3759 4.76153C32.0935 5.59815 31.6079 6.21533 30.919 6.61305L32.5099 9.36859C32.9474 10.1264 33.0525 10.9309 32.8251 11.7823C32.5963 12.6333 32.103 13.2775 31.3453 13.715C30.5875 14.1525 29.7829 14.2576 28.9316 14.0303C28.0806 13.8015 27.4363 13.3082 26.9988 12.5504L25.4079 9.79487L19.4146 13.2551C19.7783 15.1577 19.5675 17.0326 18.7822 18.8796C17.9954 20.7263 16.672 22.1866 14.8121 23.2605ZM11.6302 17.7494C12.388 17.3119 12.8806 16.6675 13.1079 15.8161C13.3367 14.9651 13.2324 14.1607 12.7949 13.403C12.3574 12.6452 11.7127 12.1522 10.8608 11.9239C10.0103 11.696 9.2062 11.8008 8.44843 12.2383C7.69065 12.6758 7.19783 13.3198 6.96995 14.1703C6.74168 15.0222 6.8463 15.827 7.2838 16.5848C7.7213 17.3426 8.36574 17.8351 9.21711 18.0625C10.0681 18.2913 10.8725 18.1869 11.6302 17.7494Z" fill="#5956E9"/>
</svg>
