<svg width="24" height="24" viewBox="0 0 24 24" fill="none" xmlns="http://www.w3.org/2000/svg">
<g clip-path="url(#clip0_2870_23268)">
<path d="M13.4832 0.000537187C13.302 0.00654945 13.1239 0.0483454 12.9589 0.123517C12.794 0.198689 12.6456 0.305752 12.5222 0.438537L7.11619 6.22654L3.26219 10.3525C2.70089 10.9502 2.2869 11.6706 2.05319 12.4565C2.0031 12.6254 1.96139 12.7966 1.92819 12.9695C1.77835 13.7521 1.7995 14.5579 1.99019 15.3315C2.07495 15.6806 2.19178 16.021 2.33919 16.3485C2.6449 17.029 3.07609 17.6458 3.61019 18.1665L7.88719 22.3595L7.92619 22.3975C10.1742 24.5625 13.7782 24.5305 15.9892 22.3235L18.3852 19.9315C18.9252 19.3915 18.9252 18.5175 18.3882 17.9765C18.2604 17.848 18.1085 17.746 17.9412 17.6763C17.7739 17.6066 17.5945 17.5706 17.4133 17.5703C17.2321 17.57 17.0526 17.6055 16.8851 17.6747C16.7176 17.7439 16.5654 17.8454 16.4372 17.9735L14.0412 20.3655C13.4825 20.9169 12.7313 21.2292 11.9464 21.2363C11.1615 21.2434 10.4047 20.9447 9.83619 20.4035L9.81619 20.3845L5.54019 16.1915C4.88819 15.5515 4.56819 14.7225 4.59219 13.9285C4.59695 13.7525 4.61906 13.5773 4.65819 13.4055C4.7587 12.9699 4.9722 12.5684 5.27719 12.2415L9.13019 8.11454C10.1882 6.98054 12.3342 6.84454 13.5602 7.83654L17.0612 10.6675C17.6542 11.1475 18.5222 11.0545 19.0012 10.4605C19.2308 10.1752 19.3379 9.81046 19.2991 9.44627C19.2603 9.08207 19.0788 8.7481 18.7942 8.51754L15.2942 5.68654C14.4942 5.03954 13.5282 4.64154 12.5202 4.48454L14.5352 2.32654C14.7209 2.12682 14.8435 1.87667 14.8876 1.60751C14.9316 1.33835 14.8952 1.06217 14.7828 0.813667C14.6704 0.56516 14.4871 0.355402 14.2558 0.210735C14.0246 0.0660672 13.7558 -0.00705986 13.4832 0.000537187ZM10.6172 12.8155C10.4358 12.8155 10.2562 12.8513 10.0886 12.9208C9.92106 12.9903 9.76885 13.0921 9.64067 13.2204C9.5125 13.3488 9.41089 13.5012 9.34166 13.6688C9.27243 13.8365 9.23693 14.0161 9.23719 14.1975C9.23693 14.3789 9.27243 14.5586 9.34166 14.7263C9.41089 14.8939 9.5125 15.0463 9.64067 15.1746C9.76885 15.303 9.92106 15.4048 10.0886 15.4743C10.2562 15.5438 10.4358 15.5795 10.6172 15.5795H20.7902C20.9716 15.5795 21.1512 15.5438 21.3188 15.4743C21.4863 15.4048 21.6385 15.303 21.7667 15.1746C21.8949 15.0463 21.9965 14.8939 22.0657 14.7263C22.135 14.5586 22.1705 14.3789 22.1702 14.1975C22.1705 14.0161 22.135 13.8365 22.0657 13.6688C21.9965 13.5012 21.8949 13.3488 21.7667 13.2204C21.6385 13.0921 21.4863 12.9903 21.3188 12.9208C21.1512 12.8513 20.9716 12.8155 20.7902 12.8155H10.6172Z" fill="#5956E9"/>
</g>
<defs>
<clipPath id="clip0_2870_23268">
<rect width="24" height="24" fill="white"/>
</clipPath>
</defs>
</svg>
