<svg width="27" height="29" viewBox="0 0 27 29" fill="none" xmlns="http://www.w3.org/2000/svg">
<path d="M23.8584 0.84375C24.6445 0.84375 25.3985 1.16326 25.9543 1.73198C26.5102 2.3007 26.8224 3.07206 26.8224 3.87636V25.1046C26.8224 25.9089 26.5102 26.6803 25.9543 27.249C25.3985 27.8177 24.6445 28.1372 23.8584 28.1372H3.11048C2.32438 28.1372 1.57048 27.8177 1.01462 27.249C0.458761 26.6803 0.146484 25.9089 0.146484 25.1046V3.87636C0.146484 3.07206 0.458761 2.3007 1.01462 1.73198C1.57048 1.16326 2.32438 0.84375 3.11048 0.84375H23.8584ZM23.1174 24.3464V16.31C23.1174 14.999 22.6084 13.7417 21.7024 12.8147C20.7963 11.8877 19.5675 11.3669 18.2861 11.3669C17.0264 11.3669 15.5593 12.1554 14.8479 13.3381V11.655H10.7131V24.3464H14.8479V16.8711C14.8479 15.7035 15.7667 14.7483 16.9079 14.7483C17.4581 14.7483 17.9859 14.9719 18.375 15.37C18.7641 15.7681 18.9827 16.3081 18.9827 16.8711V24.3464H23.1174ZM5.89664 9.2744C6.55696 9.2744 7.19024 9.00601 7.65716 8.52828C8.12408 8.05056 8.38639 7.40262 8.38639 6.72701C8.38639 5.31684 7.27489 4.16445 5.89664 4.16445C5.23238 4.16445 4.59533 4.43444 4.12563 4.91501C3.65593 5.39558 3.39206 6.04738 3.39206 6.72701C3.39206 8.13717 4.51838 9.2744 5.89664 9.2744ZM7.95661 24.3464V11.655H3.85148V24.3464H7.95661Z" fill="#5956E9"/>
</svg>
