<svg width="35" height="35" viewBox="0 0 35 35" fill="none" xmlns="http://www.w3.org/2000/svg">
<path d="M17.5646 0.433594C8.36136 0.433594 0.89209 8.07576 0.89209 17.492C0.89209 26.9082 8.36136 34.5504 17.5646 34.5504C26.7678 34.5504 34.237 26.9082 34.237 17.492C34.237 8.07576 26.7678 0.433594 17.5646 0.433594ZM25.3006 12.0333C25.0505 14.7285 23.9668 21.279 23.4166 24.2983C23.1832 25.5777 22.7164 26.0042 22.2829 26.0553C21.3159 26.1406 20.5823 25.4071 19.6486 24.7759C18.1814 23.7866 17.3478 23.1725 15.9307 22.2172C14.2801 21.1084 15.3471 20.4943 16.2975 19.5049C16.5475 19.249 20.8157 15.2744 20.8991 14.9162C20.9106 14.8619 20.9091 14.8056 20.8946 14.7521C20.88 14.6986 20.853 14.6495 20.8157 14.6091C20.7157 14.5238 20.5823 14.558 20.4656 14.575C20.3155 14.6091 17.9814 16.1956 13.4298 19.3343C12.7629 19.7949 12.1627 20.0337 11.6292 20.0166C11.029 19.9996 9.89523 19.6755 9.04493 19.3855C7.99456 19.0443 7.17761 18.8567 7.2443 18.2596C7.27765 17.9526 7.69446 17.6455 8.47807 17.3214C13.3464 15.155 16.5809 13.7221 18.1981 13.0398C22.8331 11.061 23.7834 10.7198 24.417 10.7198C24.5503 10.7198 24.8671 10.7539 25.0672 10.9245C25.2339 11.061 25.2839 11.2486 25.3006 11.3851C25.2839 11.4874 25.3173 11.7945 25.3006 12.0333Z" fill="#5956E9"/>
</svg>
