<svg width="66" height="64" viewBox="0 0 66 64" fill="none" xmlns="http://www.w3.org/2000/svg">
<rect x="0.422852" width="65.5034" height="64" rx="20" fill="#5956E9"/>
<path d="M47.7148 22.6693L33.5444 18.0542C33.3039 17.9819 33.0468 17.9819 32.8063 18.0542L18.6506 22.6693H18.6211L18.4735 22.7414H18.4587L18.3111 22.8279C18.3111 22.8424 18.2964 22.8424 18.2816 22.8568L18.1635 22.9577L18.0602 23.0731C18.0602 23.0875 18.0454 23.0875 18.0454 23.102L17.9569 23.2318C17.9569 23.2462 17.9569 23.2462 17.9421 23.2606L17.8831 23.3904L17.8388 23.549V23.5923C17.8242 23.6488 17.8192 23.7073 17.824 23.7654V35.3031C17.824 35.6091 17.9484 35.9025 18.1699 36.1189C18.3914 36.3353 18.6917 36.4568 19.0049 36.4568C19.3181 36.4568 19.6184 36.3353 19.8399 36.1189C20.0614 35.9025 20.1858 35.6091 20.1858 35.3031V25.3662L25.1454 26.9815C24.2137 28.4387 23.7224 30.1236 23.7284 31.8418C23.7289 33.4044 24.1355 34.9413 24.91 36.3085C25.6845 37.6757 26.8017 38.8284 28.1566 39.6585C25.3409 40.6993 22.937 42.5884 21.2928 45.0524C21.1252 45.3113 21.0685 45.6242 21.1347 45.9237C21.201 46.2231 21.385 46.4851 21.6471 46.6533C21.7757 46.7365 21.92 46.794 22.0715 46.8224C22.223 46.8508 22.3788 46.8496 22.5298 46.8187C22.6809 46.7879 22.8241 46.728 22.9513 46.6427C23.0785 46.5574 23.1871 46.4482 23.2708 46.3216C24.3426 44.7085 25.8102 43.3827 27.54 42.4649C29.2698 41.5471 31.2069 41.0663 33.1753 41.0663C35.1438 41.0663 37.0809 41.5471 38.8107 42.4649C40.5405 43.3827 42.0081 44.7085 43.0799 46.3216C43.1877 46.4815 43.3345 46.6127 43.5072 46.7033C43.6799 46.794 43.8729 46.8412 44.0689 46.8408C44.2951 46.8431 44.5166 46.7777 44.7036 46.6533C44.9657 46.4851 45.1497 46.2231 45.216 45.9237C45.2822 45.6242 45.2254 45.3113 45.0579 45.0524C43.4137 42.5884 41.0098 40.6993 38.194 39.6585C39.549 38.8284 40.6661 37.6757 41.4407 36.3085C42.2152 34.9413 42.6218 33.4044 42.6223 31.8418C42.6283 30.1236 42.137 28.4387 41.2053 26.9815L47.7148 24.8615C47.9511 24.7856 48.1568 24.6388 48.3026 24.442C48.4485 24.2451 48.527 24.0084 48.527 23.7654C48.527 23.5224 48.4485 23.2856 48.3026 23.0888C48.1568 22.892 47.9511 22.7452 47.7148 22.6693ZM33.1753 38.7644C31.2962 38.7644 29.4941 38.035 28.1653 36.7368C26.8366 35.4385 26.0901 33.6778 26.0901 31.8418C26.093 30.3646 26.5734 28.926 27.4629 27.7315L32.8063 29.4765C33.046 29.5536 33.3047 29.5536 33.5444 29.4765L38.8878 27.7315C39.7773 28.926 40.2577 30.3646 40.2606 31.8418C40.2606 33.6778 39.5141 35.4385 38.1854 36.7368C36.8566 38.035 35.0545 38.7644 33.1753 38.7644Z" fill="white"/>
</svg>
