<svg width="66" height="64" viewBox="0 0 66 64" fill="none" xmlns="http://www.w3.org/2000/svg">
<rect x="0.422852" width="65.5034" height="64" rx="20" fill="#FBC400"/>
<path d="M33.6862 32.2857C37.7242 32.2857 40.9968 29.0882 40.9968 25.1429C40.9968 21.1975 37.7242 18 33.6862 18C29.6482 18 26.3756 21.1975 26.3756 25.1429C26.3756 29.0882 29.6482 32.2857 33.6862 32.2857ZM38.8037 34.0714H37.8498C36.5819 34.6406 35.1712 34.9643 33.6862 34.9643C32.2012 34.9643 30.7962 34.6406 29.5226 34.0714H28.5688C24.3309 34.0714 20.8926 37.4308 20.8926 41.5714V43.8929C20.8926 45.3717 22.1205 46.5714 23.6341 46.5714H43.7383C45.2519 46.5714 46.4798 45.3717 46.4798 43.8929V41.5714C46.4798 37.4308 43.0415 34.0714 38.8037 34.0714Z" fill="white"/>
</svg>
