<svg width="32" height="28" viewBox="0 0 32 28" fill="none" xmlns="http://www.w3.org/2000/svg">
<path d="M31.1884 4.05767C30.0429 4.59618 28.8081 4.95006 27.5287 5.11931C28.8378 4.30385 29.8495 3.01142 30.3255 1.45744C29.0908 2.22674 27.7221 2.76525 26.2791 3.07297C25.1038 1.74977 23.4525 0.980469 21.578 0.980469C18.082 0.980469 15.2257 3.93458 15.2257 7.58107C15.2257 8.1042 15.2852 8.61193 15.3894 9.0889C10.0933 8.81195 5.37737 6.18094 2.2384 2.19596C1.68796 3.16528 1.37555 4.30385 1.37555 5.50396C1.37555 7.79647 2.4913 9.82743 4.21699 10.9814C3.16075 10.9814 2.17889 10.6737 1.31605 10.2121V10.2582C1.31605 13.4585 3.51779 16.1357 6.43361 16.7358C5.49747 17.0007 4.51467 17.0376 3.56242 16.8435C3.96648 18.1551 4.75781 19.3028 5.82518 20.1252C6.89255 20.9476 8.18228 21.4034 9.51308 21.4285C7.25723 23.2755 4.46096 24.2738 1.58382 24.2595C1.07802 24.2595 0.572212 24.2287 0.0664062 24.1672C2.89297 26.0443 6.25509 27.1367 9.85524 27.1367C21.578 27.1367 28.0196 17.0742 28.0196 8.35037C28.0196 8.05804 28.0196 7.78109 28.0048 7.48875C29.2544 6.56559 30.3255 5.39626 31.1884 4.05767Z" fill="#5956E9"/>
</svg>
